<svg width="100" height="85" viewBox="0 0 100 85" fill="none" xmlns="http://www.w3.org/2000/svg">
<path d="M49.9542 1.17221C26.6895 1.17221 7.8784 19.7179 7.82884 42.5942C7.76186 73.5455 22.7636 83.4236 49.9542 83.3577C77.1448 83.4236 92.1465 73.5455 92.0795 42.5942C92.0299 19.7179 73.2189 1.17221 49.9542 1.17221Z" fill="white"/>
<path d="M60.5789 2.50245C53.6106 0.728798 46.2979 0.728798 39.3296 2.50245L37.7651 14.1599C45.7121 11.7874 54.1964 11.7874 62.1434 14.1599L60.5789 2.50245Z" stroke="#1A1D63" stroke-width="2.78383" stroke-linecap="round" stroke-linejoin="round"/>
<path d="M49.9543 12.3799C45.8277 12.4232 41.7265 13.0219 37.7651 14.1592L39.0256 17.7706C46.1808 15.8529 53.7277 15.8529 60.8829 17.7706L62.1434 14.1592C58.182 13.0219 54.0808 12.4232 49.9543 12.3799V12.3799Z" stroke="#1A1D63" stroke-width="2.78383" stroke-linecap="round" stroke-linejoin="round"/>
<path d="M49.9542 1.17221C26.6895 1.17221 7.8784 19.7179 7.82884 42.5942C7.76186 73.5455 22.7636 83.4236 49.9542 83.3577C77.1448 83.4236 92.1465 73.5455 92.0795 42.5942C92.0299 19.7179 73.2189 1.17221 49.9542 1.17221Z" stroke="#1A1D63" stroke-width="2.78383" stroke-linecap="round" stroke-linejoin="round"/>
<path d="M92.0795 42.5935C92.0902 47.7196 91.6884 52.2688 90.8847 56.2911C90.3969 58.6823 89.273 60.9036 87.6276 62.7285C85.9821 64.5533 83.8739 65.9164 81.518 66.6789C60.4754 73.5646 39.4333 73.5646 18.3916 66.6789C16.0148 65.9011 13.8915 64.5151 12.2397 62.6634C10.5879 60.8116 9.46721 58.5609 8.9928 56.1423C8.21057 52.1581 7.81811 47.6603 7.82883 42.5988V42.533C7.84155 40.6106 8.27245 38.7131 9.09259 36.968C9.91274 35.2229 11.1031 33.6705 12.5838 32.4152C37.4572 11.2103 62.3297 10.9688 87.2012 31.6908C88.6873 32.9294 89.8894 34.4637 90.7284 36.1925C91.5674 37.9213 92.0243 39.8053 92.0688 41.7203C92.0755 42.0061 92.0795 42.2998 92.0795 42.5935Z" fill="#080A28"/>
<path opacity="0.75" d="M15.9618 50.0877C15.9112 50.4882 15.7613 50.8703 15.5255 51.2005C15.2896 51.5307 14.9749 51.7989 14.609 51.9817C13.891 52.3399 13.0204 52.3979 12.4109 51.1914C11.6247 49.6373 11.6421 47.8144 11.6461 46.0403V45.9653C11.6461 45.5482 11.6662 45.1324 11.7064 44.718C12.1537 39.9528 13.95 36.2966 19.1149 32.4876C22.8494 29.7336 25.3622 27.7936 29.3846 26.5437C32.6516 25.5282 34.0526 27.9925 31.4701 30.1735C21.8957 38.7819 19.7833 40.207 16.6383 47.5984C16.2996 48.3944 16.072 49.2317 15.9618 50.0877Z" fill="white"/>
<path d="M92.0798 42.5936C92.0905 47.7209 91.6886 52.2688 90.885 56.2911C90.3975 58.6825 89.2737 60.9039 87.6282 62.7287C85.9827 64.5536 83.8744 65.9167 81.5183 66.6789C60.4757 73.5655 39.4336 73.5655 18.3919 66.6789C15.717 65.8046 13.3702 64.1617 11.6545 61.9625C35.8381 65.7477 59.1751 67.1623 76.6548 60.1383C82.9957 57.5898 87.4641 51.821 88.1472 45.1237C88.6294 40.3901 88.1472 35.5986 86.3684 31.0152C86.6443 31.2408 86.9212 31.4687 87.1989 31.6987C88.6847 32.9362 89.8869 34.4693 90.7264 36.197C91.5658 37.9246 92.0234 39.8075 92.0691 41.7217C92.0762 42.0097 92.0798 42.3003 92.0798 42.5936Z" fill="black"/>
<path d="M92.0795 42.5935C92.0902 47.7196 91.6884 52.2688 90.8847 56.2911C90.397 58.6823 89.2731 60.9036 87.6276 62.7285C85.9821 64.5533 83.8739 65.9164 81.518 66.6789C60.4754 73.5646 39.4333 73.5646 18.3916 66.6789C16.0148 65.9011 13.8915 64.5151 12.2397 62.6634C10.5879 60.8116 9.46721 58.5609 8.9928 56.1423C8.21057 52.1581 7.81811 47.6603 7.82883 42.5988V42.533C7.84155 40.6106 8.27245 38.7131 9.09259 36.968C9.91274 35.2229 11.1031 33.6705 12.5838 32.4152C37.4572 11.2103 62.3297 10.9688 87.2012 31.6908C88.6873 32.9294 89.8894 34.4637 90.7284 36.1925C91.5674 37.9213 92.0243 39.8053 92.0688 41.7203C92.0755 42.0061 92.0795 42.2998 92.0795 42.5935Z" stroke="#1A1D63" stroke-width="2.78383" stroke-linecap="round" stroke-linejoin="round"/>
<path opacity="0.2" d="M7.83032 42.4381C7.84778 38.6514 8.39171 34.8848 9.44703 31.243C36.3599 6.39419 63.2719 6.08687 90.183 30.3211C91.3397 33.9885 91.9735 37.796 92.0662 41.6347C92.0108 39.7331 91.5488 37.8642 90.7101 36.1498C89.8715 34.4354 88.6751 32.9138 87.1987 31.6842C62.3263 10.9622 37.4538 11.2033 12.5813 32.4073C11.1124 33.6533 9.9293 35.1918 9.11028 36.921C8.29126 38.6502 7.85499 40.5307 7.83032 42.4381Z" fill="#1A1D63"/>
<path d="M9.44702 31.2469C36.3599 6.39812 63.2719 6.09081 90.183 30.325" stroke="#1A1D63" stroke-width="2.41265" stroke-linecap="round" stroke-linejoin="round"/>
<path d="M97.7191 57.1788C97.6757 57.5287 97.5578 57.8656 97.3732 58.1676C97.1886 58.4696 96.9413 58.7301 96.6475 58.9319C94.4802 60.4004 92.0089 61.5252 89.2483 62.3273C91.1396 56.9945 92.1014 50.4736 92.0839 42.5936C92.0783 37.961 91.2847 33.362 89.7359 28.9868C92.2623 29.6928 94.6308 30.8608 96.7172 32.4297C96.9892 32.6359 97.2163 32.8937 97.3852 33.1878C97.5541 33.4819 97.6612 33.8063 97.7003 34.1419C98.6567 42.2393 98.6629 49.9182 97.7191 57.1788Z" fill="white"/>
<path d="M10.6645 62.3273C7.9039 61.5252 5.4326 60.4004 3.26534 58.9319C2.97154 58.7301 2.72428 58.4696 2.53965 58.1676C2.35502 57.8656 2.23717 57.5287 2.19377 57.1788C1.25525 49.9165 1.26196 42.2375 2.21387 34.1419C2.25295 33.8063 2.3601 33.4819 2.52897 33.1878C2.69785 32.8937 2.92502 32.6359 3.19703 32.4297C5.28178 30.8614 7.64837 29.6934 10.173 28.9868C8.62553 33.3622 7.83325 37.9612 7.8289 42.5936C7.81148 50.4776 8.77322 56.9984 10.6645 62.3273Z" fill="white"/>
<path opacity="0.3" d="M98.2749 51.2033C98.1588 53.2228 97.9736 55.2155 97.7191 57.1815C97.6757 57.5313 97.5578 57.8682 97.3732 58.1702C97.1886 58.4723 96.9413 58.7327 96.6475 58.9345C94.4802 60.4031 92.0089 61.5278 89.2483 62.3299C89.8818 60.5258 90.3941 58.6828 90.782 56.8127C93.7869 55.7092 96.3936 53.7578 98.2749 51.2033Z" fill="#1A1D63"/>
<path opacity="0.3" d="M1.63403 51.2033C1.75101 53.2228 1.93631 55.2155 2.18991 57.1815C2.23331 57.5313 2.35115 57.8682 2.53578 58.1702C2.72041 58.4723 2.96769 58.7327 3.26149 58.9345C5.42874 60.4031 7.90005 61.5278 10.6607 62.3299C10.0272 60.5258 9.51487 58.6828 9.12699 56.8127C6.12206 55.7092 3.51541 53.7578 1.63403 51.2033Z" fill="#1A1D63"/>
<path d="M97.7191 57.1788C97.6757 57.5287 97.5578 57.8656 97.3732 58.1676C97.1886 58.4696 96.9413 58.7301 96.6475 58.9319C94.4802 60.4004 92.0089 61.5252 89.2483 62.3273C91.1396 56.9945 92.1014 50.4736 92.0839 42.5936C92.0783 37.961 91.2847 33.362 89.7359 28.9868C92.2623 29.6928 94.6308 30.8608 96.7172 32.4297C96.9892 32.6359 97.2163 32.8937 97.3852 33.1878C97.5541 33.4819 97.6612 33.8063 97.7003 34.1419C98.6567 42.2393 98.6629 49.9182 97.7191 57.1788Z" stroke="#1A1D63" stroke-width="2.78383" stroke-linecap="round" stroke-linejoin="round"/>
<path d="M10.6645 62.3273C7.90391 61.5252 5.4326 60.4004 3.26534 58.9319C2.97154 58.7301 2.72428 58.4696 2.53965 58.1676C2.35502 57.8656 2.23717 57.5287 2.19377 57.1788C1.25525 49.9165 1.26196 42.2375 2.21387 34.1419C2.25295 33.8063 2.3601 33.4819 2.52897 33.1878C2.69785 32.8937 2.92502 32.6359 3.19703 32.4297C5.28178 30.8614 7.64837 29.6934 10.173 28.9868C8.62553 33.3622 7.83325 37.9612 7.8289 42.5936C7.81148 50.4776 8.77322 56.9984 10.6645 62.3273Z" stroke="#1A1D63" stroke-width="2.78383" stroke-linecap="round" stroke-linejoin="round"/>
<path opacity="0.2" d="M90.8377 56.5177C89.9952 60.6467 88.7254 64.2147 87.0417 67.2769C85.642 68.4478 84.0283 69.3459 82.2867 69.9229C60.7762 77.0482 39.2658 77.0482 17.7553 69.9229C15.8994 69.3082 14.1913 68.3261 12.7364 67.0372C11.0969 63.9908 9.86063 60.4518 9.03955 56.3688C9.54637 58.741 10.6765 60.9412 12.3174 62.7501C13.9582 64.5591 16.0525 65.9137 18.3915 66.6789C39.4332 73.5655 60.4753 73.5655 81.5179 66.6789C83.836 65.9286 85.9149 64.5966 87.5493 62.8146C89.1838 61.0326 90.3172 58.8622 90.8377 56.5177Z" fill="#1A1D63"/>
<path d="M12.7366 67.0385C14.1915 68.3274 15.8996 69.3095 17.7554 69.9242C39.2668 77.0487 60.7773 77.0487 82.2869 69.9242C84.0284 69.3472 85.6422 68.4492 87.0419 67.2782" stroke="#1A1D63" stroke-width="2.41265" stroke-linecap="round" stroke-linejoin="round"/>
</svg>
