<svg width="152" height="168" viewBox="0 0 152 168" fill="none" xmlns="http://www.w3.org/2000/svg">
<path d="M116.825 153.095C114.718 161.232 110.343 160.1 104.943 158.7C102.03 157.945 97.6983 155.69 94.5068 153.071C91.7853 150.833 89.8951 148.328 90.4309 146.259C91.5949 141.765 103.76 141.029 109.158 142.428C113.961 143.672 117.955 144.707 117.294 150.65C117.196 151.475 117.039 152.292 116.825 153.095Z" fill="white"/>
<path d="M110.406 159.794C108.735 159.794 106.866 159.311 104.917 158.806C101.822 158.004 97.5125 155.68 94.4386 153.155C91.2991 150.574 89.8385 148.116 90.3266 146.231C91.038 143.478 95.5605 142.415 98.1922 142.026C101.944 141.471 106.362 141.588 109.186 142.321C113.956 143.557 118.076 144.624 117.405 150.662C117.305 151.493 117.147 152.315 116.932 153.124L116.827 153.097L116.932 153.124C115.954 156.901 114.435 158.952 112.149 159.582C111.58 159.731 110.994 159.802 110.406 159.794ZM103.103 141.899C101.47 141.896 99.8398 142.011 98.224 142.243C95.6464 142.627 91.2192 143.657 90.5384 146.288C90.0727 148.084 91.5076 150.464 94.5776 152.988C97.6297 155.495 101.904 157.801 104.972 158.595C107.603 159.277 110.088 159.92 112.091 159.369C114.293 158.763 115.764 156.762 116.72 153.07C116.932 152.271 117.088 151.459 117.187 150.639C117.837 144.79 113.996 143.795 109.132 142.535C107.509 142.113 105.354 141.897 103.103 141.897L103.103 141.899Z" fill="#371A45"/>
<g opacity="0.35">
<path opacity="0.35" d="M116.421 151.22C113.013 153.548 109.057 150.714 109.057 150.714C104.717 153.362 97.3224 153.409 91.9965 150.262C89.2745 148.024 89.8951 148.328 90.4309 146.259C91.5949 141.765 103.76 141.029 109.158 142.428C113.961 143.671 118.268 144.087 116.421 151.22Z" fill="#371A45"/>
</g>
<path d="M110.403 160.462C108.652 160.462 106.741 159.97 104.751 159.452C101.848 158.7 97.8311 156.612 94.7567 154.257C92.0172 152.158 88.9126 149.033 89.6815 146.064C90.4504 143.095 94.6817 141.87 98.0954 141.365C101.926 140.799 106.452 140.923 109.355 141.675C114.767 143.076 119.88 144.401 117.578 153.289C116.534 157.32 114.865 159.522 112.324 160.221C111.698 160.387 111.051 160.469 110.403 160.462ZM103.077 142.543C97.7113 142.543 91.8584 143.844 91.1848 146.454C90.7579 148.103 92.4041 150.498 95.7012 153.024C98.6263 155.265 102.42 157.244 105.14 157.949C107.792 158.636 110.082 159.229 111.914 158.725C113.14 158.388 114.905 157.417 116.073 152.901C117.989 145.518 114.398 144.587 108.965 143.179L109.16 142.427L108.965 143.179C107.33 142.755 105.243 142.543 103.077 142.543Z" fill="#371A45"/>
<path d="M125.338 150.772C122.45 149.968 119.518 151.441 118.79 154.06C118.062 156.679 119.813 159.454 122.701 160.256C124.803 160.841 131.179 159.909 134.498 159.358C134.684 159.328 134.858 159.244 134.998 159.118C135.139 158.993 135.24 158.829 135.291 158.647C135.341 158.466 135.338 158.273 135.283 158.093C135.228 157.913 135.122 157.752 134.979 157.629C132.42 155.444 127.44 151.354 125.338 150.772Z" fill="#D73C2C"/>
<path d="M123.643 151.616C123.189 151.477 122.712 151.431 122.24 151.48C121.767 151.528 121.31 151.671 120.893 151.899C120.477 152.128 120.111 152.437 119.816 152.809C119.521 153.181 119.304 153.608 119.177 154.065C119.05 154.523 119.015 155.001 119.076 155.472C119.136 155.943 119.291 156.397 119.529 156.807C119.768 157.217 120.086 157.576 120.466 157.861C120.845 158.146 121.277 158.353 121.738 158.468C123.64 158.997 130.945 157.337 130.945 157.337C130.945 157.337 125.544 152.145 123.643 151.616Z" fill="#E5A900"/>
<path d="M122.183 152.804C120.944 152.459 119.686 153.091 119.374 154.215C119.061 155.339 119.811 156.529 121.052 156.874C122.293 157.218 126.996 156.335 126.996 156.335C126.996 156.335 123.423 153.148 122.183 152.804Z" fill="#FFFF00"/>
<path d="M125.514 161.108C124.157 161.108 123.026 161.016 122.314 160.786C120.75 160.281 119.456 159.249 118.67 157.882C117.869 156.49 117.689 154.918 118.161 153.455C118.633 151.993 119.699 150.824 121.163 150.163C122.601 149.514 124.254 149.435 125.815 149.94C127.899 150.613 132.207 154.347 135.454 157.36C135.7 157.589 135.877 157.883 135.962 158.209C136.047 158.535 136.037 158.878 135.933 159.198C135.83 159.518 135.637 159.802 135.378 160.017C135.118 160.231 134.803 160.366 134.469 160.407C131.578 160.766 128.128 161.108 125.514 161.108ZM123.753 151.164C123.081 151.162 122.416 151.303 121.803 151.578C120.743 152.057 119.975 152.892 119.639 153.931C119.303 154.971 119.437 156.099 120.016 157.106C120.61 158.138 121.595 158.919 122.791 159.306C124.165 159.75 128.46 159.585 134.283 158.864C134.323 158.859 134.362 158.843 134.393 158.817C134.424 158.791 134.448 158.757 134.46 158.718C134.473 158.679 134.474 158.638 134.463 158.599C134.453 158.559 134.432 158.524 134.402 158.496C130.103 154.507 126.716 151.86 125.342 151.416C124.829 151.249 124.293 151.165 123.753 151.164Z" fill="#371A45"/>
<path d="M118.399 158.357L120.778 149.871C121.065 148.845 120.231 147.77 119.027 147.615L117.287 147.391L114.126 158.664L115.728 159.376C116.838 159.868 118.112 159.383 118.399 158.357Z" fill="#F92323"/>
<g opacity="0.7">
<path opacity="0.7" d="M119.031 147.614L117.291 147.391L116.824 149.054L118.406 149.258C119.61 149.413 120.444 150.489 120.158 151.514L118.069 158.961C118.224 158.788 118.338 158.582 118.402 158.359L120.779 149.871C121.068 148.845 120.232 147.77 119.031 147.614Z" fill="white"/>
</g>
<g opacity="0.35">
<path opacity="0.35" d="M120.778 149.871L118.398 158.354C118.11 159.381 116.838 159.865 115.729 159.371L114.126 158.66L115.708 153.023L117.201 153.687C118.31 154.18 119.582 153.696 119.87 152.671L120.823 149.273C120.848 149.474 120.833 149.677 120.778 149.871Z" fill="#371A45"/>
</g>
<path d="M116.842 160.472C116.473 160.471 116.108 160.393 115.771 160.242L113.199 159.098L116.722 146.535L119.513 146.894C119.877 146.938 120.227 147.059 120.54 147.25C120.853 147.441 121.121 147.697 121.326 148.001C121.499 148.254 121.615 148.542 121.666 148.844C121.717 149.146 121.701 149.456 121.619 149.752L119.055 158.891C118.972 159.187 118.825 159.461 118.625 159.694C118.424 159.927 118.175 160.113 117.895 160.239C117.566 160.394 117.206 160.473 116.842 160.472ZM115.059 158.225L116.403 158.823C116.533 158.883 116.674 158.915 116.818 158.917C116.961 158.919 117.103 158.89 117.235 158.833C117.312 158.801 117.381 158.752 117.438 158.691C117.495 158.629 117.537 158.555 117.563 158.476L120.122 149.333C120.142 149.252 120.144 149.167 120.128 149.085C120.112 149.003 120.079 148.926 120.029 148.858C119.947 148.741 119.84 148.642 119.717 148.57C119.593 148.497 119.456 148.451 119.314 148.435L117.855 148.246L115.059 158.225Z" fill="#371A45"/>
<path d="M104.675 159.404C104.47 159.403 104.272 159.321 104.127 159.176C103.981 159.03 103.899 158.833 103.899 158.627V156.957C103.907 152.229 105.112 147.58 107.402 143.444L108.211 141.983C108.313 141.808 108.48 141.679 108.676 141.625C108.872 141.571 109.081 141.596 109.259 141.694C109.437 141.793 109.569 141.957 109.627 142.152C109.685 142.346 109.664 142.556 109.569 142.736L108.76 144.197C106.599 148.103 105.462 152.492 105.456 156.956V158.626C105.456 158.728 105.436 158.829 105.397 158.924C105.358 159.019 105.3 159.105 105.228 159.177C105.155 159.249 105.069 159.307 104.974 159.346C104.879 159.384 104.778 159.404 104.675 159.404Z" fill="#371A45"/>
<path d="M116.287 114.907C121.685 116.305 126.06 117.439 123.953 125.575C121.846 133.711 117.47 132.58 112.072 131.18C106.675 129.78 96.3963 123.233 97.5597 118.739C98.7232 114.246 110.889 113.509 116.287 114.907Z" fill="white"/>
<path d="M117.531 132.274C115.86 132.274 113.992 131.79 112.044 131.285C109.219 130.554 105.298 128.513 102.288 126.207C100.176 124.589 96.7401 121.464 97.4531 118.709C98.6215 114.198 110.662 113.335 116.314 114.799C121.615 116.172 126.192 117.358 124.058 125.6C123.08 129.376 121.56 131.428 119.275 132.058C118.706 132.208 118.119 132.28 117.531 132.274ZM110.3 114.386C104.764 114.386 98.4584 115.699 97.6649 118.764C96.9836 121.395 100.352 124.446 102.421 126.031C105.411 128.321 109.299 130.347 112.099 131.072C114.729 131.753 117.213 132.396 119.217 131.845C121.419 131.239 122.89 129.238 123.846 125.545C125.925 117.514 121.66 116.409 116.259 115.011L116.286 114.904L116.259 115.011C114.684 114.606 112.556 114.387 110.3 114.387V114.386Z" fill="#371A45"/>
<g opacity="0.35">
<path opacity="0.35" d="M123.953 125.575C121.845 133.713 117.469 132.58 112.072 131.181C106.676 129.781 96.3948 123.234 97.5588 118.739C97.6023 118.57 97.6619 118.406 97.7367 118.249C100.703 121.803 106.865 125.301 110.641 126.279C116.037 127.677 120.414 128.81 122.521 120.675C122.799 119.604 122.964 118.654 123.028 117.81C124.463 119.289 124.984 121.595 123.953 125.575Z" fill="#371A45"/>
</g>
<path d="M117.53 132.943C115.779 132.943 113.868 132.45 111.878 131.932C108.977 131.18 104.958 129.092 101.884 126.738C99.1436 124.639 96.0396 121.514 96.8085 118.545C97.5773 115.576 101.808 114.351 105.222 113.845C109.053 113.279 113.579 113.404 116.482 114.156C121.894 115.557 127.006 116.882 124.704 125.77C123.66 129.801 121.991 132.003 119.451 132.702C118.824 132.868 118.178 132.949 117.53 132.943ZM110.204 115.024C104.838 115.024 98.9854 116.325 98.3118 118.934C97.8844 120.583 99.5305 122.978 102.828 125.504C105.753 127.745 109.546 129.724 112.267 130.429C114.919 131.116 117.209 131.71 119.04 131.205C120.267 130.868 122.032 129.898 123.2 125.382C125.112 117.997 121.523 117.067 116.091 115.66L116.286 114.908L116.091 115.66C114.457 115.236 112.369 115.024 110.204 115.024Z" fill="#371A45"/>
<path d="M132.465 123.251C129.577 122.448 126.645 123.92 125.917 126.539C125.189 129.159 126.94 131.933 129.828 132.736C131.929 133.32 138.306 132.389 141.625 131.838C141.811 131.807 141.984 131.724 142.125 131.598C142.265 131.472 142.366 131.309 142.417 131.127C142.467 130.945 142.465 130.753 142.409 130.573C142.354 130.392 142.249 130.232 142.106 130.109C139.549 127.924 134.569 123.835 132.465 123.251Z" fill="#D73C2C"/>
<path d="M130.617 124.054C128.799 123.549 126.9 124.673 126.373 126.565C125.847 128.457 126.894 130.401 128.712 130.906C130.529 131.411 137.552 129.673 137.552 129.673C137.552 129.673 132.435 124.557 130.617 124.054Z" fill="#E5A900"/>
<path d="M129.31 125.285C128.07 124.94 126.812 125.572 126.5 126.695C126.187 127.819 126.937 129.01 128.178 129.355C129.419 129.699 134.123 128.815 134.123 128.815C134.123 128.815 130.549 125.629 129.31 125.285Z" fill="#FFFF00"/>
<path d="M132.641 133.587C131.284 133.587 130.153 133.495 129.44 133.265C127.877 132.76 126.583 131.729 125.797 130.361C124.996 128.969 124.816 127.396 125.288 125.934C125.761 124.472 126.827 123.303 128.291 122.642C129.728 121.993 131.381 121.913 132.942 122.418C135.027 123.092 139.334 126.826 142.581 129.839C142.828 130.068 143.004 130.362 143.089 130.688C143.174 131.014 143.164 131.357 143.061 131.677C142.957 131.997 142.764 132.281 142.505 132.496C142.245 132.71 141.93 132.846 141.596 132.887C138.705 133.246 135.256 133.587 132.641 133.587ZM130.881 123.643C130.208 123.641 129.543 123.782 128.929 124.058C127.87 124.536 127.102 125.371 126.766 126.411C126.43 127.451 126.564 128.578 127.143 129.585C127.737 130.618 128.722 131.399 129.918 131.785C131.292 132.229 135.588 132.064 141.408 131.343C141.448 131.339 141.486 131.323 141.518 131.297C141.549 131.271 141.573 131.236 141.585 131.198C141.598 131.159 141.599 131.117 141.589 131.078C141.578 131.039 141.557 131.003 141.526 130.976C137.228 126.986 133.841 124.339 132.467 123.895C131.954 123.729 131.419 123.645 130.881 123.645V123.643Z" fill="#371A45"/>
<path d="M125.528 130.838L127.908 122.352C128.196 121.326 127.36 120.25 126.156 120.095L124.417 119.871L121.256 131.145L122.859 131.856C123.969 132.349 125.24 131.864 125.528 130.838Z" fill="#F92323"/>
<g opacity="0.7">
<path opacity="0.7" d="M126.158 120.095L124.418 119.871L123.992 121.39L125.724 121.613C126.928 121.769 127.762 122.844 127.475 123.87L125.489 130.952C125.503 130.914 125.518 130.877 125.529 130.838L127.909 122.352C128.196 121.328 127.362 120.25 126.158 120.095Z" fill="white"/>
</g>
<g opacity="0.35">
<path opacity="0.35" d="M127.908 122.352L125.528 130.838C125.239 131.864 123.967 132.349 122.859 131.855L121.256 131.143L122.838 125.506L124.331 126.171C125.44 126.664 126.712 126.179 127 125.154L127.953 121.756C127.977 121.956 127.962 122.158 127.908 122.352Z" fill="#371A45"/>
</g>
<path d="M123.969 132.952C123.599 132.952 123.234 132.873 122.897 132.723L120.325 131.579L123.848 119.015L126.639 119.375C127.003 119.418 127.354 119.539 127.666 119.73C127.979 119.921 128.247 120.177 128.452 120.481C128.626 120.734 128.742 121.022 128.792 121.324C128.843 121.627 128.827 121.937 128.745 122.232L126.182 131.372C126.098 131.667 125.95 131.94 125.75 132.173C125.549 132.405 125.3 132.59 125.02 132.716C124.691 132.871 124.332 132.952 123.969 132.952ZM122.185 130.705L123.529 131.303C123.659 131.364 123.8 131.396 123.944 131.398C124.087 131.4 124.229 131.371 124.361 131.314C124.438 131.282 124.508 131.233 124.564 131.171C124.621 131.109 124.664 131.036 124.689 130.956L127.253 121.816C127.273 121.735 127.275 121.651 127.259 121.568C127.243 121.486 127.209 121.409 127.16 121.341C127.077 121.224 126.971 121.125 126.847 121.052C126.724 120.979 126.586 120.933 126.443 120.917L124.985 120.729L122.185 130.705Z" fill="#371A45"/>
<path d="M111.803 131.884C111.701 131.884 111.6 131.864 111.506 131.825C111.412 131.786 111.326 131.729 111.254 131.656C111.182 131.584 111.125 131.499 111.086 131.404C111.047 131.31 111.027 131.209 111.027 131.107V129.437C111.035 124.71 112.24 120.061 114.53 115.925L115.339 114.464C115.439 114.284 115.606 114.151 115.804 114.094C116.002 114.037 116.215 114.061 116.395 114.161C116.575 114.261 116.708 114.428 116.765 114.626C116.822 114.824 116.798 115.037 116.698 115.217L115.885 116.677C113.724 120.583 112.587 124.973 112.58 129.438V131.108C112.58 131.314 112.498 131.511 112.352 131.657C112.207 131.802 112.009 131.884 111.803 131.884Z" fill="#371A45"/>
<path d="M117.875 138.67C116.985 142.144 114.037 144.886 109.548 146.836C109.08 147.04 108.595 147.235 108.093 147.42C107.201 147.752 106.259 148.056 105.268 148.331C102.885 148.997 100.224 149.501 97.3326 149.841C95.2481 150.083 93.0416 150.239 90.7333 150.309C88.6538 150.37 86.4905 150.364 84.2577 150.278C82.1891 150.206 80.0638 150.067 77.8817 149.863C70.9284 149.221 63.4486 147.933 55.7652 145.961C43.2146 142.74 32.326 137 23.8731 130.982C11.3006 122.04 4.11253 112.478 4.83599 109.66C5.58299 106.753 16.2336 101.939 31.2621 100.144C31.4405 100.12 31.6184 100.1 31.8001 100.079C37.3977 99.4409 43.0391 99.2745 48.6646 99.5813C54.553 99.9053 60.72 100.773 66.9482 102.37C74.6321 104.34 81.8082 106.816 88.2127 109.6C88.4436 109.7 88.6724 109.8 88.8989 109.9C90.6607 110.679 92.3603 111.482 93.9977 112.308C95.9962 113.311 97.8933 114.342 99.689 115.401C100.2 115.701 100.701 116.003 101.191 116.308C102.621 117.189 103.973 118.083 105.247 118.989C106.836 120.12 108.291 121.264 109.615 122.421C110.247 122.968 110.847 123.52 111.414 124.078C112.525 125.146 113.559 126.292 114.507 127.506C117.506 131.377 118.768 135.197 117.875 138.67Z" fill="white"/>
<path d="M87.9987 150.458C86.7653 150.458 85.512 150.435 84.2517 150.388C82.1684 150.313 80.0209 150.173 77.8692 149.971C70.7002 149.31 63.251 147.996 55.7357 146.067C41.6944 142.464 30.623 135.924 23.8075 131.072C10.9297 121.91 4.0168 112.41 4.72987 109.634C5.53542 106.497 16.6249 101.782 31.249 100.036C31.4132 100.014 31.5774 99.9945 31.7415 99.9754L31.7859 99.9699C37.3897 99.3307 43.0373 99.1643 48.669 99.4724C54.9361 99.8167 61.0949 100.756 66.974 102.264C74.4822 104.191 81.6403 106.625 88.2549 109.5C88.4858 109.6 88.7149 109.7 88.9422 109.8C90.6803 110.569 92.3975 111.379 94.0453 112.208C96.0231 113.201 97.9406 114.243 99.7443 115.304C100.258 115.607 100.764 115.913 101.248 116.212C102.652 117.078 104.019 117.981 105.31 118.897C106.894 120.025 108.366 121.182 109.688 122.336C110.327 122.89 110.934 123.45 111.494 123.997C112.609 125.069 113.645 126.218 114.597 127.436C117.726 131.48 118.866 135.268 117.984 138.698C117.105 142.129 114.282 144.9 109.593 146.937C109.123 147.142 108.632 147.339 108.133 147.523C107.239 147.856 106.286 148.163 105.299 148.437C102.929 149.1 100.252 149.609 97.3452 149.95C95.2657 150.191 93.0449 150.349 90.7366 150.419C89.837 150.445 88.9243 150.458 87.9987 150.458ZM43.1845 99.5414C39.3845 99.5407 35.5876 99.7565 31.8121 100.188L31.7673 100.193C31.6031 100.212 31.4389 100.23 31.2747 100.252C15.9923 102.078 5.63775 106.978 4.94165 109.688C4.24555 112.397 11.1316 121.783 23.9312 130.893C30.7313 135.735 41.7781 142.26 55.7871 145.855C63.291 147.781 70.727 149.093 77.8861 149.754C80.0341 149.955 82.1771 150.095 84.2561 150.169C86.4572 150.251 88.6341 150.262 90.7246 150.2C93.0263 150.13 95.2438 149.973 97.3146 149.732C100.21 149.392 102.875 148.885 105.235 148.225C106.216 147.951 107.164 147.648 108.051 147.317C108.546 147.134 109.036 146.938 109.501 146.735C114.124 144.728 116.905 142.005 117.764 138.643C118.629 135.283 117.503 131.557 114.417 127.571C113.471 126.36 112.441 125.219 111.334 124.154C110.779 123.607 110.175 123.053 109.54 122.501C108.226 121.351 106.758 120.199 105.18 119.076C103.893 118.162 102.53 117.262 101.131 116.398C100.647 116.1 100.143 115.796 99.6305 115.493C97.8312 114.434 95.918 113.394 93.9441 112.404C92.2996 111.576 90.5856 110.768 88.8503 110C88.6243 109.9 88.3955 109.801 88.1651 109.7C81.5631 106.831 74.4138 104.4 66.9165 102.476C61.0517 100.973 54.9071 100.035 48.6543 99.6913C46.8367 99.5914 45.0134 99.5414 43.1845 99.5414Z" fill="#371A45"/>
<g opacity="0.35">
<path opacity="0.35" d="M101.133 116.542C96.4574 116.894 85.6454 114.886 73.3947 111.199C58.9971 106.867 47.5372 101.698 45.9775 98.9826C52.1615 99.3225 58.636 100.233 65.1756 101.911C73.2431 103.981 80.7788 106.579 87.5033 109.502C87.7458 109.607 87.986 109.711 88.2241 109.818C90.0738 110.636 91.8582 111.477 93.5773 112.343C95.6762 113.396 97.6687 114.479 99.5549 115.591C100.089 115.906 100.615 116.224 101.133 116.542Z" fill="#371A45"/>
</g>
<g opacity="0.35">
<path opacity="0.35" d="M105.198 148.02C105.22 148.124 105.242 148.227 105.266 148.33C106.258 148.055 107.2 147.752 108.091 147.42C108.563 147.244 109.021 147.062 109.462 146.873L109.011 146.672V146.662C107.77 147.193 106.496 147.647 105.198 148.02Z" fill="black"/>
<path opacity="0.35" d="M105.187 148.466L105.161 148.356C105.136 148.252 105.115 148.149 105.092 148.043L105.071 147.944L105.169 147.916C106.463 147.544 107.733 147.092 108.972 146.561L109.169 146.476L109.139 146.609L109.737 146.875L109.507 146.974C109.076 147.159 108.613 147.344 108.13 147.524C107.235 147.857 106.281 148.164 105.297 148.437L105.187 148.466ZM105.327 148.097L105.349 148.194C106.288 147.931 107.198 147.636 108.054 147.318C108.447 147.172 108.828 147.021 109.189 146.87L109.001 146.787C107.803 147.296 106.577 147.734 105.327 148.097Z" fill="#371A45"/>
</g>
<g opacity="0.35">
<path opacity="0.35" d="M23.3585 130.713C31.8036 136.739 42.6868 142.491 55.2346 145.726C62.9164 147.707 70.3934 149.004 77.3468 149.652C79.5241 149.858 81.6482 150 83.7189 150.077C85.9532 150.161 88.1124 150.173 90.1967 150.113C92.5061 150.047 94.7104 149.894 96.7971 149.651C99.8809 149.293 102.699 148.747 105.2 148.02C106.498 147.647 107.773 147.193 109.015 146.661V146.671L109.466 146.872C112.682 145.487 115.115 143.701 116.576 141.531C117.172 140.66 117.612 139.692 117.877 138.671C118.77 135.197 117.507 131.377 114.509 127.503C113.56 126.289 112.526 125.143 111.416 124.074C109.138 126.683 107.093 130.706 105.871 135.439C105.69 136.137 105.533 136.831 105.398 137.519C105.007 139.502 103.405 141.026 101.397 141.253C83.4798 143.278 67.7809 141.437 54.5248 137.806C53.6536 137.566 53.6252 136.344 54.4822 136.058C56.6444 135.34 58.592 134.091 60.1465 132.426C61.701 130.76 62.8128 128.731 63.3799 126.525C65.2613 119.235 60.874 111.8 53.5841 109.921C46.2942 108.043 38.8631 112.427 36.9811 119.718C36.5145 121.521 36.4232 123.4 36.7131 125.24C37.0029 127.08 37.6677 128.841 38.6661 130.413C39.1439 131.169 38.3334 132.088 37.5169 131.724C33.1501 129.781 28.9034 127.579 24.7994 125.129C11.4372 117.154 4.35031 109.368 4.35031 109.368C3.62247 112.185 10.7996 121.752 23.3585 130.713Z" fill="#371A45"/>
</g>
<path d="M4.25853 110.076C4.27057 110.138 4.28644 110.201 4.30286 110.267C4.33296 110.389 4.36963 110.516 4.41231 110.65C4.43475 110.72 4.45992 110.788 4.48455 110.861C4.70029 111.434 4.9618 111.989 5.26657 112.52C5.31527 112.608 5.36343 112.696 5.41651 112.784C5.7766 113.408 6.2144 114.08 6.72991 114.795C6.80215 114.897 6.87876 115.001 6.95483 115.105C7.12886 115.343 7.31164 115.585 7.50208 115.832C7.58472 115.941 7.67228 116.051 7.75929 116.16C8.29049 116.833 8.87823 117.534 9.52252 118.264C9.61665 118.37 9.71242 118.476 9.81038 118.585C10.4091 119.254 11.0541 119.939 11.7454 120.639C11.8675 120.764 11.9912 120.89 12.117 121.014C12.8069 121.707 13.5395 122.411 14.3148 123.126C14.456 123.257 14.5994 123.388 14.7449 123.52C16.4781 125.1 18.4066 126.72 20.5157 128.336C20.6919 128.472 20.8697 128.606 21.0481 128.741C21.4044 129.011 21.765 129.279 22.1322 129.55C22.3145 129.684 22.4994 129.818 22.6839 129.952C22.7386 129.993 22.7933 130.03 22.848 130.071C22.888 128.24 23.1156 126.178 23.4133 124.185C23.687 122.365 24.0186 120.603 24.3234 119.133C24.5136 113.725 26.027 108.447 28.731 103.761L29.5081 102.415L31.2095 99.462C16.8009 101.089 6.30087 105.504 4.47689 108.471C4.41387 108.573 4.35897 108.68 4.31271 108.79C4.282 108.863 4.25658 108.937 4.23664 109.014C4.16276 109.299 4.17097 109.657 4.25853 110.076Z" fill="#F92323"/>
<g opacity="0.7">
<path opacity="0.7" d="M4.47754 108.471C6.75738 107.686 13.1706 105.554 19.3764 104.224C23.3872 103.364 26.9892 102.778 29.5093 102.415L31.2107 99.4626C16.8016 101.089 6.30152 105.504 4.47754 108.471Z" fill="white"/>
</g>
<g opacity="0.35">
<path opacity="0.35" d="M4.25871 110.076C4.27075 110.138 4.28662 110.201 4.30304 110.267C4.33314 110.389 4.3698 110.516 4.41249 110.65C4.43493 110.72 4.4601 110.788 4.48473 110.861C4.70047 111.434 4.96198 111.989 5.26674 112.52C5.31545 112.608 5.36361 112.696 5.41669 112.784C5.77678 113.408 6.21458 114.08 6.73009 114.795C6.80233 114.897 6.87894 115.001 6.95501 115.105C7.12904 115.343 7.31182 115.585 7.50226 115.832C7.58489 115.941 7.67245 116.051 7.75947 116.16C8.29066 116.833 8.87841 117.534 9.5227 118.264C9.61683 118.37 9.7126 118.476 9.81056 118.585C10.4092 119.254 11.0543 119.939 11.7456 120.639C11.8677 120.763 11.9913 120.89 12.1172 121.014C12.8071 121.707 13.5397 122.411 14.315 123.125C14.4562 123.257 14.5995 123.388 14.7451 123.52C16.4782 125.1 18.4067 126.72 20.5158 128.336C20.6921 128.472 20.8699 128.606 21.0483 128.741C21.4046 129.011 21.7652 129.279 22.1324 129.55C22.3147 129.684 22.4996 129.818 22.684 129.952C22.7388 129.993 22.7935 130.03 22.8482 130.069C22.8882 128.238 23.1158 126.176 23.4135 124.182C18.1145 120.75 6.82422 113.112 4.3118 108.79C4.28109 108.863 4.25566 108.937 4.23573 109.014C4.16295 109.299 4.17115 109.657 4.25871 110.076Z" fill="black"/>
<path opacity="0.35" d="M22.9538 130.273L22.7897 130.16C22.7322 130.121 22.6775 130.082 22.6222 130.04L22.5921 130.018C22.4174 129.892 22.2437 129.765 22.0711 129.639C21.7034 129.365 21.3427 129.099 20.9859 128.828C20.8075 128.694 20.6291 128.559 20.4529 128.423C18.4221 126.866 16.4782 125.242 14.6751 123.599C14.5295 123.468 14.3861 123.336 14.2444 123.205C13.4733 122.493 12.7329 121.782 12.0439 121.09C11.918 120.966 11.7938 120.839 11.6712 120.714C10.9757 120.009 10.3233 119.317 9.73285 118.657C9.63489 118.547 9.53858 118.441 9.44445 118.335C8.78775 117.595 8.19563 116.886 7.67847 116.227L7.59912 116.127C7.53838 116.05 7.47818 115.974 7.42017 115.899C7.22864 115.651 7.04531 115.409 6.87293 115.169C6.79631 115.065 6.71915 114.961 6.64691 114.859C6.13961 114.154 5.69579 113.474 5.32804 112.839C5.27714 112.754 5.22953 112.667 5.18192 112.581C4.8727 112.042 4.60734 111.479 4.38841 110.898L4.36215 110.822C4.34573 110.776 4.32986 110.73 4.31508 110.684C4.26911 110.549 4.23135 110.418 4.20071 110.293C4.17991 110.209 4.16623 110.153 4.15528 110.098C4.06444 109.66 4.05678 109.287 4.1334 108.986C4.15458 108.905 4.18184 108.825 4.21494 108.748L4.30031 108.546L4.40976 108.736C6.94188 113.091 18.5873 120.925 23.4765 124.091L23.5356 124.129L23.5252 124.199C23.187 126.467 22.9971 128.443 22.9615 130.072L22.9538 130.273ZM4.34025 109.048C4.27349 109.315 4.28225 109.653 4.36598 110.054C4.37637 110.105 4.38951 110.158 4.40319 110.213C4.43876 110.359 4.47488 110.482 4.51921 110.613C4.53398 110.66 4.54931 110.704 4.56463 110.748L4.5909 110.823C4.80452 111.391 5.06348 111.94 5.36525 112.465C5.41615 112.558 5.46266 112.643 5.51301 112.727C5.87748 113.357 6.31747 114.031 6.82148 114.73C6.89372 114.833 6.96924 114.936 7.04531 115.039C7.21933 115.277 7.40102 115.517 7.59256 115.764C7.65056 115.839 7.70967 115.914 7.76986 115.99L7.84922 116.09C8.36363 116.747 8.95521 117.453 9.60753 118.189C9.70111 118.295 9.79688 118.401 9.89483 118.509C10.4826 119.166 11.1327 119.857 11.8266 120.56C11.9481 120.684 12.0712 120.81 12.1971 120.934C12.8845 121.624 13.62 122.334 14.3921 123.043C14.5333 123.174 14.6763 123.305 14.8212 123.436C16.62 125.078 18.5594 126.694 20.5853 128.249C20.7616 128.385 20.9389 128.518 21.1167 128.652C21.473 128.923 21.8331 129.191 22.1997 129.461L22.7196 129.841L22.7459 129.86C22.7919 128.279 22.9768 126.388 23.2964 124.235C18.4336 121.086 7.11481 113.462 4.34025 109.048Z" fill="#371A45"/>
</g>
<path d="M87.4398 150.57C86.174 150.57 84.8836 150.546 83.579 150.496C81.4726 150.416 79.3137 150.272 77.1619 150.071C69.9574 149.396 62.477 148.068 54.9288 146.121C40.7917 142.477 29.6514 135.88 22.7949 130.988C17.0488 126.888 11.8538 122.231 8.16694 117.882C6.15689 115.51 2.87614 111.177 3.48413 108.819C4.38271 105.333 15.7037 100.431 31.1235 98.6904C39.463 97.7452 52.3786 97.3862 66.5513 101.04C74.0995 102.986 81.2898 105.44 87.9225 108.334C89.903 109.197 91.8627 110.115 93.7447 111.063C95.7432 112.071 97.6712 113.122 99.4765 114.188C101.471 115.366 103.362 116.588 105.088 117.82C109.099 120.686 112.266 123.607 114.501 126.503C117.757 130.717 118.933 134.703 117.995 138.343C117.056 141.983 114.101 144.902 109.212 147.018C105.855 148.471 101.671 149.497 96.7742 150.067C94.6646 150.309 92.4209 150.466 90.1055 150.532C89.2335 150.558 88.345 150.57 87.4398 150.57ZM42.4751 99.6082C38.7406 99.6068 35.0091 99.8157 31.2981 100.234C15.0705 102.064 5.54452 107.048 4.98797 109.206C4.45823 111.262 10.5814 120.366 23.6973 129.723C30.4465 134.539 41.4107 141.032 55.3168 144.618C62.7851 146.543 70.1839 147.857 77.3075 148.524C79.4308 148.724 81.5607 148.865 83.6381 148.944C85.8391 149.027 88.0002 149.039 90.0617 148.98C92.3333 148.915 94.5322 148.761 96.5969 148.523C101.342 147.972 105.379 146.986 108.596 145.592C113.023 143.677 115.679 141.105 116.492 137.955C117.305 134.805 116.219 131.27 113.273 127.452C111.13 124.677 108.074 121.861 104.188 119.084C102.496 117.88 100.645 116.681 98.6891 115.527C96.9132 114.478 95.0154 113.443 93.048 112.452C91.1912 111.516 89.2589 110.611 87.3019 109.758C80.7448 106.898 73.6327 104.471 66.1639 102.545C57.5392 100.321 49.3836 99.6082 42.4751 99.6082Z" fill="#371A45"/>
<path d="M47.3885 133.239C48.9612 133.646 50.5987 133.739 52.2074 133.513C53.8161 133.286 55.3643 132.744 56.7634 131.919C58.1625 131.093 59.3851 130 60.3611 128.701C61.3371 127.402 62.0475 125.924 62.4515 124.35C62.6074 123.75 62.7172 123.138 62.7799 122.521C63.4015 116.533 59.5686 110.832 53.562 109.284C53.1704 109.182 52.7736 109.1 52.3734 109.039C47.2839 108.241 42.304 110.704 39.7866 115.03C39.2134 116.013 38.7787 117.071 38.4951 118.173C36.7926 124.789 40.7711 131.534 47.3885 133.239Z" fill="#EE346A"/>
<g opacity="0.7">
<path opacity="0.7" d="M38.4976 119.917C38.7813 118.815 39.2159 117.757 39.7892 116.774C42.3065 112.448 47.2865 109.988 52.3759 110.783C52.7762 110.844 53.1729 110.926 53.5645 111.029C58.8455 112.389 62.4447 116.961 62.813 122.115C63.2246 116.278 59.4327 110.797 53.5645 109.284C53.1729 109.182 52.7761 109.1 52.3759 109.039C47.2865 108.241 42.3065 110.704 39.7892 115.03C38.5355 117.181 37.9601 119.661 38.1381 122.144C38.1901 121.393 38.3104 120.647 38.4976 119.917Z" fill="white"/>
</g>
<g opacity="0.35">
<path opacity="0.35" d="M47.3878 133.239C48.8219 133.768 50.3521 133.986 51.8769 133.879C53.4017 133.772 54.8864 133.343 56.2327 132.619C57.579 131.895 58.7562 130.893 59.6863 129.68C60.6164 128.467 61.2781 127.07 61.6278 125.582C61.6491 125.502 61.6683 125.422 61.6869 125.341C58.758 129.155 53.7342 131.063 48.7855 129.786C42.2524 128.102 38.2887 121.501 39.8358 114.966C39.8199 114.987 39.8018 115.008 39.7887 115.03C39.2154 116.013 38.7808 117.071 38.4972 118.173C36.792 124.789 40.7705 131.534 47.3878 133.239Z" fill="#293856"/>
<path opacity="0.35" d="M50.4895 133.743C49.434 133.743 48.3828 133.609 47.3608 133.345C40.6981 131.628 36.6742 124.808 38.3914 118.146C38.6781 117.034 39.1166 115.967 39.6944 114.974C39.7076 114.954 39.7207 114.936 39.7338 114.92L40.0458 114.513L39.9423 114.992C38.4177 121.438 42.3962 128.027 48.8154 129.681C51.144 130.283 53.5985 130.187 55.8726 129.403C58.1467 128.62 60.1397 127.184 61.603 125.275L61.9133 124.871L61.7962 125.367C61.777 125.448 61.7579 125.531 61.7365 125.61C61.4495 126.727 61.0096 127.798 60.4291 128.794C59.2677 130.331 57.7656 131.578 56.041 132.437C54.3163 133.295 52.4161 133.743 50.4895 133.743ZM47.4156 133.134C48.8149 133.654 50.3078 133.875 51.7978 133.782C53.2878 133.688 54.7417 133.283 56.0653 132.593C57.3889 131.902 58.5527 130.941 59.4815 129.772C60.4103 128.604 61.0832 127.253 61.4569 125.807C59.945 127.621 57.949 128.968 55.7012 129.691C53.4535 130.414 51.0466 130.484 48.7607 129.893C42.4547 128.267 38.4615 121.957 39.5904 115.621C39.1664 116.441 38.836 117.306 38.6054 118.201C36.9182 124.747 40.871 131.445 47.4161 133.134H47.4156Z" fill="#371A45"/>
</g>
<path d="M50.4982 134.414C49.3834 134.413 48.2731 134.271 47.1939 133.992C43.9798 133.154 41.2051 131.125 39.4337 128.315C37.6623 125.505 37.0272 122.127 37.6574 118.866C38.2876 115.604 40.1359 112.706 42.8265 110.758C45.5172 108.811 48.8483 107.961 52.1429 108.382C55.4375 108.803 58.4483 110.462 60.5633 113.023C62.6783 115.584 63.7389 118.855 63.5295 122.169C63.32 125.484 61.8563 128.595 59.4357 130.869C57.0152 133.144 53.8195 134.411 50.4982 134.414ZM50.456 109.665C47.6365 109.671 44.916 110.705 42.8036 112.573C40.6912 114.44 39.3316 117.013 38.9793 119.811C38.627 122.608 39.3061 125.439 40.8895 127.772C42.4728 130.105 44.8521 131.781 47.5819 132.486C49.0592 132.876 50.599 132.97 52.1127 132.762C53.6264 132.555 55.0842 132.05 56.4022 131.278C57.7203 130.505 58.8726 129.479 59.7929 128.26C60.7132 127.04 61.3833 125.65 61.7647 124.171C62.1461 122.691 62.2313 121.151 62.0153 119.638C61.7994 118.126 61.2866 116.671 60.5064 115.357C59.7262 114.043 58.6941 112.897 57.4693 111.983C56.2445 111.07 54.8512 110.408 53.3696 110.035C52.4184 109.789 51.44 109.665 50.4577 109.665H50.456Z" fill="#371A45"/>
<path d="M50.4982 134.414C49.3834 134.413 48.2731 134.271 47.1939 133.992C43.9798 133.154 41.2051 131.125 39.4337 128.315C37.6623 125.505 37.0272 122.127 37.6574 118.866C38.2876 115.604 40.1359 112.706 42.8265 110.758C45.5172 108.811 48.8483 107.961 52.1429 108.382C55.4375 108.803 58.4483 110.462 60.5633 113.023C62.6783 115.584 63.7389 118.855 63.5295 122.169C63.32 125.484 61.8563 128.595 59.4357 130.869C57.0152 133.144 53.8195 134.411 50.4982 134.414ZM50.456 109.665C47.6365 109.671 44.916 110.705 42.8036 112.573C40.6912 114.44 39.3316 117.013 38.9793 119.811C38.627 122.608 39.3061 125.439 40.8895 127.772C42.4728 130.105 44.8521 131.781 47.5819 132.486C49.0592 132.876 50.599 132.97 52.1127 132.762C53.6264 132.555 55.0842 132.05 56.4022 131.278C57.7203 130.505 58.8726 129.479 59.7929 128.26C60.7132 127.04 61.3833 125.65 61.7647 124.171C62.1461 122.691 62.2313 121.151 62.0153 119.638C61.7994 118.126 61.2866 116.671 60.5064 115.357C59.7262 114.043 58.6941 112.897 57.4693 111.983C56.2445 111.07 54.8512 110.408 53.3696 110.035C52.4184 109.789 51.44 109.665 50.4577 109.665H50.456Z" fill="#371A45"/>
<path d="M43.8485 126.162C45.0502 127.785 46.8065 128.911 48.7837 129.324C50.7608 129.737 52.8208 129.409 54.5719 128.402C56.3231 127.396 57.6433 125.781 58.2816 123.864C58.9198 121.948 58.8316 119.864 58.0336 118.008C57.2357 116.153 55.7837 114.655 53.9537 113.8C52.1237 112.945 50.0434 112.793 48.1083 113.371C46.1732 113.95 44.5182 115.22 43.458 116.939C42.3979 118.658 42.0065 120.707 42.3583 122.696C42.5805 123.951 43.0906 125.137 43.8485 126.162Z" fill="#22A7F0"/>
<path d="M50.4939 130.283C50.0399 130.283 49.5867 130.248 49.1378 130.181C46.8427 129.832 44.772 128.608 43.3605 126.765C41.949 124.922 41.3065 122.604 41.5678 120.297C41.8292 117.99 42.9742 115.874 44.7623 114.394C46.5504 112.914 48.8426 112.184 51.1574 112.357C53.4723 112.531 55.6298 113.595 57.1769 115.326C58.724 117.057 59.5403 119.32 59.4544 121.64C59.3685 123.959 58.3871 126.156 56.7163 127.767C55.0455 129.379 52.8152 130.281 50.4939 130.283ZM50.4654 113.799C49.0839 113.8 47.7297 114.184 46.5536 114.909C45.3776 115.633 44.4258 116.671 43.8044 117.904C43.183 119.138 42.9164 120.52 43.0342 121.897C43.1521 123.273 43.6498 124.59 44.4719 125.7C45.2296 126.726 46.2375 127.541 47.3994 128.067C48.5614 128.593 49.8387 128.812 51.1095 128.704C52.3804 128.596 53.6023 128.165 54.6589 127.45C55.7155 126.736 56.5715 125.763 57.1451 124.624C57.7188 123.484 57.9911 122.217 57.9361 120.943C57.881 119.669 57.5004 118.43 56.8306 117.344C56.1608 116.259 55.224 115.363 54.1098 114.743C52.9955 114.122 51.7408 113.797 50.4654 113.799Z" fill="#371A45"/>
<g opacity="0.42">
<path opacity="0.42" d="M44.126 123.469C45.0596 124.117 45.9401 124.648 46.8584 125.044C48.6539 125.836 50.6291 126.132 52.5777 125.9C53.5715 125.79 54.5686 125.541 55.6527 125.196C54.9993 126.132 54.0109 126.824 52.9093 127.233C51.7878 127.641 50.5822 127.761 49.4023 127.584C48.2223 127.406 47.1054 126.937 46.153 126.218C45.221 125.504 44.4784 124.553 44.126 123.469Z" fill="#371A45"/>
</g>
<path d="M22.2744 130.358V129.913C22.267 118.962 25.0533 108.19 30.3699 98.6165L32.0664 99.56C26.9108 108.844 24.2088 119.29 24.2161 129.91V130.356L22.2744 130.358Z" fill="#371A45"/>
<path d="M78.9304 149.458L76.998 149.268L77.8977 140.112C78.7127 131.804 80.8239 123.675 84.1544 116.02L87.3514 108.666L89.1322 109.44L85.9346 116.794C82.6848 124.264 80.625 132.197 79.8301 140.305L78.9304 149.458Z" fill="#371A45"/>
<path d="M102.04 87.1123C102.04 87.1123 105.765 86.1715 106.551 85.0501C107.337 83.9288 110.546 82.3067 109.889 75.0416C109.232 67.7766 109.072 59.3349 109.072 59.3349L98.5822 57.8025L98.5078 83.7219L102.04 87.1123Z" fill="white"/>
<path d="M102.009 87.2332L98.4014 83.7728L98.4763 57.681L109.183 59.2424V59.3349C109.183 59.4197 109.352 67.8538 109.999 75.0318C110.546 81.118 108.373 83.3115 107.205 84.4903C106.97 84.7267 106.767 84.9281 106.64 85.1131C105.84 86.2542 102.22 87.1801 102.066 87.2185L102.009 87.2332ZM98.6203 83.6803L102.073 86.9913C102.548 86.866 105.762 85.9876 106.462 84.9872C106.601 84.7897 106.809 84.5795 107.051 84.336C108.194 83.1829 110.323 81.0365 109.783 75.0515C109.172 68.2724 108.988 60.3753 108.968 59.4323L98.6941 57.9344L98.6203 83.6803Z" fill="#371A45"/>
<path d="M109.21 63.7552C109.071 62.1813 108.955 60.667 108.859 59.3048L109.076 59.336C109.076 59.336 109.109 61.1239 109.21 63.7552Z" fill="white"/>
<path d="M109.101 63.7667C108.974 62.3351 108.856 60.8372 108.75 59.3147L108.74 59.1795L109.182 59.243V59.336C109.182 59.3541 109.217 61.1508 109.317 63.753L109.101 63.7667Z" fill="#371A45"/>
<g opacity="0.35">
<path opacity="0.35" d="M106.55 85.0502C105.765 86.171 102.04 87.1123 102.04 87.1123L98.5088 83.7274L98.5214 79.2589L100.344 80.881C100.344 80.881 102.821 81.0485 105.884 79.3826C106.892 78.8353 109.104 77.6779 109.793 73.8962C109.823 74.2793 109.857 74.6624 109.891 75.0455C110.545 82.3078 107.338 83.9293 106.55 85.0502Z" fill="#371A45"/>
</g>
<path d="M109.793 73.8961C109.497 70.3039 109.315 66.5512 109.209 63.7574C109.379 65.6668 109.583 67.6665 109.826 69.5908C110.045 71.3409 110.002 72.7502 109.793 73.8961Z" fill="white"/>
<path d="M109.753 74.7308L109.685 73.9049C109.38 70.2021 109.199 66.3449 109.101 63.7612L109.319 63.7475C109.507 65.8551 109.714 67.8165 109.936 69.5771C110.14 71.2134 110.129 72.673 109.902 73.9159L109.753 74.7308ZM109.5 67.7667C109.583 69.3658 109.689 71.1051 109.821 72.8416C109.9 71.8669 109.866 70.7827 109.718 69.6045C109.643 69.0138 109.571 68.4012 109.5 67.7667Z" fill="#371A45"/>
<path d="M122.152 59.1297C117.282 60.5706 102.408 62.9792 102.408 62.9792L102.315 62.0838L101.862 62.3575C101.992 64.1367 102.28 68.4109 102.457 73.5924C102.457 73.6778 102.462 73.7654 102.466 73.8529C102.503 74.9579 102.535 76.1028 102.558 77.2745C102.667 82.6285 102.613 88.4936 102.149 93.419C102.027 94.721 101.905 96.0027 101.778 97.2543C100.747 107.467 99.3358 115.568 93.5498 114.538C84.7801 112.98 88.2086 97.7053 85.5911 93.7107C83.4672 90.4725 74.3402 87.937 72.4106 87.8161C71.4628 87.7553 66.9452 87.7033 61.7086 96.2331C56.2553 105.116 47.8364 101.691 48.6732 92.1483C49.2866 85.17 53.2077 79.9791 56.6717 76.9921C57.3998 76.3582 58.1733 75.7786 58.9861 75.2578C60.5124 74.2896 61.8397 73.0387 62.8967 71.5725C64.3951 69.4996 65.2963 67.0555 65.5022 64.5061C65.9668 58.7099 66.0494 57.877 66.0494 57.877L66.2059 57.8923L64.5685 47.2369L64.9281 47.2724L101.145 50.8844L101.013 49.6099C101.013 49.6099 102.053 49.4615 103.711 49.2897C109.457 48.6965 122.634 47.84 125.778 52.0179C126.344 52.7698 126.607 53.501 126.645 54.1889C126.788 56.6237 124.112 58.5501 122.152 59.1297Z" fill="white"/>
<g opacity="0.35">
<path opacity="0.35" d="M122.153 59.1297C117.282 60.5707 102.408 62.9792 102.408 62.9792L102.316 62.0839L101.863 62.3575C101.993 64.1367 102.281 68.4109 102.457 73.5925C102.457 73.6778 102.463 73.7654 102.467 73.853L101.054 74.1332C101.054 74.1332 98.8762 69.0922 99.8186 63.7695C100.812 58.1577 112.928 57.6772 119.118 56.8142C124.294 56.0923 125.592 53.9771 126.276 53.1628C127.064 56.4825 124.113 58.5501 122.153 59.1297Z" fill="#371A45"/>
</g>
<g opacity="0.35">
<path opacity="0.35" d="M103.305 53.3795C101.011 61.1207 90.622 64.8695 80.1017 61.7528C71.8902 59.3196 66.0221 53.4211 64.9336 47.2686L101.151 50.8806L101.019 49.606C101.019 49.606 102.058 49.4577 103.716 49.2859C103.837 50.6641 103.698 52.0528 103.305 53.3795Z" fill="#293856"/>
</g>
<g opacity="0.35">
<path opacity="0.35" d="M93.5498 114.533C84.7801 112.975 88.2086 97.7004 85.5911 93.7058C83.4672 90.4676 74.3402 87.9321 72.4106 87.8111C71.4628 87.7504 66.9452 87.6984 61.7086 96.2282C56.2553 105.111 47.8364 101.686 48.6732 92.1433C49.2866 85.1651 51.747 82.5912 53.0353 80.6884C53.09 80.736 50.1146 86.2624 55.0108 89.2461C60.5889 92.6441 67.5718 86.8846 70.3809 84.2659C71.2786 83.4218 72.3441 82.7763 73.5079 82.3712C74.0075 82.1983 73.9615 81.4764 73.4427 81.3681L69.4943 80.5384C68.1262 80.2511 67.2194 79.0203 67.4761 77.8021L69.6563 67.4165C69.913 66.1977 71.2384 65.4359 72.6038 65.7199L91.12 69.6056C92.4854 69.8923 93.3932 71.1231 93.1382 72.3419L92.8148 73.8852C95.1379 74.3449 98.6315 74.7061 101.671 73.6762C101.923 73.5898 102.192 73.5597 102.457 73.5881C102.497 74.7745 102.533 76.007 102.558 77.2701C100.558 77.9914 96.8119 78.8747 91.9748 77.882L90.9536 82.7313C90.6986 83.9501 89.371 84.7119 88.0061 84.4279L83.928 83.5665C83.395 83.457 83.0628 84.1367 83.4864 84.4788C84.8648 85.5975 85.9895 86.9966 86.7858 88.5833C89.6451 94.2783 87.5492 98.4107 92.7699 101.573C97.4374 104.401 100.627 102.158 101.778 97.2499C100.749 107.462 99.3358 115.563 93.5498 114.533Z" fill="#371A45"/>
</g>
<path d="M102.104 63.7109C101.891 63.7102 101.685 63.629 101.529 63.4837C101.373 63.3384 101.278 63.1395 101.262 62.9269C101.246 62.7142 101.311 62.5034 101.444 62.3365C101.576 62.1695 101.767 62.0588 101.978 62.0264C102.13 62.0034 117.151 59.7279 121.91 58.3175C123.372 57.8852 125.19 56.6265 125.678 55.1434C125.966 54.2721 125.778 53.4129 125.104 52.5164C122.028 48.4305 106.759 49.6301 101.134 50.4368C100.912 50.4687 100.686 50.4111 100.506 50.2765C100.326 50.1419 100.208 49.9414 100.176 49.7191C100.144 49.4968 100.201 49.2709 100.336 49.0911C100.471 48.9114 100.671 48.7924 100.893 48.7605C100.945 48.7529 106.192 48.008 111.866 47.9396C119.692 47.8422 124.603 49.0396 126.455 51.4969C127.724 53.1825 127.605 54.6984 127.285 55.6737C126.577 57.8179 124.251 59.3869 122.39 59.938C117.519 61.3795 102.853 63.6047 102.23 63.6972C102.188 63.7049 102.146 63.7095 102.104 63.7109Z" fill="#371A45"/>
<path d="M113.309 48.7846C113.309 48.7846 114.047 57.7998 115.132 60.7195L113.309 48.7846Z" fill="white"/>
<path d="M115.132 61.5661C114.959 61.5661 114.79 61.5132 114.649 61.4146C114.507 61.316 114.398 61.1764 114.338 61.0145C113.225 58.0198 112.495 49.2267 112.464 48.854C112.451 48.6328 112.525 48.415 112.67 48.2474C112.815 48.0798 113.02 47.9758 113.241 47.9577C113.462 47.9396 113.681 48.0088 113.851 48.1505C114.022 48.2922 114.13 48.495 114.153 48.7156C114.16 48.8048 114.893 57.6476 115.926 60.4239C115.974 60.552 115.99 60.6898 115.972 60.8254C115.955 60.9611 115.906 61.0905 115.828 61.2028C115.75 61.315 115.646 61.4067 115.524 61.47C115.403 61.5332 115.268 61.5662 115.132 61.5661Z" fill="#371A45"/>
<path d="M68.1716 49.5693C70.3444 52.5162 73.239 54.8543 76.5768 56.3588C77.2786 56.6749 77.9967 56.9535 78.728 57.1934C79.087 57.3122 79.4537 57.4205 79.8225 57.5218C82.9623 58.3745 86.2551 58.5005 89.4508 57.8901C89.8554 57.8113 90.2567 57.7221 90.6548 57.6225C97.9381 55.7831 104.04 50.1713 106.139 42.4033C109.232 30.9621 102.465 19.1798 91.0247 16.0877C88.88 15.5058 86.6579 15.2614 84.438 15.3632C84.1852 15.3725 83.9313 15.3894 83.6784 15.4113C83.0009 15.466 82.3306 15.5525 81.6673 15.6707C78.6211 16.2183 75.7283 17.4145 73.1849 19.1782C72.7836 19.4566 72.3916 19.7484 72.0089 20.0538C68.4527 22.9013 65.8956 26.8073 64.708 31.2056C62.9289 37.7871 64.412 44.4803 68.1716 49.5693Z" fill="white"/>
<path d="M102.709 87.5561C102.494 87.5566 102.287 87.4753 102.13 87.3289C101.973 87.1824 101.877 86.9817 101.862 86.7673C101.848 86.553 101.915 86.3411 102.051 86.1745C102.186 86.008 102.38 85.8993 102.593 85.8705C106.534 85.3232 109.421 81.4409 109.16 77.0304L108.274 61.9946C108.26 61.7704 108.337 61.5502 108.486 61.3823C108.635 61.2144 108.845 61.1126 109.069 61.0993C109.293 61.086 109.513 61.1623 109.681 61.3114C109.849 61.4606 109.951 61.6703 109.964 61.8945L110.851 76.9308C111.163 82.2169 107.638 86.8808 102.826 87.5479C102.787 87.5533 102.748 87.556 102.709 87.5561Z" fill="#371A45"/>
<g opacity="0.35">
<path opacity="0.35" d="M68.1718 49.5683C70.8124 53.1456 74.5027 55.8106 78.7288 57.1923C79.0878 57.3111 79.4539 57.4195 79.8233 57.5207C80.9253 57.8188 82.0492 58.0288 83.1845 58.1484C85.2751 58.371 87.3871 58.2835 89.4521 57.889C89.8567 57.8102 90.2581 57.721 90.6561 57.6214C97.9394 55.782 104.042 50.1697 106.14 42.4018C107.225 38.4114 107.129 34.1917 105.862 30.255C105.822 31.9862 105.573 33.7062 105.12 35.3775C104.333 38.2906 102.413 39.6736 100.648 41.895C97.7079 45.5973 94.188 49.4473 89.636 50.5966C89.238 50.6962 88.8367 50.7854 88.4321 50.8642C86.3671 51.2595 84.255 51.3469 82.1644 51.1236C81.0293 51.004 79.9055 50.7941 78.8038 50.4959C78.4322 50.3936 78.0661 50.2847 77.7093 50.1676C76.9777 49.928 76.2594 49.6496 75.5575 49.3335C72.2196 47.8288 69.3251 45.4905 67.1523 42.5435C65.7596 40.6568 64.6835 38.5559 63.9662 36.3232C63.8609 41.0824 65.3403 45.7417 68.1718 49.5683Z" fill="#293856"/>
<path opacity="0.35" d="M85.447 58.3799C84.6876 58.3802 83.9288 58.3398 83.1738 58.2589C82.0328 58.1384 80.9032 57.9274 79.7956 57.6279C79.3857 57.5147 79.0256 57.409 78.6934 57.2963C77.9583 57.0554 77.2366 56.7755 76.5312 56.4579C73.1786 54.9431 70.2701 52.5942 68.0834 49.6356C65.2464 45.7948 63.7448 41.0675 63.8553 36.3232L63.8706 35.6735L64.0693 36.2925C65.0946 39.5072 66.8688 42.4323 69.2459 44.827C71.623 47.2216 74.5349 49.0174 77.7418 50.0663C78.0701 50.1757 78.428 50.2852 78.8363 50.3946C79.9324 50.6909 81.0502 50.8997 82.1794 51.0191C84.2592 51.2413 86.3605 51.1542 88.4148 50.7608C88.8143 50.6831 89.2176 50.5966 89.6132 50.4948C94.0897 49.3641 97.5232 45.6624 100.566 41.8309C101.039 41.236 101.522 40.7008 101.989 40.1831C103.253 38.7848 104.446 37.4642 105.017 35.3528C105.467 33.6898 105.715 31.9785 105.755 30.2561L105.771 29.6076L105.969 30.2254C106.868 33.0338 107.181 35.9965 106.891 38.9307C106.6 41.8649 105.711 44.7084 104.279 47.2857C102.847 49.8631 100.902 52.1197 98.5637 53.9162C96.2257 55.7128 93.5444 57.0112 90.6853 57.7314C90.2864 57.831 89.8792 57.9218 89.4753 58.0001C88.3505 58.2152 87.2102 58.3399 86.0654 58.3728C85.8582 58.3775 85.6521 58.3799 85.447 58.3799ZM64.0693 36.975C64.1147 41.4876 65.5807 45.8711 68.259 49.5031C70.8862 53.0621 74.5574 55.7135 78.7618 57.0883C79.0902 57.1978 79.4475 57.3072 79.8563 57.4167C80.9524 57.713 82.0703 57.9218 83.1995 58.0411C85.2793 58.2633 87.3805 58.1763 89.4348 57.7828C89.8349 57.7051 90.2382 57.6186 90.6333 57.5168C93.4102 56.8168 96.0181 55.5655 98.3018 53.8375C100.586 52.1095 102.499 49.9399 103.927 47.4578C105.356 44.9757 106.271 42.2317 106.618 39.3889C106.965 36.5461 106.737 33.6625 105.948 30.9095C105.866 32.4302 105.624 33.938 105.226 35.4081C104.642 37.5698 103.432 38.9107 102.15 40.3276C101.684 40.8425 101.203 41.3756 100.735 41.9644C97.6704 45.8265 94.2041 49.5579 89.6636 50.7049C89.2641 50.8051 88.8569 50.8954 88.4536 50.9736C85.2412 51.5845 81.932 51.458 78.7755 50.6037C78.3662 50.4904 78.0055 50.3848 77.6734 50.272C76.9383 50.0311 76.2165 49.7512 75.5112 49.4336C72.8631 48.235 70.4845 46.5135 68.5183 44.3725C66.5521 42.2316 65.0388 39.7154 64.0693 36.975Z" fill="#371A45"/>
</g>
<path d="M85.4468 59.1176C84.6608 59.118 83.8753 59.0764 83.0937 58.9928C81.9144 58.868 80.747 58.6498 79.6022 58.3405C79.1808 58.2245 78.8087 58.1123 78.4607 57.9974C77.7017 57.7481 76.9564 57.4589 76.2279 57.131C72.7592 55.5637 69.7503 53.133 67.4889 50.0712C63.4135 44.5525 62.1017 37.5934 63.8896 30.9829C65.1233 26.4109 67.7814 22.3508 71.4783 19.3916C71.869 19.0786 72.2806 18.7721 72.7014 18.4799C75.3447 16.6471 78.3512 15.404 81.517 14.835C82.2044 14.7125 82.9081 14.6216 83.6086 14.5652C83.8823 14.5412 84.1515 14.5242 84.4049 14.5143C86.7104 14.4091 89.0182 14.6634 91.2455 15.2679C103.121 18.4788 110.168 30.7508 106.959 42.6239C105.921 46.4522 103.883 49.9353 101.055 52.7159C98.2266 55.4966 94.7093 57.4745 90.8641 58.4467C90.4498 58.5501 90.03 58.6431 89.6141 58.7241C88.4496 58.9473 87.2691 59.0765 86.0838 59.1105C85.8715 59.1156 85.6592 59.118 85.4468 59.1176ZM68.8521 49.0659C70.941 51.8939 73.7201 54.1389 76.924 55.5866C77.5983 55.8901 78.2883 56.1577 78.9909 56.3884C79.3144 56.4951 79.6597 56.5991 80.0493 56.7063C81.1065 56.9921 82.1847 57.1934 83.2737 57.3083C85.2816 57.5228 87.3101 57.4389 89.2934 57.0593C89.6765 56.9849 90.0684 56.8951 90.4514 56.8021C94.0042 55.9038 97.254 54.0764 99.8674 51.5074C102.481 48.9384 104.364 45.7203 105.323 42.1834C108.289 31.2111 101.776 19.8711 90.8033 16.9043C88.7436 16.3456 86.6096 16.1106 84.4777 16.2076C84.244 16.2169 84.0026 16.2322 83.752 16.2541C83.0991 16.3089 82.4496 16.3904 81.8158 16.5037C78.8899 17.0296 76.1113 18.1785 73.6684 19.8727C73.2782 20.143 72.8984 20.426 72.5389 20.7144C69.1221 23.4488 66.6656 27.2009 65.5259 31.4262C63.8737 37.5365 65.0881 43.9658 68.8521 49.0659Z" fill="#371A45"/>
<path d="M85.4468 59.1176C84.6608 59.118 83.8753 59.0764 83.0937 58.9928C81.9144 58.868 80.747 58.6498 79.6022 58.3405C79.1808 58.2245 78.8087 58.1123 78.4607 57.9974C77.7017 57.7481 76.9564 57.4589 76.2279 57.131C72.7592 55.5637 69.7503 53.133 67.4889 50.0712C63.4135 44.5525 62.1017 37.5934 63.8896 30.9829C65.1233 26.4109 67.7814 22.3508 71.4783 19.3916C71.869 19.0786 72.2806 18.7721 72.7014 18.4799C75.3447 16.6471 78.3512 15.404 81.517 14.835C82.2044 14.7125 82.9081 14.6216 83.6086 14.5652C83.8823 14.5412 84.1515 14.5242 84.4049 14.5143C86.7104 14.4091 89.0182 14.6634 91.2455 15.2679C103.121 18.4788 110.168 30.7508 106.959 42.6239C105.921 46.4522 103.883 49.9353 101.055 52.7159C98.2266 55.4966 94.7093 57.4745 90.8641 58.4467C90.4498 58.5501 90.03 58.6431 89.6141 58.7241C88.4496 58.9473 87.2691 59.0765 86.0838 59.1105C85.8715 59.1156 85.6592 59.118 85.4468 59.1176ZM68.8521 49.0659C70.941 51.8939 73.7201 54.1389 76.924 55.5866C77.5983 55.8901 78.2883 56.1577 78.9909 56.3884C79.3144 56.4951 79.6597 56.5991 80.0493 56.7063C81.1065 56.9921 82.1847 57.1934 83.2737 57.3083C85.2816 57.5228 87.3101 57.4389 89.2934 57.0593C89.6765 56.9849 90.0684 56.8951 90.4514 56.8021C94.0042 55.9038 97.254 54.0764 99.8674 51.5074C102.481 48.9384 104.364 45.7203 105.323 42.1834C108.289 31.2111 101.776 19.8711 90.8033 16.9043C88.7436 16.3456 86.6096 16.1106 84.4777 16.2076C84.244 16.2169 84.0026 16.2322 83.752 16.2541C83.0991 16.3089 82.4496 16.3904 81.8158 16.5037C78.8899 17.0296 76.1113 18.1785 73.6684 19.8727C73.2782 20.143 72.8984 20.426 72.5389 20.7144C69.1221 23.4488 66.6656 27.2009 65.5259 31.4262C63.8737 37.5365 65.0881 43.9658 68.8521 49.0659Z" fill="#371A45"/>
<path d="M71.9779 53.5376C85.6515 60.488 101.715 51.9018 100.497 36.7593C99.6682 26.4569 88.9416 19.3139 79.0998 20.7434C71.9358 21.7832 65.3967 25.9343 63.9717 37.4949C63.9717 37.4949 64.1315 42.7104 66.0042 45.9338C67.8769 49.1572 70.2432 51.9768 70.2432 51.9768L71.9779 53.5376Z" fill="#293856"/>
<path d="M82.0108 56.089C78.6206 56.089 75.156 55.2752 71.9294 53.635L71.9059 53.6192L70.1689 52.0583C70.1344 52.0189 67.7649 49.1841 65.9086 45.9891C64.0436 42.7782 63.863 37.5507 63.8613 37.4987C65.0811 27.5931 70.2023 21.925 79.0836 20.6356C84.1944 19.894 89.7747 21.4669 94.0115 24.8458C97.8969 27.9439 100.239 32.1716 100.607 36.7506C101.14 43.3726 98.3769 49.2284 93.027 52.8169C89.7818 54.9917 85.9467 56.089 82.0108 56.089ZM72.0411 53.4462C78.9408 56.9488 86.9339 56.6374 92.9049 52.6352C98.1875 49.0949 100.915 43.3113 100.389 36.7681C100.025 32.2498 97.712 28.0769 93.8763 25.0171C89.6855 21.6754 84.1665 20.1179 79.1159 20.8523C70.3446 22.1258 65.2858 27.7299 64.0808 37.5086C64.0808 37.5436 64.2619 42.7169 66.099 45.8791C67.9454 49.0571 70.3035 51.8783 70.3271 51.9062L72.0411 53.4462Z" fill="#371A45"/>
<g opacity="0.35">
<path opacity="0.35" d="M64.8232 39.2084C64.8524 39.5153 64.8973 39.8206 64.9579 40.1229C65.689 43.7781 67.0172 47.2128 67.0172 47.2128L68.1571 49.2503C78.8498 60.2456 96.8258 57.3122 100.567 42.5889C100.804 41.6545 100.955 40.7002 101.017 39.7382C93.2692 50.7931 76.3018 51.5401 65.5199 40.4545L64.8232 39.2084Z" fill="#111A28"/>
</g>
<path d="M83.1681 58.8095L83.1166 58.804C81.9466 58.6804 80.7882 58.4639 79.6525 58.1566C79.2355 58.0417 78.8667 57.9311 78.5214 57.8167C77.7685 57.5696 77.0292 57.2828 76.3066 56.9575C72.8669 55.4042 69.8831 52.9946 67.6404 49.959C63.6001 44.4863 62.2993 37.5906 64.0718 31.0338C65.0924 27.248 67.103 23.8025 69.8967 21.0515L69.9454 21.0033L70.0001 20.9667C72.4004 19.4294 75.2926 18.4071 78.5969 17.9271C84.4831 17.0723 90.91 18.8827 95.7854 22.771C100.269 26.3458 102.972 31.2313 103.398 36.5262C103.86 42.278 102.213 47.4809 98.6366 51.5718C94.8972 55.8466 89.2786 58.4839 83.2173 58.8067L83.1681 58.8095ZM68.6993 49.1775C70.8078 52.0316 73.6127 54.2973 76.8462 55.7584C77.5267 56.0646 78.2228 56.3346 78.9318 56.5673C79.2602 56.6768 79.606 56.7797 79.9989 56.888C81.0494 57.1716 82.1203 57.3729 83.202 57.49C88.8901 57.1737 94.1541 54.7022 97.6494 50.7038C100.988 46.8861 102.525 42.0186 102.092 36.6285C101.696 31.6987 99.1663 27.141 94.97 23.7944C90.3731 20.1277 84.3244 18.4191 78.7884 19.2236C75.6976 19.6724 72.9996 20.6175 70.769 22.0328C68.1672 24.6138 66.2948 27.8374 65.342 31.3763C63.6745 37.543 64.8981 44.032 68.6993 49.1791V49.1775Z" fill="#371A45"/>
<path d="M82.0093 56.8262C78.5069 56.8262 74.9262 55.9861 71.594 54.2929L71.495 54.242L69.5922 52.5213C69.4937 52.4037 67.158 49.6088 65.2689 46.3596C63.3109 42.9895 63.1292 37.7428 63.1221 37.5211V37.456L63.1297 37.3914C64.3944 27.1323 69.7263 21.2469 78.977 19.9055C84.2853 19.1339 90.0774 20.7658 94.4707 24.2695C98.5165 27.4984 100.957 31.9072 101.341 36.6926C101.896 43.5882 99.0156 49.6919 93.4369 53.4304C90.0681 55.6868 86.089 56.8262 82.0093 56.8262ZM72.4603 52.8311C79.1017 56.1651 86.7687 55.8581 92.4935 52.0211C97.5479 48.6341 100.155 43.0957 99.6526 36.8261C99.3056 32.5136 97.0904 28.524 93.414 25.5928C89.3796 22.3754 84.0741 20.8764 79.2194 21.5807C70.7195 22.8154 66.0083 28.0325 64.818 37.5294C64.8443 38.1144 65.0982 42.6923 66.7334 45.5075C68.4205 48.4113 70.5477 51.0185 70.852 51.3874L72.4603 52.8311Z" fill="#371A45"/>
<path d="M110.038 39.5009C110.294 35.2698 108.009 31.6892 104.935 31.5033C101.861 31.3174 99.1614 34.5967 98.9056 38.8277C98.6498 43.0588 100.934 46.6394 104.009 46.8253C107.083 47.0111 109.782 43.7319 110.038 39.5009Z" fill="white"/>
<path d="M104.252 47.6807C102.897 47.6807 101.621 47.1335 100.551 46.098C98.9368 44.5328 98.0234 42.0821 98.0453 39.3748C98.0825 34.7022 100.981 30.7903 104.503 30.654C105.929 30.5993 107.279 31.1465 108.401 32.2329C110.015 33.7986 110.928 36.2488 110.907 38.9567C110.869 43.6287 107.971 47.5406 104.446 47.6769C104.38 47.6796 104.315 47.6807 104.252 47.6807ZM104.694 32.3418C104.653 32.3418 104.611 32.3418 104.569 32.3445C101.934 32.4463 99.7664 35.6052 99.7363 39.3857C99.7182 41.5994 100.463 43.6544 101.727 44.8798C102.509 45.6378 103.424 46.0181 104.38 45.982C107.015 45.8802 109.182 42.7213 109.213 38.9408C109.231 36.7271 108.486 34.6721 107.222 33.4467C106.475 32.7249 105.603 32.3418 104.694 32.3418Z" fill="#371A45"/>
<path d="M110.77 40.3599C111.094 36.9465 109.331 33.9873 106.833 33.7502C104.335 33.5132 102.047 36.0881 101.723 39.5015C101.399 42.9149 103.162 45.8742 105.66 46.1112C108.158 46.3483 110.446 43.7733 110.77 40.3599Z" fill="white"/>
<g opacity="0.35">
<path opacity="0.35" d="M101.876 42.1242C101.602 41.0029 101.638 39.8027 101.918 38.6764C102.754 41.1807 105.018 42.2184 107.169 40.9903C108.558 40.1973 109.58 38.637 110.014 36.8989C110.069 37.0565 110.114 37.2223 110.156 37.3914C110.848 40.2476 109.554 43.6221 107.27 44.9279C104.987 46.2337 102.568 44.9788 101.876 42.1242Z" fill="#371A45"/>
</g>
<path d="M106.079 46.5709C105.11 46.5709 104.192 46.1774 103.415 45.426C102.137 44.1919 101.39 42.1073 101.417 39.8503C101.463 35.9986 103.623 32.883 106.334 32.7566C107.364 32.7101 108.343 33.103 109.166 33.8971C110.444 35.1318 111.191 37.2163 111.164 39.4727C111.118 43.3239 108.958 46.4401 106.247 46.5665C106.19 46.5709 106.135 46.5709 106.079 46.5709ZM106.498 34.0662C106.465 34.0662 106.43 34.0662 106.395 34.0662C104.445 34.1571 102.766 36.8119 102.728 39.864C102.706 41.7658 103.303 43.4914 104.326 44.4792C104.713 44.8535 105.353 45.2902 106.184 45.2525C108.134 45.1616 109.813 42.5068 109.85 39.4552C109.873 37.5534 109.276 35.8279 108.253 34.8401C107.882 34.4827 107.281 34.0657 106.498 34.0657V34.0662Z" fill="#371A45"/>
<g opacity="0.7">
<path opacity="0.7" d="M96.4955 35.625C96.7094 33.8649 95.6583 32.291 94.1476 32.1096C92.637 31.9281 91.239 33.2078 91.0251 34.9679C90.8111 36.7279 91.8623 38.3018 93.3729 38.4832C94.8835 38.6647 96.2815 37.385 96.4955 35.625Z" fill="white"/>
</g>
<g opacity="0.7">
<path opacity="0.7" d="M94.7007 42.3045C94.8496 41.5877 94.4716 40.903 93.8564 40.7752C93.2412 40.6473 92.6218 41.1247 92.4728 41.8414C92.3239 42.5582 92.7018 43.2429 93.3171 43.3707C93.9323 43.4986 94.5517 43.0212 94.7007 42.3045Z" fill="white"/>
</g>
<g opacity="0.7">
<path opacity="0.7" d="M66.9496 39.7463C66.9496 39.7463 65.2646 28.4791 71.1771 24.8178C77.0896 21.1566 84.397 22.4941 84.1672 22.9927C84.1672 22.9927 75.1146 24.4096 71.0628 31.1405C67.9385 36.3303 66.9496 39.7463 66.9496 39.7463Z" fill="white"/>
</g>
<path d="M83.4415 42.8248C82.4564 45.6881 78.56 47.8394 76.2244 48.0052C73.3152 48.2094 67.6588 48.7167 66.2562 49.3504C66.1555 49.3895 66.0638 49.4485 65.9864 49.5239L66.0548 57.872C55.7217 53.4112 54.3689 48.0485 55.1159 44.1398C55.9822 39.604 59.4528 36.9706 62.2301 35.9855C65.1261 34.9566 79.0241 31.5433 83.1788 39.5269C83.7758 40.6805 83.795 41.7981 83.4415 42.8248Z" fill="white"/>
<g opacity="0.35">
<path opacity="0.35" d="M83.4402 42.8248C82.4552 45.6881 78.5588 47.8394 76.2231 48.0053C73.3139 48.2094 66.8493 49.5924 65.4472 50.225C62.9069 47.776 65.6749 44.7725 69.3015 44.9165C73.2909 45.0713 80.3072 45.8944 83.4402 42.8248Z" fill="#293856"/>
<path opacity="0.35" d="M65.4246 50.3552L65.3699 50.3038C64.398 49.3663 64.1112 48.2728 64.5551 47.2254C65.1888 45.7401 67.1873 44.7271 69.3046 44.8053C69.7835 44.8239 70.3061 44.8524 70.8605 44.8825C74.9878 45.1069 80.6398 45.4139 83.3624 42.7481L83.6935 42.4236L83.5424 42.8614C82.5224 45.8238 78.5296 47.951 76.2295 48.1152C73.3045 48.3205 66.8716 49.7023 65.4914 50.3257L65.4246 50.3552ZM69.0622 45.0193C67.12 45.0193 65.3338 45.9606 64.7575 47.3113C64.357 48.251 64.6103 49.2371 65.469 50.0953C66.9925 49.4522 73.3176 48.0994 76.2131 47.8958C78.3408 47.7447 81.9538 45.8709 83.1632 43.2193C80.2628 45.6131 74.8483 45.3187 70.8501 45.1014C70.2974 45.0713 69.7758 45.0428 69.2981 45.0242C69.2187 45.0209 69.1399 45.0193 69.0633 45.0193H69.0622Z" fill="#371A45"/>
</g>
<path d="M66.0547 58.7203C65.9393 58.7205 65.8251 58.6968 65.7192 58.6508C54.8487 53.9579 53.5002 48.0835 54.2817 43.9839C55.1984 39.181 58.8408 36.2931 61.9432 35.1914C66.3075 33.6426 79.714 31.0431 83.9278 39.1394C84.7591 40.7364 84.7175 42.44 83.808 44.0649C82.3244 46.7153 78.7186 48.68 76.2833 48.8519C70.6674 49.2481 67.1672 49.7965 66.5691 50.1396C66.4104 50.2888 66.2004 50.3712 65.9826 50.3696C65.7648 50.368 65.556 50.2826 65.3996 50.1311C65.2431 49.9796 65.1509 49.7737 65.1423 49.5561C65.1336 49.3385 65.2091 49.1259 65.3531 48.9624C65.6224 48.6598 66.3382 47.8548 76.1646 47.1625C77.89 47.0404 81.0701 45.4889 82.3299 43.2374C82.9565 42.1188 82.9866 41.0029 82.4256 39.9215C78.7043 32.7714 65.7701 35.6303 62.5096 36.7873C59.8494 37.7318 56.7274 40.2017 55.9426 44.3008C54.9729 49.3811 58.4868 53.6865 66.3863 57.0971C66.5644 57.1744 66.7105 57.3106 66.8002 57.4829C66.8898 57.6551 66.9175 57.8529 66.8786 58.0432C66.8398 58.2334 66.7367 58.4045 66.5867 58.5278C66.4367 58.6511 66.2488 58.719 66.0547 58.7203Z" fill="#371A45"/>
<path d="M94.5073 115.469C94.1372 115.467 93.7678 115.433 93.4036 115.367C86.981 114.226 86.4595 106.792 86.0403 100.819C85.8428 98.0068 85.6572 95.3509 84.8829 94.1704C83.0436 91.3651 75.0215 88.8619 72.9846 88.736C71.7018 88.6561 67.1476 88.9894 62.4309 96.6715C59.2366 101.873 55.2844 102.797 52.651 101.925C49.2953 100.817 47.4034 96.9451 47.8314 92.0662C48.5669 83.6721 54.0558 77.3752 58.5323 74.5337C62.0391 72.3074 64.3293 68.5307 64.6615 64.4305C65.1217 58.6968 65.4276 55.3819 65.4276 55.3491C65.4533 55.1295 65.5639 54.9287 65.7356 54.7895C65.9073 54.6503 66.1266 54.5837 66.3468 54.604C66.5669 54.6243 66.7704 54.7298 66.9138 54.8981C67.0571 55.0663 67.1291 55.284 67.1143 55.5045C67.1143 55.5368 66.8083 58.8429 66.3481 64.5663C65.9765 69.1935 63.393 73.4545 59.4413 75.9638C55.2904 78.5989 50.2015 84.4356 49.5196 92.2139C49.1628 96.2835 50.601 99.4637 53.1862 100.317C55.7583 101.168 58.7517 99.4303 60.9911 95.7827C66.0602 87.5276 71.1442 86.9169 73.0946 87.0428C75.1369 87.1708 83.9695 89.6795 86.303 93.239C87.3192 94.7889 87.5113 97.5269 87.7335 100.697C88.1313 106.364 88.5817 112.786 93.7034 113.697C94.8176 113.895 95.7403 113.7 96.5256 113.103C99.6761 110.705 100.47 102.267 101.311 93.332C102.494 80.7655 101.278 63.0974 101.265 62.9206C101.258 62.8097 101.272 62.6983 101.307 62.5928C101.342 62.4874 101.398 62.3899 101.471 62.3059C101.544 62.222 101.632 62.1532 101.732 62.1035C101.831 62.0539 101.94 62.0243 102.051 62.0165C102.162 62.0087 102.273 62.0229 102.378 62.0581C102.484 62.0933 102.581 62.149 102.665 62.2219C102.749 62.2949 102.818 62.3836 102.868 62.4831C102.917 62.5826 102.947 62.6909 102.955 62.8019C102.967 62.9803 104.193 80.7842 102.997 93.4907C102.083 103.21 101.293 111.605 97.5512 114.451C96.6795 115.122 95.6074 115.481 94.5073 115.469Z" fill="#371A45"/>
<path d="M71.0974 49.3154C70.9695 49.3156 70.8432 49.2868 70.728 49.2312C70.6129 49.1755 70.5118 49.0945 70.4325 48.9942C66.0463 43.4503 68.5658 34.8012 68.6747 34.4367C68.7411 34.2239 68.8887 34.0457 69.0855 33.941C69.2824 33.8362 69.5125 33.8133 69.7262 33.8772C69.9398 33.9411 70.1196 34.0866 70.2266 34.2823C70.3337 34.4779 70.3592 34.7078 70.2978 34.9222C70.2672 35.0245 67.9304 43.1033 71.7612 47.944C71.8598 48.0688 71.9214 48.2188 71.9387 48.377C71.9561 48.5352 71.9285 48.695 71.8592 48.8382C71.79 48.9814 71.6818 49.1023 71.547 49.1869C71.4123 49.2714 71.2565 49.3164 71.0974 49.3165V49.3154Z" fill="#371A45"/>
<path d="M64.3922 93.2921C64.2339 93.2922 64.0787 93.248 63.9443 93.1643C63.8099 93.0806 63.7017 92.9608 63.6321 92.8187C60.0749 85.5876 51.5378 83.9074 51.4514 83.8916C51.2345 83.846 51.0441 83.7173 50.9211 83.5331C50.798 83.3488 50.752 83.1237 50.7929 82.9059C50.8339 82.6881 50.9585 82.4951 51.1401 82.3681C51.3217 82.2412 51.5458 82.1904 51.7644 82.2268C52.1475 82.299 61.2269 84.0875 65.1518 92.0717C65.2151 92.2007 65.2446 92.3438 65.2373 92.4875C65.2301 92.6311 65.1865 92.7705 65.1105 92.8926C65.0345 93.0146 64.9287 93.1154 64.803 93.1853C64.6774 93.2552 64.536 93.2919 64.3922 93.2921Z" fill="#371A45"/>
<path d="M101.352 101.964C101.211 101.964 101.072 101.929 100.947 101.862C100.823 101.795 100.718 101.699 100.64 101.58C96.9891 95.9644 87.1343 99.5474 87.0352 99.5846C86.826 99.6575 86.5967 99.6456 86.3962 99.5514C86.1957 99.4573 86.0401 99.2883 85.9626 99.0808C85.8852 98.8732 85.8921 98.6436 85.9819 98.4412C86.0717 98.2387 86.2373 98.0794 86.4431 97.9975C86.8995 97.8273 97.6693 93.9028 102.06 100.657C102.144 100.785 102.191 100.933 102.197 101.086C102.203 101.238 102.168 101.389 102.095 101.524C102.022 101.658 101.914 101.77 101.783 101.847C101.652 101.925 101.502 101.966 101.349 101.966L101.352 101.964Z" fill="#371A45"/>
<path d="M96.8311 76.5893C95.108 76.5866 93.391 76.3846 91.7144 75.9873C90.9676 75.8189 90.3183 75.3608 89.9094 74.7137C89.5004 74.0666 89.3652 73.2835 89.5336 72.5367C89.7019 71.79 90.16 71.1407 90.8071 70.7317C91.4542 70.3227 92.2372 70.1875 92.984 70.3559C94.9716 70.7937 98.7848 71.3732 101.97 70.2929C102.634 70.0648 103.361 70.106 103.995 70.4075C104.629 70.7091 105.12 71.2472 105.362 71.9063C105.604 72.5654 105.579 73.2932 105.29 73.9336C105.002 74.574 104.475 75.0761 103.821 75.3322C102.42 75.8795 99.9964 76.5893 96.8311 76.5893ZM92.3568 71.9785C92.0812 71.9794 91.8144 72.0759 91.6019 72.2514C91.3893 72.4269 91.2442 72.6707 91.1912 72.9412C91.1321 73.2464 91.194 73.5626 91.364 73.8229C91.534 74.0832 91.7986 74.2671 92.1018 74.3356C97.3352 75.5637 101.303 74.4998 103.203 73.7528C103.45 73.6613 103.65 73.4756 103.76 73.2365C103.869 72.9974 103.88 72.7244 103.788 72.4776C103.697 72.2309 103.511 72.0306 103.272 71.9208C103.033 71.8109 102.76 71.8006 102.513 71.8921C99.1159 73.0413 95.2567 72.5887 92.6179 72.0015C92.5319 71.9844 92.4444 71.9767 92.3568 71.9785Z" fill="#371A45"/>
<path d="M85.1903 80.7322C85.0157 80.7321 84.8415 80.716 84.6698 80.684L69.0732 77.8075C67.4611 77.5104 66.4021 75.8959 66.7135 74.2092L68.6382 63.7722C68.949 62.0855 70.5142 60.9554 72.1263 61.2547L87.7229 64.1312C89.3351 64.4289 90.3941 66.0428 90.0832 67.7295L88.158 78.1665C88.0152 78.9625 87.5733 79.6737 86.9229 80.1542C86.4221 80.5275 85.8148 80.73 85.1903 80.7322ZM71.607 62.8987C70.9908 62.8987 70.4293 63.3913 70.3024 64.0792L68.3771 74.5162C68.2354 75.2824 68.6852 76.0136 69.3792 76.1416L84.9758 79.0181C85.1402 79.0468 85.3089 79.0412 85.4711 79.0015C85.6332 78.9619 85.7855 78.8891 85.9181 78.7877C86.2212 78.5623 86.4264 78.2294 86.4916 77.8573L88.4174 67.4219C88.5591 66.6558 88.1093 65.9246 87.4154 65.7965L71.8188 62.9201C71.749 62.9064 71.6781 62.8993 71.607 62.8987Z" fill="#371A45"/>
<path d="M89.25 67.5735L87.3254 78.0111C87.0999 79.2354 85.9737 80.0634 84.8233 79.8516L69.2267 76.9746C68.0775 76.7628 67.3201 75.5872 67.5456 74.363L69.4703 63.926C69.6963 62.7012 70.822 61.8731 71.9728 62.0855L87.5694 64.9619C88.7197 65.1743 89.4772 66.3493 89.25 67.5735Z" fill="white"/>
<path d="M85.1869 79.9944C85.0584 79.9942 84.9302 79.9823 84.8038 79.9589L69.2072 77.0824C67.9945 76.8586 67.201 75.6299 67.4385 74.3427L69.3632 63.9057C69.6001 62.6191 70.7795 61.7544 71.99 61.9777L87.5866 64.8541C88.7993 65.078 89.5928 66.3066 89.3553 67.5938L87.4306 78.0308C87.3214 78.6421 86.9827 79.1885 86.4839 79.5583C86.1093 79.8385 85.6547 79.9914 85.1869 79.9944ZM71.6058 62.1616C70.641 62.1616 69.7681 62.9009 69.5755 63.9457L67.6508 74.3827C67.4352 75.5511 68.1505 76.6654 69.2444 76.8673L84.841 79.7438C85.1045 79.7909 85.3749 79.783 85.6352 79.7206C85.8955 79.6583 86.14 79.5428 86.3536 79.3815C86.8081 79.0451 87.1165 78.5475 87.2155 77.9909L89.1402 67.5538C89.3558 66.386 88.6406 65.2712 87.5466 65.0698L71.95 62.1927C71.8364 62.1721 71.7212 62.1617 71.6058 62.1616Z" fill="#371A45"/>
<g opacity="0.35">
<path opacity="0.35" d="M84.9882 80.3025L69.3916 77.4255C68.2424 77.2143 67.4834 76.0376 67.7099 74.8145L69.6341 64.3764C69.7231 63.8845 69.9674 63.4341 70.3313 63.0914L68.9265 70.7083C68.6999 71.932 69.407 73.0977 70.4965 73.2985L82.6739 75.5456C82.1694 74.9042 81.9428 73.9421 82.1365 72.9368C82.449 71.3317 83.7235 70.2273 84.9778 70.4741C86.2321 70.7209 87.0027 72.2193 86.6902 73.8245C86.4976 74.8145 85.9404 75.613 85.246 76.0234H85.2613C86.3509 76.2243 87.4251 75.3858 87.6522 74.1627L89.0926 66.3433C89.4094 66.8425 89.5246 67.4435 89.4149 68.0245L87.4892 78.4621C87.2659 79.6863 86.1375 80.5149 84.9882 80.3025Z" fill="#371A45"/>
</g>
<path d="M92.5817 68.1881L90.657 78.6257C90.431 79.85 89.3053 80.678 88.155 80.4662L84.8223 79.8516C85.9715 80.0634 87.0988 79.2354 87.3243 78.0111L89.249 67.5736C89.475 66.3493 88.7187 65.1743 87.5684 64.962L90.9006 65.5766C92.0509 65.7889 92.8077 66.9639 92.5817 68.1881Z" fill="white"/>
<path d="M88.5199 80.6112C88.3913 80.611 88.2631 80.5991 88.1368 80.5757L84.8057 79.9616L84.8456 79.7465H84.8484C85.1114 79.7931 85.3813 79.7849 85.6411 79.7224C85.9009 79.66 86.145 79.5447 86.3582 79.3837C86.8127 79.0474 87.1211 78.5497 87.2201 77.9931L89.1448 67.556C89.3604 66.3882 88.6452 65.2734 87.5512 65.072L87.5912 64.8563L90.9217 65.4704C92.1344 65.6942 92.9279 66.9229 92.6904 68.21L90.7658 78.6471C90.6563 79.2584 90.3175 79.8048 89.8185 80.1745C89.4435 80.4553 88.9883 80.6084 88.5199 80.6112ZM85.7644 79.9157L88.1723 80.3606C88.4359 80.4076 88.7064 80.3997 88.9667 80.3374C89.2271 80.2751 89.4718 80.1596 89.6855 79.9983C90.1398 79.6619 90.4481 79.1643 90.5469 78.6077L92.4715 68.1706L92.581 68.1903L92.4715 68.1706C92.6872 67.0028 91.9724 65.888 90.8785 65.6866L88.4706 65.2416C89.1552 65.7517 89.5295 66.6585 89.3566 67.5949L87.4319 78.0319C87.3227 78.6432 86.9841 79.1897 86.4852 79.5594C86.268 79.7195 86.0239 79.8394 85.7644 79.9135V79.9157Z" fill="#371A45"/>
<g opacity="0.35">
<path opacity="0.35" d="M88.1542 80.4667L84.8242 79.8516C85.9734 80.0639 87.1002 79.2348 87.3251 78.0111L87.7881 75.5057L89.5886 75.8341C89.8807 75.8856 90.1804 75.8738 90.4676 75.7994C90.7547 75.725 91.0225 75.5898 91.2528 75.4028L90.659 78.6224C90.4302 79.8505 89.3051 80.678 88.1542 80.4667Z" fill="#371A45"/>
</g>
<path d="M88.5224 81.2679C88.3528 81.2679 88.1836 81.2523 88.0168 81.2214L84.6846 80.6068L84.962 79.1002C85.1371 79.1305 85.3165 79.1243 85.4891 79.0821C85.6617 79.04 85.8238 78.9626 85.9651 78.855C86.2842 78.617 86.5004 78.2663 86.5698 77.8743L88.4945 67.4367C88.6439 66.6262 88.1662 65.8557 87.4301 65.7183L87.7081 64.2111L91.0403 64.8257C92.6093 65.1152 93.6392 66.6864 93.336 68.3282L91.4114 78.7658C91.2718 79.5414 90.8411 80.2343 90.2074 80.7026C89.721 81.067 89.1302 81.2652 88.5224 81.2679ZM87.4345 79.5561L88.2948 79.7148C88.4701 79.7453 88.6498 79.7392 88.8227 79.697C88.9956 79.6548 89.1579 79.5774 89.2995 79.4696C89.618 79.2315 89.8333 78.8806 89.9015 78.4889L91.83 68.0497L92.5836 68.1881L91.83 68.0497C91.98 67.2375 91.5017 66.4659 90.7634 66.3301L89.9037 66.1714C90.0661 66.6685 90.1007 67.1985 90.0044 67.7126L88.0786 78.1485C87.9854 78.6636 87.7639 79.147 87.4345 79.5539V79.5561Z" fill="#371A45"/>
<path d="M92.7991 71.1801C95.0893 71.6868 98.9332 72.2128 102.24 71.0925C102.509 71.0013 102.794 70.9734 103.075 71.011C103.356 71.0485 103.624 71.1505 103.859 71.309C104.094 71.4674 104.289 71.678 104.429 71.9243C104.569 72.1706 104.65 72.446 104.666 72.7288C104.689 73.1142 104.589 73.4968 104.382 73.8222C104.174 74.1477 103.869 74.3993 103.51 74.5414C101.555 75.3076 97.3856 76.4459 91.9087 75.1598C91.3924 75.0407 90.9425 74.7259 90.6537 74.2816C90.3649 73.8373 90.2598 73.2983 90.3606 72.7781C90.4128 72.5115 90.5179 72.2581 90.6695 72.0327C90.8211 71.8074 91.0162 71.6146 91.2434 71.4657C91.4706 71.3168 91.7253 71.2148 91.9924 71.1658C92.2596 71.1167 92.5339 71.1216 92.7991 71.1801Z" fill="white"/>
<g opacity="0.35">
<path opacity="0.35" d="M104.593 73.3577C104.514 73.6245 104.376 73.8699 104.188 74.0751C104.001 74.2803 103.769 74.44 103.51 74.542C101.556 75.3081 97.3862 76.4459 91.9082 75.1604C91.3921 75.0409 90.9425 74.7259 90.654 74.2815C90.3655 73.8371 90.2607 73.2982 90.3617 72.7781C90.3748 72.713 90.3896 72.6506 90.4077 72.5893C90.4358 72.4959 90.4702 72.4045 90.5106 72.3157C90.6301 72.6307 90.8254 72.9115 91.0792 73.1332C91.333 73.355 91.6374 73.5108 91.9657 73.587C97.4453 74.8742 101.615 73.7369 103.567 72.9685C103.979 72.8078 104.318 72.5015 104.519 72.1077C104.605 72.3045 104.654 72.5151 104.665 72.7294C104.678 72.9414 104.654 73.1541 104.593 73.3577Z" fill="#371A45"/>
</g>
<path d="M96.8301 76.5067C95.1132 76.5032 93.4025 76.3012 91.732 75.9047C91.0157 75.732 90.3961 75.2845 90.007 74.6588C89.6179 74.0331 89.4906 73.2794 89.6526 72.5606C89.8147 71.8418 90.253 71.2156 90.8728 70.8173C91.4927 70.419 92.2444 70.2806 92.9655 70.4319C94.9618 70.8736 98.7893 71.4526 101.995 70.3663C102.638 70.1493 103.341 70.192 103.953 70.4852C104.565 70.7783 105.038 71.2989 105.272 71.936C105.506 72.573 105.482 73.2763 105.206 73.896C104.929 74.5158 104.421 75.003 103.791 75.254C102.396 75.8018 99.9834 76.5067 96.8301 76.5067ZM92.3558 71.8959C92.0615 71.8971 91.7766 72.0001 91.5496 72.1876C91.3227 72.3751 91.1676 72.6354 91.1108 72.9242C91.0475 73.2499 91.1135 73.5874 91.2948 73.8652C91.4762 74.143 91.7586 74.3392 92.0822 74.4122C97.3358 75.6458 101.323 74.5764 103.231 73.8261C103.489 73.7212 103.696 73.52 103.809 73.2651C103.921 73.0101 103.93 72.7215 103.833 72.4603C103.736 72.1991 103.541 71.9858 103.29 71.8657C103.039 71.7455 102.751 71.7279 102.487 71.8165C99.1067 72.962 95.2628 72.5088 92.636 71.926C92.5439 71.9064 92.45 71.8969 92.3558 71.8975V71.8959Z" fill="#371A45"/>
<g opacity="0.35">
<path opacity="0.35" d="M67.5059 72.8947C67.5059 72.8947 65.6452 72.4979 63.8278 72.0409C63.4865 71.9554 63.1686 71.7946 62.8975 71.5703C63.7581 70.3792 64.4259 69.06 64.8763 67.6611C64.9099 67.667 64.9432 67.6749 64.9759 67.6847C66.2423 68.0382 67.6875 68.4131 68.284 68.4722L67.5059 72.8947Z" fill="#371A45"/>
</g>
<path d="M69.1407 65.5755L68.3642 69.9991C68.3642 69.9991 66.4997 69.6017 64.6861 69.1448C63.4274 68.8279 62.6657 67.5746 62.9896 66.3602C63.3109 65.148 64.5892 64.4415 65.8353 64.7885C67.1006 65.1409 68.5448 65.5169 69.1407 65.5755Z" fill="white"/>
<g opacity="0.35">
<path opacity="0.35" d="M68.3618 69.9979C68.3618 69.9979 66.5012 69.6012 64.6838 69.1442C63.4284 68.8273 62.6639 67.5757 62.9873 66.3602L63.0053 66.2989C63.1125 65.9379 63.3106 65.6104 63.5805 65.3478C63.6784 65.7675 63.8907 66.1519 64.1937 66.4584C64.4967 66.7649 64.8787 66.9815 65.2972 67.0843C66.7234 67.4438 68.1785 67.7651 68.7361 67.8871L68.3618 69.9979Z" fill="#371A45"/>
</g>
<path d="M85.1896 80.6512C85.02 80.6512 84.8507 80.6356 84.684 80.6046L69.0874 77.7282C67.519 77.4392 66.489 75.8674 66.7922 74.2256L68.7169 63.7886C69.0195 62.1468 70.5414 61.0435 72.1098 61.3335L87.7064 64.21C89.2748 64.4995 90.3048 66.0707 90.0016 67.7125L88.078 78.1485C87.9389 78.9242 87.5081 79.6173 86.8741 80.0853C86.3879 80.4499 85.7973 80.6483 85.1896 80.6512ZM71.6064 62.8183C70.9497 62.8183 70.3564 63.336 70.2218 64.065L68.2977 74.502C68.1483 75.3136 68.626 76.0853 69.3643 76.2215L84.9609 79.098C85.1363 79.1284 85.3161 79.1224 85.4891 79.0802C85.6621 79.038 85.8245 78.9606 85.9662 78.8528C86.2852 78.6148 86.5014 78.2641 86.5709 77.8721L88.4956 67.4345L89.2491 67.5735L88.4956 67.4345C88.645 66.6229 88.1672 65.8513 87.429 65.7155L71.8324 62.8385C71.7578 62.825 71.6821 62.8182 71.6064 62.8183Z" fill="#371A45"/>
<path d="M68.9799 70.9135L68.2028 70.7493C68.1842 70.7455 66.3038 70.3438 64.4974 69.8885C64.0957 69.7895 63.7179 69.6111 63.3861 69.364C63.0544 69.1168 62.7754 68.8057 62.5656 68.4492C62.3631 68.1095 62.2304 67.7329 62.1754 67.3413C62.1204 66.9498 62.144 66.5512 62.2451 66.1689C62.3461 65.7866 62.5224 65.4283 62.7637 65.115C63.005 64.8018 63.3064 64.5399 63.6502 64.3446C64.0085 64.1393 64.4042 64.0076 64.814 63.9575C65.2239 63.9073 65.6396 63.9395 66.0368 64.0524C68.2137 64.6582 68.9618 64.7906 69.2147 64.8153L70.0355 64.8968L68.9799 70.9135ZM65.1875 65.466C64.9154 65.4652 64.6478 65.5358 64.4115 65.6707C64.2435 65.7652 64.0963 65.8924 63.9784 66.0449C63.8606 66.1974 63.7746 66.372 63.7255 66.5583C63.6764 66.7447 63.6652 66.939 63.6926 67.1297C63.72 67.3205 63.7854 67.5038 63.885 67.6687C63.9921 67.8502 64.1344 68.0085 64.3036 68.1341C64.4728 68.2598 64.6654 68.3503 64.8701 68.4005C65.9399 68.6703 67.0361 68.9209 67.7448 69.0785L68.2504 66.1971C67.7442 66.0877 66.937 65.8901 65.6236 65.5251C65.4816 65.4858 65.3349 65.4659 65.1875 65.466Z" fill="#371A45"/>
<path d="M75.9667 78.5918C75.9417 78.5917 75.9168 78.5895 75.8923 78.5852C75.8373 78.5756 75.7848 78.5552 75.7378 78.5251C75.6907 78.4951 75.6501 78.4561 75.6182 78.4103C75.5863 78.3646 75.5638 78.3129 75.5519 78.2584C75.5401 78.2039 75.5391 78.1475 75.5491 78.0927L76.4515 73.0151C76.5035 72.7154 76.4359 72.4073 76.2631 72.157C76.0904 71.9067 75.8264 71.7342 75.5278 71.6764L75.3412 71.6409C74.8262 71.5409 74.3705 71.2438 74.0713 70.8128C73.7721 70.3818 73.653 69.8511 73.7394 69.3336L74.899 62.5643C74.9067 62.5081 74.9257 62.4539 74.9548 62.4052C74.9839 62.3564 75.0225 62.314 75.0683 62.2804C75.1141 62.2468 75.1662 62.2228 75.2215 62.2098C75.2768 62.1968 75.3341 62.195 75.3901 62.2046C75.446 62.2142 75.4995 62.2349 75.5473 62.2656C75.5951 62.2962 75.6363 62.3362 75.6683 62.3831C75.7004 62.43 75.7226 62.4828 75.7338 62.5385C75.7451 62.5942 75.745 62.6515 75.7336 62.7072L74.5739 69.4769C74.524 69.7757 74.5928 70.0822 74.7655 70.331C74.9383 70.5798 75.2014 70.7514 75.4988 70.809L75.6854 70.844C76.2025 70.9441 76.6597 71.2429 76.9589 71.6763C77.2581 72.1098 77.3754 72.6433 77.2856 73.1623L76.3859 78.2421C76.3684 78.3404 76.3167 78.4294 76.24 78.4933C76.1633 78.5573 76.0665 78.5922 75.9667 78.5918Z" fill="#371A45"/>
<path d="M82.6554 71.7055C82.6078 71.9506 82.5684 73.9931 82.5684 73.9931L83.9627 74.2667C84.9226 74.4533 85.894 73.61 86.132 72.3841C86.3701 71.1582 85.7856 70.0122 84.8252 69.8256L83.4308 69.5547C83.4308 69.5547 82.7331 71.3076 82.6554 71.7055Z" fill="#22A7F0"/>
<path d="M84.2264 74.8184C84.1039 74.8183 83.9816 74.8066 83.8614 74.7833L82.0303 74.4276L82.039 73.9827C82.0511 73.3549 82.085 71.8664 82.1359 71.6048C82.2185 71.179 82.8194 69.657 82.9393 69.3566L83.1034 68.9489L84.9285 69.3035C85.5556 69.4255 86.0777 69.8404 86.4017 70.4714C86.7021 71.0597 86.7913 71.7733 86.654 72.482C86.3869 73.8448 85.3422 74.8184 84.2264 74.8184ZM83.1067 73.5596L84.0633 73.7452C84.72 73.8732 85.4314 73.2034 85.6126 72.2812C85.705 71.804 85.6498 71.3328 85.4566 70.9541C85.2853 70.6191 85.0254 70.4024 84.7244 70.3439L83.7623 70.1567C83.5051 70.82 83.2151 71.5998 83.1757 71.804C83.1543 71.9495 83.1281 72.7436 83.1067 73.5585V73.5596Z" fill="#371A45"/>
<path d="M84.7452 72.1191C84.9836 70.8928 84.3985 69.7475 83.4384 69.5608C82.4783 69.3742 81.5068 70.217 81.2685 71.4433C81.0301 72.6695 81.6152 73.8149 82.5753 74.0015C83.5353 74.1881 84.5069 73.3453 84.7452 72.1191Z" fill="#22A7F0"/>
<path d="M82.8323 74.5474C82.7098 74.5474 82.5876 74.5357 82.4673 74.5124C81.8402 74.3904 81.3181 73.9755 80.9941 73.3445C80.6937 72.7568 80.6039 72.0426 80.7418 71.3339C81.0357 69.8228 82.2862 68.7912 83.5328 69.0353C84.7794 69.2794 85.5522 70.7034 85.2583 72.2139C84.9929 73.5738 83.9493 74.5474 82.8323 74.5474ZM83.1656 70.056C82.556 70.056 81.9452 70.6897 81.7811 71.5336C81.688 72.0108 81.7433 72.4826 81.937 72.8607C82.1083 73.1957 82.3683 73.4124 82.6693 73.471C83.3292 73.5985 84.0374 72.9292 84.2185 72.007C84.3997 71.0848 83.9909 70.1977 83.3303 70.0697C83.276 70.0599 83.2208 70.0554 83.1656 70.056Z" fill="#371A45"/>
<path d="M114.124 128.43C119.884 129.922 124.553 131.132 122.305 139.814C120.056 148.495 115.387 147.287 109.627 145.795C103.867 144.303 92.8993 137.312 94.1399 132.519C95.3806 127.726 108.365 126.938 114.124 128.43Z" fill="white"/>
<path d="M115.403 146.946C113.631 146.946 111.667 146.437 109.6 145.901C103.571 144.339 92.7892 137.302 94.0348 132.493C94.7949 129.559 99.6167 128.425 102.422 128.01C106.424 127.418 111.138 127.545 114.152 128.326C116.988 129.06 119.667 129.754 121.294 131.349C123.1 133.117 123.453 135.816 122.411 139.843C120.967 145.415 118.475 146.946 115.403 146.946ZM107.662 127.857C105.92 127.854 104.179 127.977 102.454 128.226C99.7015 128.633 94.9749 129.735 94.2454 132.549C93.0524 137.155 103.849 144.188 109.653 145.691C115.421 147.185 119.977 148.365 122.197 139.789C123.218 135.846 122.882 133.214 121.14 131.506C119.553 129.952 116.903 129.266 114.096 128.539C112.365 128.088 110.064 127.857 107.662 127.857Z" fill="#371A45"/>
<g opacity="0.35">
<path opacity="0.35" d="M122.304 139.814C120.055 148.497 115.385 147.287 109.626 145.796C103.868 144.304 92.8974 137.313 94.1391 132.519C94.1856 132.339 94.249 132.164 94.3285 131.996C97.4937 135.788 104.069 139.521 108.099 140.565C113.857 142.056 118.527 143.266 120.776 134.585C121.072 133.442 121.248 132.429 121.317 131.528C122.848 133.106 123.404 135.566 122.304 139.814Z" fill="#371A45"/>
</g>
<path d="M115.462 147.621C113.58 147.621 111.528 147.09 109.432 146.547C104.1 145.166 91.9197 137.999 93.3886 132.325C94.0234 129.874 97.1969 128.107 102.324 127.349C106.407 126.747 111.227 126.878 114.318 127.677C117.243 128.435 120.006 129.15 121.761 130.869C123.753 132.822 124.165 135.726 123.056 140.009C121.503 146.004 118.743 147.621 115.462 147.621ZM107.67 128.522C105.957 128.519 104.247 128.64 102.551 128.884C98.1452 129.535 95.3537 130.931 94.8924 132.712C93.8734 136.646 103.734 143.465 109.821 145.042C115.648 146.551 119.498 147.548 121.552 139.618C122.807 134.773 121.652 132.938 120.673 131.979C119.215 130.55 116.765 129.915 113.929 129.181C112.248 128.747 110.011 128.523 107.67 128.523V128.522Z" fill="#371A45"/>
<path d="M131.389 137.334C128.307 136.477 125.178 138.048 124.401 140.843C123.625 143.638 125.493 146.598 128.575 147.455C130.848 148.087 137.81 147.057 141.308 146.47C141.493 146.439 141.666 146.356 141.806 146.23C141.946 146.104 142.047 145.941 142.097 145.76C142.147 145.578 142.145 145.387 142.09 145.207C142.035 145.027 141.93 144.866 141.787 144.744C139.093 142.441 133.662 137.965 131.389 137.334Z" fill="#D73C2C"/>
<path d="M129.489 138.211C127.509 137.661 125.449 138.851 124.887 140.87C124.326 142.889 125.476 144.975 127.456 145.522C129.436 146.069 137.066 144.256 137.066 144.256C137.066 144.256 131.469 138.762 129.489 138.211Z" fill="#E5A900"/>
<path d="M128.022 139.504C126.699 139.136 125.357 139.81 125.024 141.009C124.69 142.208 125.492 143.479 126.814 143.847C128.136 144.215 133.158 143.274 133.158 143.274C133.158 143.274 129.344 139.872 128.022 139.504Z" fill="#FFFF00"/>
<path d="M131.576 148.314C130.133 148.314 128.932 148.216 128.175 147.972C124.728 146.858 122.757 143.378 123.778 140.215C124.799 137.051 128.436 135.383 131.882 136.497C134.117 137.219 138.757 141.25 142.256 144.504C142.502 144.732 142.678 145.027 142.762 145.352C142.847 145.677 142.837 146.02 142.733 146.339C142.63 146.659 142.437 146.943 142.178 147.157C141.919 147.371 141.604 147.506 141.271 147.548C138.136 147.939 134.396 148.314 131.576 148.314ZM129.703 137.704C127.674 137.704 125.85 138.851 125.256 140.692C124.497 143.041 126.022 145.643 128.653 146.494C130.14 146.974 134.786 146.792 141.08 146.006C141.12 146.002 141.158 145.985 141.189 145.96C141.22 145.934 141.243 145.9 141.256 145.861C141.268 145.823 141.269 145.782 141.259 145.743C141.249 145.704 141.228 145.668 141.198 145.641C136.554 141.321 132.892 138.456 131.405 137.975C130.855 137.797 130.281 137.705 129.703 137.704Z" fill="#371A45"/>
<path d="M123.986 145.43L126.525 136.374C126.832 135.279 125.943 134.13 124.658 133.966L122.801 133.726L119.429 145.754L121.139 146.515C122.322 147.042 123.68 146.524 123.986 145.43Z" fill="#F92323"/>
<g opacity="0.7">
<path opacity="0.7" d="M124.657 133.966L122.8 133.727L122.308 135.483L124.143 135.72C125.427 135.884 126.318 137.033 126.011 138.128L123.898 145.664C123.933 145.588 123.962 145.51 123.985 145.43L126.525 136.374C126.831 135.279 125.941 134.134 124.657 133.966Z" fill="white"/>
</g>
<g opacity="0.35">
<path opacity="0.35" d="M126.525 136.374L123.986 145.429C123.677 146.524 122.32 147.042 121.14 146.515L119.43 145.755L121.117 139.74L122.71 140.452C123.894 140.979 125.251 140.46 125.559 139.366L126.576 135.741C126.601 135.954 126.584 136.169 126.525 136.374Z" fill="#371A45"/>
</g>
<path d="M122.321 147.634C121.934 147.633 121.552 147.551 121.199 147.393L118.498 146.189L122.233 132.869L125.166 133.247C125.547 133.292 125.913 133.419 126.241 133.619C126.568 133.819 126.849 134.087 127.063 134.405C127.244 134.669 127.365 134.969 127.418 135.284C127.471 135.6 127.455 135.923 127.369 136.232L124.633 145.987C124.46 146.605 124.031 147.103 123.422 147.388C123.078 147.55 122.702 147.634 122.321 147.634ZM120.356 145.317L121.831 145.974C121.976 146.042 122.134 146.078 122.295 146.08C122.455 146.082 122.614 146.05 122.761 145.986C122.85 145.948 122.93 145.891 122.995 145.819C123.06 145.748 123.109 145.663 123.138 145.57L125.874 135.815C125.897 135.721 125.9 135.623 125.882 135.528C125.863 135.433 125.825 135.343 125.768 135.265C125.676 135.133 125.557 135.023 125.419 134.941C125.28 134.86 125.127 134.808 124.967 134.79L123.366 134.584L120.356 145.317Z" fill="#371A45"/>
<path d="M109.341 146.494C109.135 146.494 108.938 146.412 108.792 146.266C108.647 146.12 108.565 145.923 108.565 145.717V143.935C108.573 138.899 109.855 133.948 112.293 129.542L113.157 127.984C113.257 127.803 113.424 127.67 113.622 127.614C113.82 127.557 114.033 127.581 114.213 127.681C114.393 127.781 114.526 127.948 114.583 128.146C114.64 128.344 114.616 128.557 114.516 128.737L113.652 130.295C111.341 134.471 110.125 139.165 110.119 143.938V145.719C110.118 145.821 110.098 145.922 110.059 146.016C110.02 146.11 109.962 146.196 109.89 146.268C109.818 146.34 109.732 146.397 109.638 146.436C109.544 146.474 109.443 146.494 109.341 146.494Z" fill="#371A45"/>
<path d="M13.0438 159.775C13.0438 160.038 12.5064 160.269 11.7031 160.392C11.5053 160.424 11.3224 160.517 11.1807 160.658C11.0391 160.8 10.946 160.983 10.9147 161.181C10.7885 161.984 10.5601 162.522 10.2976 162.522C10.0352 162.522 9.80683 161.984 9.68055 161.181C9.6495 160.983 9.55644 160.8 9.41476 160.658C9.27308 160.516 9.0901 160.423 8.89216 160.392C8.08839 160.267 7.5498 160.038 7.5498 159.775C7.5498 159.513 8.08784 159.281 8.89106 159.158C9.08928 159.127 9.27256 159.034 9.41447 158.892C9.55637 158.75 9.64954 158.567 9.68055 158.369C9.80683 157.565 10.0352 157.027 10.2976 157.027C10.5601 157.027 10.7885 157.565 10.9147 158.369C10.9453 158.567 11.0383 158.751 11.1802 158.893C11.3221 159.036 11.5057 159.129 11.7042 159.16C12.5064 159.283 13.0438 159.512 13.0438 159.775Z" fill="white"/>
<path d="M133.536 117.757C133.472 118.042 132.832 118.162 131.926 118.106C131.703 118.092 131.481 118.15 131.292 118.27C131.104 118.39 130.958 118.567 130.877 118.775C130.547 119.62 130.167 120.151 129.881 120.088C129.596 120.025 129.476 119.384 129.532 118.478C129.545 118.255 129.488 118.033 129.368 117.845C129.247 117.656 129.071 117.51 128.862 117.429C128.017 117.099 127.484 116.719 127.545 116.433C127.605 116.147 128.251 116.025 129.156 116.082C129.379 116.096 129.602 116.039 129.79 115.919C129.979 115.798 130.125 115.621 130.207 115.413C130.536 114.567 130.917 114.037 131.202 114.1C131.488 114.163 131.608 114.804 131.551 115.711C131.538 115.934 131.595 116.156 131.716 116.345C131.836 116.533 132.013 116.679 132.222 116.76C133.069 117.09 133.599 117.469 133.536 117.757Z" fill="white"/>
<path d="M152 20.6826C152 21.0274 151.293 21.3277 150.237 21.4936C149.977 21.5345 149.736 21.6568 149.55 21.8431C149.363 22.0293 149.241 22.2699 149.2 22.5301C149.035 23.586 148.733 24.2931 148.388 24.2931C148.044 24.2931 147.743 23.586 147.578 22.5301C147.536 22.27 147.414 22.0295 147.228 21.8433C147.041 21.6571 146.801 21.5346 146.54 21.4936C145.484 21.3288 144.775 21.0274 144.775 20.6826C144.775 20.3378 145.481 20.0325 146.537 19.8678C146.798 19.8269 147.038 19.7044 147.225 19.5181C147.411 19.3318 147.534 19.0911 147.575 18.8307C147.74 17.7738 148.042 17.0666 148.386 17.0666C148.731 17.0666 149.032 17.7738 149.198 18.8307C149.239 19.0911 149.361 19.3318 149.548 19.5181C149.734 19.7045 149.975 19.8269 150.235 19.8678C151.291 20.0325 152 20.3356 152 20.6826Z" fill="white"/>
<path d="M128.704 72.8629C129.1 72.4673 129.1 71.8259 128.704 71.4303C128.309 71.0347 127.667 71.0347 127.272 71.4303C126.876 71.8259 126.876 72.4673 127.272 72.8629C127.668 73.2585 128.309 73.2585 128.704 72.8629Z" fill="white"/>
<path d="M9.53297 45.3296C9.73933 44.5674 9.28878 43.7823 8.52664 43.5759C7.76451 43.3696 6.9794 43.8201 6.77305 44.5823C6.5667 45.3445 7.01725 46.1296 7.77938 46.336C8.54151 46.5423 9.32662 46.0918 9.53297 45.3296Z" fill="white"/>
<path d="M132.984 2.14887C133.379 1.75327 133.379 1.11189 132.984 0.716292C132.588 0.320697 131.947 0.320694 131.551 0.71629C131.156 1.11189 131.156 1.75328 131.551 2.14888C131.947 2.54447 132.588 2.54446 132.984 2.14887Z" fill="white"/>
<path d="M32.9398 6.47066C33.7211 6.35695 34.2624 5.63134 34.1487 4.84997C34.0349 4.06859 33.3094 3.52734 32.528 3.64105C31.7467 3.75476 31.2055 4.48038 31.3192 5.26175C31.4329 6.04313 32.1585 6.58438 32.9398 6.47066Z" fill="white"/>
<path d="M1.82897 150.894C2.45724 150.894 2.96655 150.385 2.96655 149.756C2.96655 149.128 2.45724 148.619 1.82897 148.619C1.20071 148.619 0.691406 149.128 0.691406 149.756C0.691406 150.385 1.20071 150.894 1.82897 150.894Z" fill="white"/>
<path d="M148.475 59.3803C148.763 59.3803 148.996 59.1471 148.996 58.8593C148.996 58.5715 148.763 58.3382 148.475 58.3382C148.187 58.3382 147.954 58.5715 147.954 58.8593C147.954 59.1471 148.187 59.3803 148.475 59.3803Z" fill="white"/>
<path d="M104.812 167.483C104.999 167.198 104.919 166.815 104.634 166.628C104.348 166.441 103.965 166.521 103.779 166.807C103.592 167.092 103.672 167.475 103.957 167.662C104.243 167.849 104.625 167.769 104.812 167.483Z" fill="white"/>
<path d="M43.9231 31.5114C44.2527 31.2743 44.3277 30.8149 44.0906 30.4853C43.8535 30.1557 43.3941 30.0807 43.0645 30.3178C42.735 30.5549 42.66 31.0143 42.8971 31.3439C43.1342 31.6735 43.5935 31.7485 43.9231 31.5114Z" fill="white"/>
<path d="M18.608 61.5891C18.6153 61.7343 18.5794 61.8784 18.5048 62.0032C18.4302 62.128 18.3203 62.2279 18.189 62.2903C18.0576 62.3526 17.9107 62.3746 17.7669 62.3534C17.623 62.3323 17.4887 62.2689 17.3809 62.1714C17.273 62.074 17.1965 61.9467 17.1609 61.8057C17.1254 61.6647 17.1325 61.5163 17.1813 61.3794C17.2301 61.2424 17.3184 61.123 17.435 61.0362C17.5517 60.9494 17.6914 60.8992 17.8366 60.8918C17.9331 60.887 18.0295 60.9011 18.1205 60.9335C18.2115 60.9659 18.2951 61.0159 18.3668 61.0807C18.4384 61.1454 18.4966 61.2237 18.538 61.3109C18.5794 61.3981 18.6032 61.4927 18.608 61.5891Z" fill="white"/>
<path d="M2.4174 101.626C2.9265 101.213 3.0044 100.465 2.5914 99.9563C2.17841 99.4472 1.4309 99.3692 0.921805 99.7823C0.412706 100.195 0.334795 100.943 0.747792 101.452C1.16079 101.961 1.9083 102.039 2.4174 101.626Z" fill="white"/>
</svg>
