<svg width="144" height="180" viewBox="0 0 144 180" fill="none" xmlns="http://www.w3.org/2000/svg">
<path d="M12.356 159.553C12.356 159.799 11.8468 160.017 11.0859 160.132C10.8984 160.162 10.7251 160.249 10.5909 160.382C10.4568 160.515 10.3685 160.686 10.339 160.872C10.2193 161.626 10.003 162.13 9.75434 162.13C9.50573 162.13 9.28935 161.626 9.16973 160.872C9.14031 160.686 9.05214 160.515 8.91792 160.382C8.7837 160.249 8.61035 160.161 8.42283 160.132C7.66137 160.014 7.15112 159.799 7.15112 159.553C7.15112 159.307 7.66084 159.089 8.42179 158.973C8.60957 158.944 8.78321 158.857 8.91764 158.724C9.05208 158.591 9.14035 158.419 9.16973 158.233C9.28935 157.479 9.50573 156.974 9.75434 156.974C10.003 156.974 10.2193 157.479 10.339 158.233C10.3679 158.419 10.456 158.592 10.5904 158.725C10.7249 158.859 10.8988 158.947 11.0869 158.976C11.8468 159.091 12.356 159.306 12.356 159.553Z" fill="white"/>
<path d="M126.507 120.119C126.447 120.387 125.84 120.499 124.982 120.447C124.77 120.434 124.56 120.488 124.382 120.601C124.203 120.713 124.065 120.879 123.988 121.075C123.676 121.868 123.315 122.366 123.045 122.307C122.774 122.248 122.661 121.646 122.714 120.796C122.727 120.586 122.672 120.378 122.558 120.201C122.444 120.024 122.277 119.888 122.08 119.811C121.279 119.502 120.774 119.145 120.831 118.876C120.889 118.608 121.5 118.494 122.358 118.547C122.57 118.56 122.78 118.507 122.959 118.394C123.138 118.281 123.276 118.115 123.353 117.919C123.665 117.125 124.026 116.627 124.296 116.687C124.567 116.746 124.681 117.348 124.627 118.199C124.614 118.408 124.669 118.616 124.783 118.794C124.897 118.971 125.065 119.107 125.262 119.184C126.065 119.493 126.567 119.849 126.507 120.119Z" fill="white"/>
<path d="M144 29.015C144 29.3386 143.33 29.6204 142.33 29.776C142.084 29.8144 141.856 29.9293 141.679 30.1041C141.503 30.2789 141.387 30.5046 141.348 30.7489C141.192 31.7397 140.906 32.4034 140.579 32.4034C140.252 32.4034 139.967 31.7397 139.811 30.7489C139.772 30.5047 139.656 30.279 139.479 30.1042C139.303 29.9295 139.075 29.8146 138.828 29.776C137.827 29.6214 137.156 29.3386 137.156 29.015C137.156 28.6914 137.824 28.4049 138.825 28.2503C139.072 28.2118 139.3 28.0969 139.477 27.9221C139.653 27.7472 139.77 27.5213 139.809 27.2769C139.965 26.285 140.25 25.6213 140.577 25.6213C140.904 25.6213 141.189 26.285 141.346 27.2769C141.384 27.5213 141.501 27.7472 141.677 27.9221C141.854 28.097 142.082 28.2119 142.329 28.2503C143.328 28.4049 144 28.6893 144 29.015Z" fill="white"/>
<path d="M121.931 77.9863C122.306 77.6148 122.306 77.0127 121.931 76.6412C121.556 76.2698 120.948 76.2698 120.573 76.6412C120.198 77.0127 120.198 77.6148 120.573 77.9863C120.948 78.3577 121.556 78.3577 121.931 77.9863Z" fill="white"/>
<path d="M126.474 143.788C126.524 143.301 126.166 142.865 125.673 142.816C125.181 142.766 124.742 143.121 124.692 143.609C124.642 144.096 125 144.532 125.492 144.581C125.985 144.631 126.424 144.276 126.474 143.788Z" fill="white"/>
<path d="M96.7479 140.795C97.3558 140.638 97.72 140.023 97.5615 139.421C97.4029 138.818 96.7816 138.458 96.1737 138.615C95.5658 138.772 95.2015 139.387 95.3601 139.99C95.5187 140.592 96.14 140.953 96.7479 140.795Z" fill="white"/>
<path d="M9.03089 52.1461C9.22638 51.4308 8.79955 50.694 8.07753 50.5003C7.35551 50.3066 6.61172 50.7295 6.41622 51.4448C6.22073 52.1601 6.64757 52.8969 7.36959 53.0906C8.09161 53.2842 8.8354 52.8614 9.03089 52.1461Z" fill="white"/>
<path d="M125.985 11.6213C126.359 11.2499 126.359 10.6477 125.985 10.2763C125.61 9.90492 125.002 9.90492 124.627 10.2763C124.252 10.6477 124.252 11.2499 124.627 11.6214C125.002 11.9928 125.61 11.9928 125.985 11.6213Z" fill="white"/>
<path d="M31.2057 15.6771C31.9459 15.5703 32.4587 14.8894 32.351 14.156C32.2432 13.4227 31.5558 12.9148 30.8156 13.0215C30.0754 13.1282 29.5627 13.8092 29.6704 14.5425C29.7781 15.2758 30.4655 15.7838 31.2057 15.6771Z" fill="white"/>
<path d="M1.73273 151.218C2.32792 151.218 2.81042 150.74 2.81042 150.15C2.81042 149.561 2.32792 149.083 1.73273 149.083C1.13753 149.083 0.655029 149.561 0.655029 150.15C0.655029 150.74 1.13753 151.218 1.73273 151.218Z" fill="white"/>
<path d="M140.66 65.3335C140.933 65.3335 141.154 65.1144 141.154 64.8441C141.154 64.5738 140.933 64.3547 140.66 64.3547C140.388 64.3547 140.167 64.5738 140.167 64.8441C140.167 65.1144 140.388 65.3335 140.66 65.3335Z" fill="white"/>
<path d="M99.2959 166.787C99.473 166.519 99.3972 166.159 99.1268 165.984C98.8563 165.809 98.4935 165.884 98.3164 166.152C98.1394 166.42 98.2151 166.779 98.4856 166.955C98.7561 167.13 99.1189 167.055 99.2959 166.787Z" fill="white"/>
<path d="M41.6115 39.1782C41.9239 38.9556 41.9949 38.5243 41.7701 38.2148C41.5454 37.9053 41.11 37.8349 40.7977 38.0574C40.4854 38.28 40.4144 38.7114 40.6391 39.0209C40.8638 39.3303 41.2992 39.4008 41.6115 39.1782Z" fill="white"/>
<path d="M17.6291 67.4056C17.636 67.5419 17.602 67.6772 17.5313 67.7943C17.4606 67.9114 17.3565 68.0052 17.2321 68.0637C17.1076 68.1222 16.9685 68.1428 16.8322 68.1229C16.6959 68.1031 16.5687 68.0437 16.4665 67.9522C16.3643 67.8607 16.2918 67.7412 16.2582 67.6089C16.2245 67.4766 16.2312 67.3373 16.2774 67.2088C16.3237 67.0803 16.4073 66.9682 16.5178 66.8867C16.6283 66.8053 16.7607 66.7581 16.8983 66.7512C16.9897 66.7467 17.081 66.76 17.1672 66.7904C17.2534 66.8208 17.3327 66.8677 17.4005 66.9285C17.4684 66.9892 17.5235 67.0627 17.5627 67.1445C17.6019 67.2264 17.6245 67.3151 17.6291 67.4056Z" fill="white"/>
<path d="M11.8704 113.592C11.8703 113.701 11.8376 113.807 11.7766 113.898C11.7156 113.988 11.6289 114.058 11.5275 114.1C11.4261 114.141 11.3146 114.152 11.2071 114.131C11.0995 114.11 11.0008 114.057 10.9233 113.98C10.8459 113.903 10.7932 113.805 10.772 113.698C10.7507 113.592 10.7619 113.481 10.804 113.381C10.8462 113.28 10.9174 113.195 11.0087 113.134C11.1 113.074 11.2073 113.042 11.317 113.042C11.4639 113.043 11.6046 113.101 11.7084 113.204C11.8121 113.307 11.8704 113.447 11.8704 113.592Z" fill="white"/>
<path d="M2.28992 104.98C2.77223 104.593 2.84603 103.891 2.45477 103.413C2.06351 102.935 1.35535 102.862 0.873045 103.25C0.390741 103.637 0.316931 104.339 0.70819 104.817C1.09945 105.295 1.80762 105.368 2.28992 104.98Z" fill="white"/>
<path d="M91.39 89.9588C91.2521 89.9588 91.1198 89.9045 91.0222 89.8079C90.9247 89.7112 90.8699 89.5802 90.8699 89.4435V67.4294C90.8699 67.2927 90.9247 67.1616 91.0222 67.065C91.1198 66.9684 91.2521 66.9141 91.39 66.9141C91.5279 66.9141 91.6602 66.9684 91.7578 67.065C91.8553 67.1616 91.9101 67.2927 91.9101 67.4294V89.4435C91.9101 89.5802 91.8553 89.7112 91.7578 89.8079C91.6602 89.9045 91.5279 89.9588 91.39 89.9588Z" fill="#371A45"/>
<path d="M89.2841 89.0411C89.1608 89.041 89.0416 88.9975 88.9477 88.9184C88.8538 88.8394 88.7912 88.7298 88.7713 88.6093L83.4285 56.5076C83.4061 56.3727 83.4387 56.2345 83.5191 56.1234C83.5996 56.0123 83.7212 55.9375 83.8574 55.9152C83.9935 55.893 84.133 55.9253 84.2451 56.005C84.3573 56.0847 84.4329 56.2052 84.4553 56.3401L89.7975 88.4418C89.8199 88.5766 89.7873 88.7147 89.7069 88.8258C89.6265 88.9368 89.505 89.0116 89.3689 89.0339C89.3409 89.0388 89.3125 89.0412 89.2841 89.0411Z" fill="#371A45"/>
<path d="M92.8094 91.3006C92.7773 91.3007 92.7452 91.2978 92.7137 91.2918C92.5781 91.2668 92.4581 91.1894 92.3801 91.0768C92.302 90.9641 92.2724 90.8253 92.2976 90.691L99.6262 51.7361C99.6383 51.6692 99.6637 51.6054 99.7009 51.5483C99.738 51.4912 99.7862 51.442 99.8427 51.4034C99.8991 51.3648 99.9627 51.3376 100.03 51.3235C100.097 51.3094 100.166 51.3085 100.233 51.321C100.301 51.3334 100.365 51.359 100.423 51.3961C100.48 51.4333 100.529 51.4814 100.568 51.5375C100.607 51.5937 100.634 51.6568 100.647 51.7234C100.661 51.7899 100.662 51.8585 100.649 51.9252L93.3202 90.8801C93.2979 90.9982 93.2346 91.1048 93.1413 91.1816C93.0481 91.2584 92.9307 91.3005 92.8094 91.3006Z" fill="#371A45"/>
<path d="M49.5526 116.586L49.3913 119.935L49.3097 121.643L47.8944 151.083C47.8944 151.083 45.8737 150.873 43.1868 150.377C42.6609 150.279 42.1101 150.17 41.5437 150.052C37.3224 149.163 32.2517 147.633 30.5483 145.225C27.9996 141.625 29.4367 125.699 32.8259 119.719C34.3785 116.977 40.6433 116.449 45.0488 116.432C45.5414 116.429 46.011 116.432 46.4474 116.442C48.2887 116.48 49.5526 116.586 49.5526 116.586Z" fill="white"/>
<g opacity="0.35">
<path opacity="0.35" d="M49.3895 119.937L49.3078 121.645L48.1843 145.021L47.8925 151.085L47.7703 151.072L47.6918 151.062L47.6179 151.054C47.5981 151.054 47.5784 151.049 47.5586 151.047C47.5513 151.047 47.542 151.047 47.5347 151.044C47.4983 151.04 47.4577 151.036 47.4156 151.029C47.4058 151.029 47.3961 151.028 47.3865 151.026L47.2762 151.013C47.2242 151.007 47.169 150.999 47.1118 150.992C47.0707 150.986 47.0271 150.981 46.9834 150.976L46.8461 150.958C46.7873 150.95 46.7249 150.941 46.6619 150.934C46.5335 150.916 46.3972 150.898 46.2536 150.877C46.1272 150.86 45.9936 150.841 45.8552 150.82C45.695 150.796 45.5275 150.772 45.3538 150.745C44.712 150.647 43.9776 150.525 43.1849 150.379C43.0289 150.35 42.8728 150.32 42.7168 150.29L42.3797 150.225C42.1067 150.173 41.8258 150.114 41.5434 150.054C37.3205 149.165 32.2514 147.635 30.5495 145.227C28.4519 142.263 29.0526 130.941 31.2257 123.696C30.226 130.101 30.2728 137.08 31.854 139.314C32.6342 140.418 34.2382 141.342 36.1606 142.106C36.9798 142.431 37.8313 141.73 37.683 140.869C37.683 140.862 37.6804 140.855 37.6794 140.849C37.4136 139.269 37.3392 137.485 37.5691 135.422C38.0611 131 39.4025 124.709 44.8233 120.095C44.9492 119.985 46.9594 119.955 49.3895 119.937Z" fill="#371A45"/>
</g>
<path d="M48.685 151.997L47.8086 151.906C47.211 151.844 33.1453 150.336 29.8643 145.701C27.9321 142.97 28.4303 135.514 28.6295 133.294C29.0332 128.782 30.1566 122.74 32.0972 119.317C34.7426 114.65 48.1061 115.636 49.6212 115.762L50.4207 115.829L48.685 151.997ZM45.3172 117.25C40.7604 117.25 34.871 117.797 33.5515 120.125C30.1057 126.205 29.0618 141.688 31.2302 144.755C33.4313 147.867 42.7275 149.617 47.1059 150.166L48.6824 117.352C47.7483 117.29 46.5837 117.25 45.3172 117.25Z" fill="#371A45"/>
<path d="M32.0698 133.482L37.837 134.453C38.0874 134.495 38.3167 134.617 38.4888 134.802C38.6609 134.987 38.7661 135.224 38.7878 135.474C38.9511 137.362 39.0998 141.742 37.1421 143.001C35.5172 144.047 33.0742 143.679 31.7489 142.339C30.2671 140.839 30.5115 136.581 30.7362 134.482C30.7524 134.327 30.8005 134.178 30.8774 134.042C30.9544 133.907 31.0587 133.789 31.1838 133.695C31.3088 133.601 31.452 133.534 31.6044 133.497C31.7569 133.46 31.9153 133.455 32.0698 133.482Z" fill="white"/>
<g opacity="0.35">
<path opacity="0.35" d="M38.7882 135.475C38.952 137.362 39.1002 141.742 37.142 143.001C35.5166 144.047 33.0746 143.679 31.7488 142.338C30.8381 141.415 30.5796 139.45 30.5681 137.585C30.7424 138.532 31.082 139.32 31.5465 139.859C34.2074 142.951 36.7071 139.829 36.7071 139.829C36.7071 139.829 37.0099 140.671 37.3079 140.745C38.5562 141.054 38.6633 137.11 38.6722 135.068C38.7368 135.195 38.7762 135.333 38.7882 135.475Z" fill="#371A45"/>
</g>
<path d="M34.9507 144.429C33.5552 144.429 32.1326 143.906 31.1538 142.916C29.5414 141.287 29.5877 137.383 29.9055 134.395C29.934 134.128 30.0174 133.87 30.1504 133.637C30.2835 133.404 30.4633 133.2 30.6789 133.038C30.8945 132.876 31.1413 132.76 31.404 132.696C31.6668 132.633 31.9399 132.623 32.2065 132.668L37.9736 133.639C38.4057 133.712 38.8012 133.925 39.0981 134.244C39.3951 134.563 39.5767 134.971 39.6146 135.404C39.8284 137.877 39.8497 142.24 37.5924 143.693C36.8247 144.188 35.8937 144.429 34.9507 144.429ZM31.8762 134.29C31.808 134.29 31.7418 134.313 31.6874 134.353C31.6532 134.379 31.6247 134.411 31.6036 134.449C31.5826 134.486 31.5695 134.527 31.5652 134.569C31.1829 138.133 31.4815 140.889 32.3454 141.762C33.4215 142.848 35.45 143.105 36.6889 142.309C37.7729 141.612 38.2592 139.02 37.9586 135.545C37.9527 135.476 37.9239 135.412 37.8768 135.361C37.8297 135.311 37.767 135.277 37.6985 135.266L31.9308 134.294C31.9128 134.291 31.8945 134.29 31.8762 134.29Z" fill="#371A45"/>
<path d="M33.9978 143.062C34.053 143.044 34.1067 143.023 34.1586 142.997C34.2205 142.967 34.2834 142.936 34.3453 142.899C34.4723 142.826 34.594 142.745 34.7094 142.655C34.9502 142.472 35.169 142.261 35.3616 142.029C35.7647 141.544 36.0799 140.994 36.2932 140.403C36.5142 139.804 36.6536 139.167 36.7613 138.515C36.8591 137.868 36.9459 137.209 36.87 136.551C37.0323 137.197 37.0328 137.874 37.0203 138.539C36.9995 139.204 36.9444 139.879 36.793 140.549C36.6418 141.233 36.372 141.886 35.9956 142.479C35.802 142.786 35.5739 143.071 35.3158 143.327C35.1841 143.459 35.0434 143.582 34.8945 143.695C34.8207 143.754 34.7385 143.809 34.6589 143.862C34.5679 143.922 34.4725 143.975 34.3734 144.021L34.3292 144.041C34.2666 144.07 34.1989 144.086 34.13 144.089C34.061 144.092 33.9921 144.082 33.9273 144.058C33.8625 144.035 33.8029 143.999 33.7521 143.953C33.7012 143.907 33.66 143.851 33.6309 143.789C33.6018 143.727 33.5852 143.66 33.5823 143.592C33.5793 143.523 33.5899 143.455 33.6136 143.391C33.6372 143.327 33.6734 143.268 33.7201 143.217C33.7667 143.167 33.8229 143.126 33.8855 143.097C33.9216 143.081 33.9592 143.07 33.9978 143.062Z" fill="#371A45"/>
<path d="M41.5624 120.511C40.8649 120.408 40.1533 120.321 39.4475 120.246C38.7417 120.17 38.0328 120.107 37.3275 120.064C36.6222 120.021 35.9175 119.99 35.222 119.996C34.5266 120.002 33.837 120.031 33.1977 120.131C33.0896 120.148 32.9792 120.144 32.8727 120.119C32.7663 120.093 32.666 120.047 32.5774 119.983C32.4889 119.92 32.4139 119.839 32.3568 119.747C32.2996 119.654 32.2614 119.552 32.2443 119.444C32.2273 119.337 32.2316 119.228 32.2572 119.122C32.2829 119.017 32.3292 118.918 32.3935 118.83C32.4579 118.742 32.5391 118.668 32.6325 118.611C32.7258 118.555 32.8295 118.517 32.9377 118.5C32.9637 118.496 32.9897 118.493 33.0167 118.491C33.8052 118.443 34.5506 118.485 35.2897 118.547C36.0288 118.609 36.7517 118.709 37.4742 118.821C38.1966 118.933 38.9071 119.064 39.6171 119.207C40.3271 119.35 41.0308 119.503 41.7402 119.676C41.848 119.702 41.9417 119.768 42.0016 119.86C42.0616 119.952 42.0832 120.064 42.062 120.172C42.0408 120.279 41.9783 120.375 41.8878 120.438C41.7972 120.501 41.6854 120.528 41.5759 120.511L41.5624 120.511Z" fill="#371A45"/>
<path d="M95.971 22.9527C95.9467 23.0069 95.9278 23.0634 95.9148 23.1214L95.971 22.9527Z" fill="#D66B09"/>
<path d="M97.0197 41.025L99.3264 43.8297C99.4769 44.0122 99.5762 44.2307 99.6144 44.4633C99.6525 44.6959 99.6282 44.9343 99.5439 45.1547C99.4595 45.375 99.3181 45.5694 99.1339 45.7185C98.9496 45.8675 98.729 45.9658 98.4942 46.0036L94.8887 46.5807C94.6538 46.6183 94.413 46.594 94.1906 46.5102C93.9682 46.4263 93.772 46.286 93.6217 46.1032C93.4714 45.9204 93.3723 45.7016 93.3344 45.4689C93.2965 45.2361 93.3212 44.9976 93.4059 44.7773L94.7062 41.3955C94.7913 41.1762 94.933 40.9828 95.1171 40.8347C95.3012 40.6866 95.5213 40.589 95.7554 40.5515C95.9896 40.514 96.2295 40.538 96.4514 40.6211C96.6732 40.7042 96.8692 40.8435 97.0197 41.025Z" fill="#E25A5A"/>
<g opacity="0.35">
<path opacity="0.35" d="M97.1243 40.9941L99.4487 43.7848C99.6002 43.9667 99.7007 44.1848 99.7401 44.4173C99.7795 44.6498 99.7564 44.8885 99.6732 45.1093C99.5899 45.3302 99.4495 45.5254 99.2659 45.6755C99.0823 45.8255 98.8621 45.925 98.6274 45.964L95.0261 46.5627C94.7914 46.6018 94.5505 46.5789 94.3275 46.4965C94.1046 46.414 93.9074 46.2749 93.756 46.0931C93.6045 45.9112 93.5041 45.6931 93.4647 45.4606C93.4254 45.228 93.4485 44.9894 93.5318 44.7685L94.8087 41.379C94.892 41.1583 95.0325 40.9631 95.216 40.8131C95.3996 40.6632 95.6197 40.5637 95.8544 40.5247C96.089 40.4857 96.3299 40.5085 96.5528 40.5909C96.7757 40.6733 96.9728 40.8124 97.1243 40.9941Z" fill="#371A45"/>
</g>
<path d="M94.6599 47.4897C94.2955 47.4877 93.9371 47.3984 93.6152 47.2293C93.2933 47.0603 93.0175 46.8165 92.8114 46.5188C92.6053 46.2212 92.4751 45.8785 92.4318 45.5201C92.3885 45.1618 92.4334 44.7983 92.5628 44.4609L93.8631 41.0791C94.0035 40.7126 94.239 40.3891 94.5457 40.1413C94.8523 39.8935 95.2195 39.73 95.6102 39.6674C96.0008 39.6047 96.4013 39.645 96.7713 39.7843C97.1412 39.9236 97.4676 40.1569 97.7177 40.4608L100.025 43.2654C100.275 43.5693 100.44 43.9331 100.503 44.3202C100.566 44.7072 100.525 45.1039 100.385 45.4704C100.244 45.8368 100.008 46.1601 99.7015 46.4078C99.3947 46.6554 99.0275 46.8187 98.6368 46.8811L95.0318 47.4583C94.9089 47.4787 94.7845 47.4893 94.6599 47.4897ZM95.9706 41.4213C95.9454 41.4211 95.9201 41.423 95.8952 41.4269C95.8159 41.4389 95.7412 41.4716 95.679 41.5218C95.6168 41.572 95.5693 41.6378 95.5415 41.7124L94.2438 45.0942C94.2151 45.1683 94.2066 45.2487 94.2193 45.3271C94.232 45.4056 94.2654 45.4793 94.316 45.5409C94.3667 45.6025 94.4328 45.6497 94.5078 45.6779C94.5828 45.706 94.664 45.714 94.7431 45.7012L98.3481 45.124C98.4272 45.1115 98.5016 45.0785 98.5637 45.0284C98.6259 44.9783 98.6736 44.9129 98.7021 44.8387C98.7307 44.7646 98.739 44.6843 98.7262 44.6059C98.7135 44.5275 98.6801 44.4539 98.6295 44.3924L96.3222 41.5877C96.2803 41.5352 96.2269 41.4929 96.1659 41.464C96.105 41.4352 96.0382 41.4206 95.9706 41.4213Z" fill="#371A45"/>
<path d="M74.8309 22.9978C77.0013 33.1142 89.6877 43.5573 96.1409 42.199C102.594 40.8408 109.895 26.1868 107.724 16.0709C105.553 5.95499 96.4306 -0.695172 87.3471 1.21805C78.2637 3.13127 72.6599 12.8819 74.8309 22.9978Z" fill="#00D7ED"/>
<g opacity="0.7">
<path opacity="0.7" d="M74.8309 22.9983C74.8376 23.0282 74.8439 23.0581 74.8506 23.0885C73.8385 13.7738 79.2717 5.23104 87.7117 3.45643C96.7057 1.56278 105.74 8.06351 108.022 18.013C107.96 17.3616 107.86 16.7142 107.724 16.074C105.553 5.95758 96.4306 -0.692581 87.3471 1.22013C78.2637 3.13283 72.6599 12.8819 74.8309 22.9983Z" fill="white"/>
</g>
<g opacity="0.35">
<path opacity="0.35" d="M74.8312 22.9976C77.0022 33.114 89.6881 43.5571 96.1407 42.1988C102.593 40.8406 109.895 26.1856 107.724 16.0707C107.704 15.9769 107.684 15.8852 107.663 15.794C107.503 23.9034 100.732 33.94 94.9907 35.1488C88.5381 36.5081 76.3099 28.1988 74.5087 19.8059C74.4567 19.5591 74.4099 19.3108 74.3699 19.065C74.398 20.3873 74.5524 21.7041 74.8312 22.9976Z" fill="#371A45"/>
</g>
<path d="M94.9694 43.2036C91.7103 43.2036 87.3849 41.1425 83.2858 37.5696C78.4731 33.3732 74.9836 27.9947 73.9511 23.1825C71.6808 12.6024 77.6061 2.35816 87.1597 0.346C96.7133 -1.66615 106.333 5.30451 108.603 15.8837C109.636 20.6958 108.655 27.0136 105.984 32.7883C103.374 38.4249 99.6739 42.3637 96.3274 43.0686C95.8807 43.1604 95.4256 43.2056 94.9694 43.2036ZM90.4791 1.78105C89.4888 1.78177 88.5012 1.88539 87.5326 2.09021C78.9506 3.89832 73.6453 13.1949 75.7092 22.8141C77.6565 31.8902 88.6873 41.4326 94.895 41.4331C95.2503 41.4354 95.6049 41.4009 95.9529 41.3301C101.868 40.0841 108.908 25.8764 106.844 16.2583C105.017 7.73919 98.0178 1.78105 90.4791 1.78105Z" fill="#371A45"/>
<g opacity="0.5">
<path opacity="0.5" d="M88.7528 6.16295C84.275 6.56023 81.4138 8.37864 79.4743 11.4023C77.4172 14.6078 78.5162 17.2275 81.0045 16.8292C83.4928 16.4309 83.8652 12.4565 89.4237 9.78328C93.0152 8.05505 92.287 5.84915 88.7528 6.16295Z" fill="white"/>
</g>
<path d="M83.1668 39.8662C83.1421 39.9203 83.1231 39.9768 83.1101 40.0348L83.1668 39.8662Z" fill="#D66B09"/>
<path d="M62.029 39.9105C64.1995 50.0264 76.8863 60.47 83.339 59.1112C89.7917 57.7525 97.0932 43.099 94.9227 32.9831C92.7522 22.8672 83.6266 16.2175 74.5432 18.1303C65.4597 20.043 59.8564 29.7961 62.029 39.9105Z" fill="#FF2222"/>
<g opacity="0.7">
<path opacity="0.7" d="M62.029 39.9105C62.0358 39.9409 62.0426 39.9708 62.0488 40.0007C61.0372 30.6865 66.4698 22.1432 74.9104 20.3686C83.9039 18.475 92.9379 24.9752 95.2208 34.9247C95.1585 34.2732 95.0588 33.6259 94.9222 32.9857C92.7512 22.8693 83.6288 16.2196 74.5453 18.1323C65.4618 20.045 59.8559 29.7961 62.029 39.9105Z" fill="white"/>
</g>
<g opacity="0.35">
<path opacity="0.35" d="M62.2883 37.8494C64.4593 47.9658 77.1451 58.4089 83.5977 57.0511C90.0504 55.6934 97.3524 41.0374 95.1814 30.9225C95.1617 30.8292 95.1414 30.7375 95.1201 30.6458C94.9599 38.7557 88.1889 48.7918 82.4478 50.0011C75.9956 51.3599 63.767 43.0521 61.9663 34.6582C61.9143 34.4114 61.8675 34.1631 61.8269 33.9173C61.855 35.2395 62.0095 36.556 62.2883 37.8494Z" fill="#371A45"/>
</g>
<path d="M82.1643 60.1166C78.9057 60.1166 74.5798 58.0555 70.4807 54.4825C65.6686 50.2861 62.179 44.9077 61.1461 40.0955C60.0507 34.9896 60.809 29.8075 63.2822 25.5034C65.7752 21.1658 69.7078 18.238 74.3552 17.2589C79.0025 16.2799 83.7975 17.3708 87.8555 20.3284C91.8823 23.2655 94.7029 27.6917 95.7988 32.7981C96.8313 37.6103 95.8508 43.9281 93.1785 49.7028C90.5685 55.3389 86.8688 59.2782 83.5229 59.9826C83.076 60.0742 82.6206 60.1191 82.1643 60.1166ZM77.698 18.6914C76.7002 18.6912 75.7051 18.7948 74.7291 19.0006C70.5905 19.8719 67.0802 22.4942 64.8468 26.384C62.5915 30.3078 61.9029 35.0453 62.9067 39.7245C64.854 48.8001 75.8848 58.3425 82.093 58.3435C82.4482 58.3457 82.8026 58.3112 83.1505 58.2404C89.0658 56.9945 96.1052 42.7868 94.0413 33.1681C93.0375 28.4894 90.4629 24.4393 86.7913 21.7635C84.017 19.7421 80.8702 18.6914 77.698 18.6914Z" fill="#371A45"/>
<g opacity="0.5">
<path opacity="0.5" d="M75.9478 22.5606C71.47 22.9579 68.6088 24.7794 66.6698 27.8004C64.6122 31.0055 65.7117 33.6231 68.2 33.2268C70.6883 32.8306 71.0607 28.8547 76.6188 26.1809C80.2107 24.4532 79.482 22.2468 75.9478 22.5606Z" fill="white"/>
</g>
<path d="M106.676 40.1831C106.628 40.2186 106.584 40.259 106.545 40.3037L106.676 40.1831Z" fill="#D66B09"/>
<path d="M98.8179 56.5261L99.479 60.0815C99.522 60.3133 99.5027 60.5523 99.423 60.7744C99.3433 60.9965 99.206 61.1939 99.0249 61.3467C98.8437 61.4996 98.6252 61.6025 98.3912 61.6451C98.1572 61.6878 97.916 61.6687 97.6918 61.5897L94.2507 60.3778C94.0265 60.2988 93.8273 60.1628 93.673 59.9834C93.5187 59.804 93.4148 59.5875 93.3718 59.3557C93.3287 59.1239 93.348 58.8849 93.4277 58.6628C93.5074 58.4407 93.6447 58.2433 93.8257 58.0905L96.6058 55.7439C96.7871 55.591 97.0059 55.4881 97.2401 55.4456C97.4743 55.4031 97.7157 55.4225 97.94 55.5018C98.1642 55.5811 98.3635 55.7175 98.5176 55.8973C98.6717 56.0772 98.7753 56.294 98.8179 56.5261Z" fill="#3BD8E0"/>
<g opacity="0.35">
<path opacity="0.35" d="M98.9273 56.5493L99.6102 60.1047C99.6547 60.3362 99.6369 60.5753 99.5585 60.7979C99.4802 61.0205 99.3441 61.2187 99.1639 61.3726C98.9838 61.5266 98.7659 61.6308 98.5321 61.6749C98.2984 61.719 98.0571 61.7013 97.8324 61.6237L94.384 60.4324C94.1592 60.3549 93.959 60.2202 93.8035 60.0417C93.648 59.8632 93.5428 59.6473 93.4983 59.4157C93.4538 59.1841 93.4716 58.9449 93.55 58.7223C93.6285 58.4997 93.7647 58.3015 93.945 58.1477L96.7105 55.7846C96.8906 55.6307 97.1084 55.5264 97.3421 55.4823C97.5757 55.4382 97.817 55.4557 98.0416 55.5332C98.2663 55.6107 98.4664 55.7454 98.6218 55.9237C98.7773 56.1021 98.8826 56.3178 98.9273 56.5493Z" fill="#371A45"/>
</g>
<path d="M98.1558 62.5636C97.8956 62.5633 97.6373 62.5186 97.3923 62.4317L93.9511 61.2197C93.5783 61.0884 93.2469 60.8621 92.9902 60.5636C92.7336 60.2652 92.5608 59.9051 92.4891 59.5195C92.4175 59.1339 92.4496 58.7364 92.5821 58.367C92.7147 57.9976 92.9431 57.6692 93.2443 57.4149L96.0238 55.0689C96.3251 54.8146 96.6886 54.6433 97.0779 54.5723C97.4672 54.5013 97.8685 54.533 98.2414 54.6644C98.6144 54.7957 98.9458 55.022 99.2025 55.3205C99.4592 55.619 99.6321 55.9792 99.7037 56.3648L100.365 59.9228C100.424 60.2444 100.412 60.5749 100.328 60.8913C100.245 61.2076 100.093 61.502 99.8821 61.7537C99.6716 62.0054 99.4079 62.2084 99.1096 62.3483C98.8114 62.4882 98.4858 62.5617 98.1558 62.5636ZM97.4797 56.3159C97.3728 56.3157 97.2695 56.3544 97.1894 56.4246L94.4094 58.7706C94.3478 58.822 94.301 58.8887 94.2738 58.9638C94.2466 59.0389 94.2399 59.1197 94.2544 59.1982C94.2689 59.2767 94.3041 59.35 94.3565 59.4106C94.4088 59.4713 94.4764 59.5171 94.5524 59.5436L97.9935 60.7555C98.069 60.782 98.1503 60.7884 98.229 60.774C98.3078 60.7596 98.3814 60.7249 98.4424 60.6734C98.5033 60.6219 98.5496 60.5555 98.5764 60.4807C98.6033 60.4059 98.6098 60.3255 98.5953 60.2474L97.9343 56.692C97.9205 56.6136 97.8858 56.5403 97.8337 56.4797C97.7817 56.4191 97.7142 56.3733 97.6383 56.3473C97.5879 56.3283 97.5346 56.3177 97.4807 56.3159H97.4797Z" fill="#371A45"/>
<path d="M88.1193 30.1475C85.1109 40.0506 91.162 55.2523 97.4815 57.1362C103.801 59.02 117.314 49.6523 120.323 39.7487C123.332 29.8451 118.56 19.6684 109.668 17.0173C100.776 14.3662 91.1282 20.2439 88.1193 30.1475Z" fill="#068FFF"/>
<g opacity="0.7">
<path opacity="0.7" d="M88.12 30.1475L88.0935 30.2362C91.7287 21.5878 100.641 16.6875 108.903 19.151C117.707 21.7789 122.471 31.7805 119.641 41.5913C119.903 40.9906 120.13 40.3755 120.321 39.7492C123.33 29.8477 118.561 19.6684 109.669 17.0173C100.777 14.3662 91.129 20.2439 88.12 30.1475Z" fill="white"/>
</g>
<g opacity="0.35">
<path opacity="0.35" d="M88.1193 27.8288C85.1109 37.7324 91.1625 52.9325 97.4784 54.8174C103.794 56.7023 117.313 47.3325 120.321 37.4304C120.348 37.3392 120.375 37.2491 120.401 37.1584C116.323 44.1924 105.514 49.7646 99.8933 48.0889C93.5769 46.2056 86.8902 33.0944 89.3868 24.8773C89.4601 24.6356 89.5429 24.396 89.625 24.1616C89.0073 25.3341 88.5031 26.562 88.1193 27.8288Z" fill="#371A45"/>
</g>
<path d="M99.2471 58.261C98.5612 58.2687 97.8778 58.1771 97.2186 57.989C93.9418 57.0099 90.585 52.7847 88.455 46.9523C86.2736 40.9797 85.8253 34.6016 87.2588 29.8909C88.7775 24.8928 91.9591 20.7103 96.2169 18.1158C100.508 15.5008 105.378 14.8078 109.927 16.1645C114.477 17.5212 118.15 20.7613 120.273 25.2885C122.378 29.7802 122.701 35.0071 121.182 40.0058C119.75 44.7165 115.825 49.7904 110.675 53.5777C106.594 56.5817 102.424 58.261 99.2471 58.261ZM88.9798 30.4041C86.1192 39.8203 91.9477 54.5567 97.7382 56.2829C103.529 58.0091 116.599 48.9082 119.46 39.4921C120.852 34.9118 120.561 30.1341 118.641 26.0387C116.739 21.9789 113.46 19.0779 109.409 17.87C105.358 16.6622 101.007 17.2883 97.1583 19.6328C93.2761 21.9984 90.3717 25.8239 88.9798 30.4021V30.4041Z" fill="#371A45"/>
<g opacity="0.5">
<path opacity="0.5" d="M108.748 21.5707C104.63 19.7853 101.237 20.0187 98.0693 21.7428C94.7093 23.5726 94.4014 26.3932 96.7763 27.23C99.1512 28.0668 101.408 24.7603 107.578 25.0659C111.566 25.2617 111.999 22.98 108.748 21.5707Z" fill="white"/>
</g>
<path d="M90.1214 104.09C88.4435 104.428 87.2087 104.209 87.2087 104.209C87.1645 104.288 87.1177 104.369 87.0714 104.447C81.5679 114.117 76.8015 119.676 73.3261 122.845C72.7887 123.326 72.1589 123.694 71.4744 123.927C67.2614 125.43 60.8582 122.923 60.8582 122.923L61.6071 119.503L63.4276 111.169C63.4276 111.169 64.37 110.676 65.984 109.52C66.1546 109.395 66.3345 109.265 66.5202 109.127C67.9365 108.078 69.771 106.585 71.8822 104.558C75.2266 101.347 79.2679 96.796 83.4388 90.5462C83.4388 90.5462 85.1672 87.488 89.2793 88.5232C91.4716 89.0756 92.6117 89.9861 92.9795 91.2264C92.9795 91.2264 95.048 91.0002 95.1063 93.9058C95.1604 96.374 94.0749 103.297 90.1214 104.09Z" fill="white"/>
<g opacity="0.35">
<path opacity="0.35" d="M87.0693 104.451C81.5659 114.119 76.8015 119.676 73.3261 122.846C69.5177 126.317 60.8582 122.925 60.8582 122.925L61.7772 118.723C64.641 119.375 68.2018 118.369 71.0552 117.095C82.3554 112.053 83.3145 104.443 83.9928 100.637C84.0817 101.838 84.7183 103.385 87.0693 104.451Z" fill="#371A45"/>
</g>
<g opacity="0.35">
<path opacity="0.35" d="M88.4975 104.275C88.4975 104.275 85.0027 104.577 84.1804 99.2466C84.1804 99.2466 85.2389 100.178 88.2972 100.831C91.3337 101.479 94.1346 99.1982 94.1346 99.1982C94.1346 99.1982 92.9456 104.388 88.4975 104.275Z" fill="#371A45"/>
</g>
<path d="M64.0809 111.325C63.8926 111.326 63.7096 111.263 63.5619 111.148C63.4142 111.032 63.3105 110.87 63.2676 110.688C63.2248 110.507 63.2455 110.316 63.3262 110.147C63.4069 109.979 63.543 109.842 63.7121 109.76C63.8 109.717 72.5953 105.288 82.7305 90.118C83.455 88.8654 85.7721 86.7919 89.4879 87.7261C91.5882 88.2542 92.9155 89.1276 93.5449 90.3957C94.2034 91.7226 94.065 93.3658 93.1012 95.5665C92.1613 97.7194 90.213 98.8859 88.5647 98.2764C87.0496 97.7168 85.9121 95.6052 87.2644 91.3578C87.3309 91.1491 87.4783 90.9751 87.6743 90.8741C87.8702 90.7731 88.0987 90.7534 88.3093 90.8193C88.52 90.8852 88.6956 91.0312 88.7975 91.2254C88.8994 91.4195 88.9193 91.6458 88.8528 91.8545C87.9166 94.7854 88.3494 96.4368 89.1452 96.7305C89.8213 96.9815 90.9406 96.3559 91.5715 94.9111C92.3137 93.2107 92.4698 91.974 92.0485 91.1238C91.6475 90.3159 90.6754 89.7274 89.076 89.3255C85.6223 88.4567 84.1795 90.927 84.166 90.9527L84.1338 91.0043C73.7115 106.614 64.8189 111.059 64.4455 111.24C64.332 111.296 64.2074 111.325 64.0809 111.325Z" fill="#371A45"/>
<path d="M67.2525 127.745C67.0497 127.746 66.8533 127.674 66.7004 127.542C66.5475 127.41 66.4484 127.227 66.4219 127.028C66.3954 126.829 66.4433 126.627 66.5565 126.46C66.6696 126.293 66.8404 126.173 67.0366 126.122C67.1115 126.101 75.2634 123.601 86.482 103.806L86.7717 103.295L87.3542 103.398C87.362 103.398 88.4715 103.581 89.9549 103.283C93.3424 102.602 94.3239 96.0921 94.2776 93.9254C94.2615 93.1597 94.0831 92.6001 93.7601 92.3079C93.5671 92.1362 93.3152 92.0441 93.0559 92.0503C92.9475 92.0622 92.8378 92.0528 92.7331 92.0224C92.6284 91.9921 92.5309 91.9416 92.4461 91.8737C92.3612 91.8058 92.2908 91.7219 92.2389 91.6269C92.187 91.5319 92.1546 91.4276 92.1436 91.3202C92.1208 91.1017 92.1863 90.8832 92.3256 90.7124C92.465 90.5416 92.6669 90.4324 92.8873 90.4086C93.24 90.3825 93.5944 90.426 93.9301 90.5366C94.2657 90.6472 94.5758 90.8226 94.8425 91.0527C95.5457 91.6639 95.9155 92.6187 95.9415 93.8904C96.0039 96.9702 94.6662 104.018 90.2851 104.898C89.4236 105.072 88.5427 105.135 87.6648 105.085C76.1565 125.203 67.8205 127.621 67.4689 127.715C67.3984 127.734 67.3256 127.744 67.2525 127.745Z" fill="#371A45"/>
<path d="M87.2093 105.035C87.1707 105.035 87.1322 105.032 87.0939 105.027C85.6245 104.826 84.5557 104.18 83.9159 103.108C82.8913 101.39 83.0723 98.7071 84.4542 95.1347C85.7972 91.6633 87.5547 91.5324 87.8871 91.5417L87.8423 93.1906C87.8622 93.1933 87.8823 93.1933 87.9022 93.1906C87.8928 93.1906 86.9321 93.3452 86.0105 95.7263C84.8527 98.718 84.6186 101.042 85.3509 102.27C85.7239 102.896 86.3688 103.264 87.3233 103.395C87.5337 103.421 87.7259 103.527 87.8606 103.689C87.9953 103.851 88.0623 104.059 88.0479 104.268C88.0335 104.478 87.9388 104.674 87.7831 104.817C87.6274 104.96 87.4226 105.039 87.2104 105.037L87.2093 105.035Z" fill="#371A45"/>
<path d="M71.5107 147.081C70.6499 151.461 68.6313 161.719 62.5474 167.614C62.5474 167.614 63.0254 175.488 59.7278 178.321C57.4772 180.255 50.9247 178.876 49.5375 174.46C48.3412 170.651 50.0909 164.779 51.0776 163.024C53.2855 159.104 54.8646 154.134 54.8511 151.894L52.1673 151.767C50.5341 155.981 46.4459 162.223 43.2268 165.067C43.2268 165.067 43.0708 172.133 38.4937 174.984C35.1753 177.052 28.758 175.867 27.5024 170.375C26.6239 166.533 28.9671 161.123 30.3064 159.049C32.427 155.768 36.305 148.044 37.8514 142.266C37.9554 141.869 38.0526 141.48 38.1359 141.103C38.4843 139.523 38.8287 137.913 39.1636 136.327C39.4689 134.874 39.7691 133.441 40.0536 132.067C40.8644 128.16 41.5687 124.74 42.0467 122.756C42.0467 122.756 42.2615 121.339 42.6292 119.416C42.9158 117.925 43.295 116.129 43.7418 114.453C44.5063 111.583 45.466 109.074 46.4823 109.074H63.428C64.4094 109.074 65.2552 109.238 65.9844 109.522C67.4927 110.103 68.508 111.183 69.1852 112.335C70.4158 114.418 70.5495 116.733 70.5495 116.733C70.7893 118.763 71.1398 121.213 71.4727 123.929C72.3138 130.79 73.0336 139.35 71.5107 147.081Z" fill="white"/>
<g opacity="0.35">
<path opacity="0.35" d="M41.1501 136.555C41.1017 136.783 41.0534 137.011 41.0029 137.24C40.3516 137.019 39.7334 136.711 39.1648 136.327C39.1684 136.311 39.1705 136.296 39.1742 136.281L41.1501 136.555Z" fill="#371A45"/>
</g>
<g opacity="0.35">
<path opacity="0.35" d="M53.2906 162.2C52.3024 163.952 50.5522 169.826 51.7505 173.636C52.809 177.004 56.8686 178.604 59.7344 178.317C57.4875 180.256 50.9282 178.879 49.54 174.459C48.3437 170.65 50.0934 164.778 51.0801 163.023C53.288 159.103 54.8671 154.134 54.8536 151.894L52.1698 151.767C51.9414 152.356 51.6668 152.982 51.349 153.636C51.8171 151.958 51.2757 151.002 50.7098 150.176C50.2365 149.486 50.9776 148.616 51.7443 148.962C52.913 149.49 54.7002 150.02 57.3065 150.17C60.7305 150.367 63.7274 149.478 65.4163 148.826C66.1595 148.539 66.8539 149.363 66.4248 150.029C64.1565 153.553 55.1313 158.927 53.2906 162.2Z" fill="#371A45"/>
</g>
<path d="M42.3181 122.82C41.5546 129.063 40.3505 135.227 38.9857 141.378C38.6284 142.966 38.1249 144.49 37.5694 145.986C37.0139 147.482 36.4038 148.951 35.7573 150.401C35.1108 151.852 34.4242 153.283 33.7043 154.699C32.9845 156.114 32.2293 157.512 31.3893 158.885L30.7755 159.875L30.5014 160.362L30.2413 160.864C29.9048 161.541 29.6042 162.24 29.3327 162.949C29.0612 163.657 28.8365 164.382 28.6383 165.108C28.4504 165.831 28.3102 166.565 28.2186 167.305C28.1468 168.037 28.1182 168.768 28.1973 169.47C28.2857 170.16 28.4573 170.852 28.7522 171.479C29.0438 172.106 29.4421 172.678 29.9298 173.171C30.4243 173.664 30.9987 174.071 31.629 174.375C32.9161 174.995 34.3579 175.23 35.7776 175.05C36.4667 174.966 37.1356 174.763 37.754 174.45C37.904 174.37 38.0495 174.283 38.1899 174.187L38.4089 174.041L38.6169 173.88C38.8955 173.663 39.158 173.426 39.4023 173.171C39.8921 172.642 40.317 172.058 40.6683 171.43C41.0241 170.785 41.3215 170.109 41.5572 169.412C41.7969 168.704 41.9865 167.981 42.1246 167.248C42.1959 166.879 42.2526 166.508 42.2994 166.137C42.3462 165.765 42.38 165.379 42.3925 165.046L42.406 164.685L42.6708 164.447C43.6184 163.597 44.4912 162.613 45.3166 161.591C46.1421 160.569 46.915 159.493 47.6473 158.392C48.3796 157.292 49.0657 156.159 49.6997 155.005C50.3337 153.85 50.9147 152.669 51.386 151.469L51.6049 150.912L52.2031 150.941L54.889 151.067L55.6968 151.105L55.6822 151.887C55.6603 153.017 55.4461 154.01 55.199 155.001C54.9519 155.991 54.6435 156.948 54.3049 157.896C53.6249 159.794 52.7925 161.635 51.8156 163.401C51.4115 164.156 51.0874 165.075 50.8211 165.977C50.5532 166.888 50.3447 167.816 50.197 168.753C50.0457 169.68 49.9697 170.617 49.9697 171.555C49.9764 172.479 50.0737 173.396 50.3338 174.226C50.6018 175.034 51.0685 175.762 51.6918 176.346C52.3206 176.945 53.0961 177.415 53.9283 177.754C54.7602 178.094 55.6444 178.291 56.543 178.337C56.9757 178.36 57.4096 178.334 57.8365 178.26C58.2495 178.188 58.6349 178.054 58.9371 177.867C59.0113 177.822 59.0819 177.773 59.1483 177.718C59.217 177.666 59.2945 177.583 59.3678 177.518C59.5166 177.372 59.6542 177.215 59.7792 177.048C60.0421 176.7 60.2686 176.326 60.4554 175.933C60.8351 175.122 61.106 174.232 61.2954 173.313C61.4846 172.385 61.6107 171.446 61.673 170.501C61.7409 169.555 61.755 168.607 61.7151 167.659L61.6979 167.28L61.9643 167.022C63.4893 165.537 64.748 163.771 65.797 161.886C66.8461 160 67.6924 157.986 68.3977 155.924C69.0982 153.851 69.6806 151.74 70.1422 149.602C70.2608 149.066 70.3743 148.528 70.4829 147.988C70.591 147.449 70.7044 146.903 70.7892 146.37C70.874 145.837 70.9796 145.299 71.0565 144.761L71.2563 143.139C71.4725 140.963 71.5758 138.777 71.5658 136.59C71.5533 134.398 71.4212 132.203 71.2199 130.012L70.578 123.43C70.4808 122.328 70.3861 121.225 70.3294 120.114C70.2727 119.004 70.2337 117.887 70.2774 116.765C70.2797 116.699 70.3059 116.636 70.3511 116.587C70.3964 116.538 70.4577 116.507 70.5241 116.499C70.5906 116.491 70.6577 116.506 70.7134 116.543C70.7692 116.58 70.8099 116.635 70.8282 116.699V116.701C71.1372 117.779 71.3868 118.861 71.6172 119.947C71.8477 121.034 72.0448 122.13 72.2227 123.228C72.5717 125.426 72.825 127.644 72.969 129.875C73.1131 132.106 73.214 134.34 73.2291 136.582C73.2394 138.83 73.133 141.076 72.9103 143.313L72.7022 144.992C72.6232 145.55 72.5165 146.106 72.425 146.664C72.3334 147.221 72.2221 147.766 72.1129 148.313C72.0037 148.86 71.8877 149.407 71.7665 149.954C71.2924 152.152 70.694 154.323 69.9742 156.455C69.246 158.589 68.3618 160.688 67.2534 162.684C66.145 164.681 64.7989 166.575 63.1273 168.203L63.3764 167.564C63.4208 168.582 63.4062 169.602 63.3327 170.619C63.2656 171.638 63.1294 172.651 62.9249 173.652C62.7169 174.659 62.4162 175.666 61.9596 176.64C61.7238 177.137 61.4374 177.61 61.105 178.049C60.9328 178.277 60.744 178.492 60.5402 178.692C60.4304 178.792 60.3383 178.89 60.212 178.99C60.0876 179.093 59.9558 179.186 59.8177 179.269C59.303 179.579 58.7333 179.789 58.1393 179.887C57.5876 179.984 57.0266 180.019 56.4671 179.99C55.3781 179.936 54.3065 179.698 53.2985 179.287C52.2962 178.877 51.3459 178.308 50.5418 177.541C49.7377 176.775 49.0933 175.808 48.7489 174.727C48.4192 173.675 48.3152 172.615 48.3053 171.574C48.3047 170.545 48.3875 169.517 48.5528 168.501C48.7121 167.495 48.9362 166.5 49.2238 165.522C49.5172 164.54 49.8381 163.588 50.3629 162.602C51.2949 160.916 52.0892 159.158 52.7383 157.346C53.0618 156.44 53.3515 155.523 53.5866 154.601C53.8217 153.68 54.0027 152.737 54.0194 151.898L54.812 152.718L52.1266 152.591L52.9437 152.063C52.433 153.363 51.8229 154.594 51.166 155.795C50.509 156.997 49.7991 158.165 49.0412 159.302C48.2834 160.438 47.4809 161.549 46.6216 162.622C45.7624 163.694 44.8412 164.731 43.7817 165.681L44.06 165.084C44.0434 165.535 44.0049 165.924 43.956 166.339C43.9071 166.753 43.8426 167.152 43.7651 167.555C43.6132 168.364 43.4047 169.163 43.141 169.944C42.8731 170.736 42.5347 171.502 42.1298 172.235C41.712 172.982 41.2056 173.677 40.6215 174.304C40.0161 174.944 39.3142 175.486 38.541 175.912C37.7466 176.317 36.8863 176.58 35.9996 176.689C34.2539 176.912 32.4805 176.623 30.8988 175.858C30.1019 175.472 29.3759 174.957 28.7507 174.334C28.126 173.704 27.6157 172.972 27.2423 172.17C26.8715 171.37 26.6566 170.521 26.5469 169.657C26.4507 168.797 26.486 167.953 26.5682 167.123C26.6684 166.305 26.8228 165.494 27.0306 164.696C27.2402 163.909 27.4897 163.132 27.778 162.37C28.0688 161.611 28.3897 160.864 28.7538 160.133L29.0362 159.587L29.3405 159.046L29.9704 158.029C30.7734 156.717 31.5125 155.341 32.2215 153.958C32.9304 152.575 33.5967 151.162 34.2182 149.733C34.8398 148.304 35.4265 146.866 35.9435 145.407C36.4659 143.964 36.902 142.491 37.2495 140.997C37.9111 137.939 38.5737 134.868 39.278 131.807C39.6327 130.277 39.9999 128.748 40.4103 127.228C40.8207 125.707 41.2487 124.188 41.7839 122.693C41.807 122.629 41.8531 122.576 41.9134 122.543C41.9737 122.511 42.044 122.501 42.1109 122.517C42.1777 122.532 42.2364 122.572 42.2758 122.628C42.3152 122.683 42.3325 122.751 42.3244 122.819L42.3181 122.82Z" fill="#371A45"/>
<path d="M83.1768 130.691C81.361 130.691 80.0831 130.032 80.056 130.017C79.9346 129.953 79.8442 129.842 79.8047 129.712C79.7652 129.581 79.7799 129.439 79.8454 129.319C79.9109 129.199 80.022 129.109 80.1541 129.07C80.2863 129.031 80.4288 129.046 80.5502 129.111C80.7582 129.22 85.7145 131.733 89.7355 125.344C92.0272 121.703 90.7051 117.984 89.3054 114.046C88.1715 110.855 86.9987 107.554 87.7664 104.166C87.7994 104.036 87.8825 103.923 87.998 103.853C88.1134 103.782 88.2521 103.759 88.3845 103.789C88.5169 103.818 88.6324 103.897 88.7065 104.01C88.7806 104.123 88.8074 104.259 88.7811 104.391C88.079 107.492 89.2014 110.65 90.2869 113.704C91.7063 117.699 93.1741 121.829 90.6182 125.89C88.1637 129.788 85.302 130.691 83.1768 130.691Z" fill="#371A45"/>
<path d="M66.2256 146.451C65.241 146.535 64.1378 146.61 62.9519 146.665C63.6598 146.683 64.3125 146.691 64.8946 146.693C65.3495 146.694 65.8007 146.612 66.2256 146.451Z" fill="white"/>
<path d="M75.1504 136.36C75.2635 134.77 74.0539 133.39 72.4486 133.278C70.8434 133.166 69.4504 134.364 69.3373 135.955C69.2242 137.545 70.4339 138.925 72.0391 139.037C73.6443 139.149 75.0373 137.951 75.1504 136.36Z" fill="white"/>
<g opacity="0.35">
<path opacity="0.35" d="M75.1614 136.208C75.1559 136.587 75.0751 136.962 74.9236 137.31C74.7722 137.658 74.553 137.973 74.2787 138.237C74.0043 138.501 73.6801 138.709 73.3246 138.849C72.9692 138.989 72.5893 139.058 72.2068 139.053C71.8243 139.047 71.4466 138.967 71.0954 138.817C70.7441 138.667 70.4261 138.45 70.1595 138.178C69.8929 137.906 69.683 137.585 69.5417 137.233C69.4004 136.881 69.3305 136.504 69.336 136.126C69.3411 135.699 69.443 135.278 69.634 134.896C69.8626 135.393 70.2292 135.816 70.6911 136.115C71.1531 136.415 71.6913 136.578 72.2431 136.586C72.7949 136.593 73.3377 136.446 73.8081 136.16C74.2785 135.874 74.6573 135.462 74.9003 134.971C75.0798 135.359 75.1691 135.782 75.1614 136.208Z" fill="#371A45"/>
</g>
<path d="M72.2502 139.698H72.1982C71.2388 139.691 70.3213 139.308 69.6466 138.632C68.9719 137.957 68.595 137.044 68.5984 136.093C68.6019 135.143 68.9854 134.232 69.665 133.562C70.3445 132.891 71.2648 132.514 72.2242 132.514C73.1835 132.514 74.1038 132.891 74.7834 133.562C75.463 134.232 75.8465 135.143 75.8499 136.093C75.8534 137.044 75.4765 137.957 74.8018 138.632C74.127 139.308 73.2095 139.691 72.2502 139.698ZM72.2502 133.927C71.6616 133.94 71.1012 134.18 70.6881 134.595C70.2751 135.011 70.0417 135.57 70.0375 136.153C70.0334 136.736 70.2589 137.298 70.666 137.72C71.0732 138.141 71.6301 138.388 72.2185 138.41H72.2512C72.8435 138.402 73.409 138.165 73.8266 137.749C74.2441 137.332 74.4804 136.771 74.4846 136.184C74.4888 135.597 74.2607 135.032 73.8492 134.61C73.4376 134.188 72.8755 133.943 72.2835 133.927H72.2502Z" fill="#371A45"/>
<g opacity="0.35">
<path opacity="0.35" d="M69.8295 143.041C69.8626 143.818 69.5836 144.577 69.0535 145.152C68.5235 145.727 67.7854 146.07 67.0006 146.107L53.2417 146.721C52.4565 146.754 51.6899 146.478 51.1097 145.953C50.5295 145.428 50.1828 144.696 50.1454 143.919L50.1069 143.046C44.9057 144.014 41.4354 143.493 39.6087 142.991C37.8554 148.531 34.4553 155.229 32.5184 158.224C31.1791 160.298 28.8354 165.708 29.7139 169.55C30.726 173.981 35.0977 175.608 38.492 174.985C35.171 177.052 28.76 175.865 27.5044 170.374C26.6259 166.532 28.9691 161.123 30.3084 159.048C32.4289 155.768 36.307 148.044 37.8533 142.266C37.9573 141.869 38.0546 141.48 38.1378 141.102C38.4863 139.522 38.8306 137.912 39.1656 136.326C39.7342 136.711 40.3524 137.018 41.0037 137.239C44.2722 138.393 48.6573 138.075 49.8744 137.958L49.8151 136.664C49.7808 135.886 50.0594 135.126 50.5898 134.551C51.1202 133.976 51.8592 133.633 52.6446 133.597L66.4014 132.984C67.1867 132.95 67.9534 133.227 68.5337 133.752C69.1139 134.277 69.4606 135.009 69.4977 135.786L69.7577 141.532L69.8295 143.041Z" fill="#371A45"/>
</g>
<path d="M68.0358 143.807L54.2785 144.42C53.4933 144.453 52.7269 144.177 52.1467 143.652C51.5665 143.127 51.2197 142.396 51.1822 141.618L50.853 134.364C50.8243 133.688 51.0313 133.022 51.4392 132.48C51.8471 131.937 52.4311 131.55 53.0931 131.383C53.286 131.334 53.4835 131.305 53.6824 131.297L67.4377 130.683C68.223 130.649 68.9898 130.925 69.5701 131.451C70.1504 131.976 70.497 132.708 70.534 133.486L70.794 139.231L70.8632 140.739C70.8964 141.517 70.6177 142.276 70.088 142.851C69.5582 143.425 68.8205 143.769 68.0358 143.807Z" fill="white"/>
<g opacity="0.35">
<path opacity="0.35" d="M68.0358 143.807L54.2785 144.42C53.4933 144.453 52.7269 144.177 52.1467 143.652C51.5665 143.127 51.2197 142.396 51.1822 141.618L50.853 134.364C50.8243 133.688 51.0313 133.022 51.4392 132.48C51.8471 131.937 52.4311 131.55 53.0931 131.383C53.8978 131.862 54.4091 132.169 54.4091 132.169C55.3453 137.961 57.1491 140.79 64.4527 140.582C67.6057 140.492 69.5722 139.927 70.7982 139.231L70.8673 140.739C70.9005 141.518 70.6213 142.277 70.0906 142.852C69.56 143.427 68.8212 143.77 68.0358 143.807Z" fill="#371A45"/>
</g>
<path d="M54.1414 145.069C53.2116 145.066 52.3186 144.709 51.6467 144.072C50.9749 143.435 50.5758 142.567 50.5317 141.647L50.2015 134.393C50.1595 133.444 50.4991 132.517 51.1458 131.816C51.7924 131.115 52.6933 130.697 53.6509 130.653L67.4093 130.039C68.3666 129.999 69.3012 130.335 70.0086 130.976C70.716 131.616 71.1387 132.508 71.1843 133.456L71.5141 140.71C71.5549 141.659 71.2149 142.585 70.5685 143.286C69.9221 143.987 69.0218 144.405 68.0646 144.45L54.3068 145.063C54.2517 145.067 54.196 145.069 54.1414 145.069ZM67.5731 131.323C67.5377 131.323 67.5029 131.323 67.4691 131.323L53.7107 131.937C53.0975 131.966 52.5206 132.234 52.1065 132.682C51.6924 133.131 51.475 133.725 51.5018 134.332L51.8321 141.587C51.862 142.194 52.1329 142.765 52.5858 143.174C53.0386 143.584 53.6367 143.8 54.2496 143.775L68.0074 143.161C68.6201 143.131 69.1961 142.863 69.6099 142.414C70.0237 141.966 70.2417 141.373 70.2164 140.766L69.8866 133.512C69.8572 132.923 69.6011 132.367 69.1709 131.96C68.7408 131.552 68.1693 131.323 67.5741 131.321L67.5731 131.323Z" fill="#371A45"/>
<path d="M68.5856 143.728C68.4056 143.774 68.2213 143.8 68.0358 143.807L54.2785 144.42C53.7095 144.444 53.1456 144.306 52.6538 144.022C52.162 143.737 51.7632 143.319 51.5047 142.816C51.3117 142.444 51.2024 142.035 51.1843 141.618L51.0366 138.395L50.9882 137.332L50.853 134.364C50.82 133.586 51.0991 132.827 51.6293 132.252C52.1594 131.678 52.8975 131.334 53.6824 131.297L56.6555 131.165C55.9838 131.323 55.3886 131.708 54.9719 132.253C54.5552 132.798 54.343 133.47 54.3716 134.154L54.549 138.07L54.7014 141.407C54.7393 142.185 55.086 142.916 55.666 143.441C56.246 143.966 57.0121 144.243 57.7971 144.21L68.5856 143.728Z" fill="white"/>
<g opacity="0.35">
<path opacity="0.35" d="M68.5855 143.728C68.4056 143.774 68.2213 143.8 68.0358 143.807L54.2785 144.42C53.4934 144.454 52.727 144.178 52.1471 143.652C51.5672 143.127 51.221 142.395 51.1843 141.618L50.9861 137.334C51.3663 138.076 52.0305 138.978 53.0297 139.031C53.5779 139.062 54.0975 138.649 54.5469 138.074L54.6993 141.412C54.7372 142.189 55.0839 142.92 55.6639 143.445C56.2439 143.971 57.01 144.247 57.795 144.215L68.5855 143.728Z" fill="#371A45"/>
</g>
<path d="M54.1391 145.069C53.2097 145.065 52.3171 144.708 51.6458 144.072C50.9745 143.435 50.5758 142.567 50.532 141.647L50.2023 134.393C50.1614 133.444 50.5014 132.518 51.1477 131.818C51.794 131.117 52.6941 130.698 53.6512 130.653L56.6232 130.52L56.8021 131.791C56.2771 131.913 55.8118 132.214 55.4864 132.64C55.1609 133.066 54.9957 133.592 55.0191 134.126L55.3494 141.38C55.379 141.987 55.6493 142.557 56.1014 142.967C56.5535 143.377 57.1509 143.594 57.7633 143.569L68.5554 143.086L68.7405 144.355C68.5176 144.41 68.2897 144.442 68.0602 144.451L54.3055 145.064C54.2499 145.067 54.1942 145.069 54.1391 145.069ZM54.4158 131.908L53.71 131.939C53.0973 131.969 52.5213 132.237 52.1075 132.686C51.6937 133.135 51.4757 133.727 51.501 134.334L51.8308 141.59C51.8603 142.197 52.1309 142.767 52.5836 143.177C53.0362 143.587 53.6341 143.803 54.2468 143.778L55.0431 143.742C54.4404 143.119 54.0876 142.3 54.0507 141.438L53.7204 134.183C53.6831 133.369 53.9285 132.566 54.4158 131.908Z" fill="#371A45"/>
<path d="M60.4829 137.598C60.4933 137.867 60.1984 140.047 60.1984 140.047L58.6557 140.108C57.5931 140.149 56.6886 139.092 56.6351 137.748C56.5815 136.404 57.3996 135.28 58.4623 135.239L60.0055 135.179C60.0055 135.179 60.4653 137.161 60.4829 137.598Z" fill="#22A7F0"/>
<g opacity="0.35">
<path opacity="0.35" d="M60.7427 137.598C60.7531 137.867 60.4582 140.047 60.4582 140.047L58.9155 140.108C57.8529 140.149 56.9484 139.092 56.8948 137.748C56.8412 136.404 57.6594 135.28 58.722 135.239L60.2652 135.179C60.2652 135.179 60.725 137.161 60.7427 137.598Z" fill="#371A45"/>
</g>
<path d="M58.8557 140.624C57.5429 140.624 56.4381 139.362 56.3747 137.769C56.3102 136.142 57.3535 134.776 58.7012 134.724L59.7784 134.682C60.0317 134.671 60.2811 134.748 60.482 134.902C60.6828 135.055 60.8222 135.274 60.8753 135.52C61.1208 136.622 61.2513 137.315 61.2617 137.578C61.2617 137.65 61.2722 137.84 61.035 139.649C61.0027 139.9 60.8816 140.131 60.6933 140.302C60.5049 140.472 60.2616 140.571 60.0067 140.58L58.9352 140.622C58.9077 140.624 58.8827 140.624 58.8557 140.624ZM59.8205 135.712L58.7438 135.753C57.9824 135.783 57.3743 136.688 57.4154 137.728C57.4565 138.751 58.1124 139.594 58.8577 139.594H58.8962L59.9677 139.552C59.9768 139.552 59.9856 139.548 59.9925 139.542C59.9993 139.536 60.0038 139.528 60.0051 139.519C60.1669 138.286 60.2236 137.724 60.2236 137.617C60.2168 137.465 60.1196 136.895 59.8595 135.743C59.8578 135.734 59.853 135.726 59.846 135.721C59.839 135.715 59.8301 135.712 59.821 135.712H59.8205Z" fill="#371A45"/>
<path d="M60.4548 140.05C61.5174 140.009 62.3355 138.885 62.2822 137.541C62.2289 136.196 61.3243 135.14 60.2617 135.181C59.1991 135.223 58.3809 136.346 58.4342 137.691C58.4875 139.035 59.3922 140.092 60.4548 140.05Z" fill="#22A7F0"/>
<g opacity="0.7">
<path opacity="0.7" d="M62.2844 137.54C62.2916 137.702 62.2853 137.864 62.2657 138.024C62.0056 137 61.2255 136.272 60.3412 136.306C59.4097 136.341 58.667 137.208 58.5312 138.327C58.4776 138.119 58.4466 137.905 58.4386 137.69C58.3866 136.346 59.2048 135.222 60.2669 135.18C61.329 135.138 62.2329 136.194 62.2844 137.54Z" fill="white"/>
</g>
<g opacity="0.35">
<path opacity="0.35" d="M62.2855 137.54C62.3375 138.884 61.5214 140.008 60.4593 140.05C59.3972 140.092 58.4917 139.034 58.4381 137.69C58.4286 137.473 58.4431 137.255 58.4813 137.041C58.784 137.977 59.5257 138.629 60.3631 138.596C61.2473 138.562 61.9625 137.775 62.1461 136.737C62.2284 136.998 62.2752 137.268 62.2855 137.54Z" fill="#371A45"/>
</g>
<path d="M60.3986 140.564C59.0853 140.564 57.9806 139.302 57.9176 137.708C57.8531 136.082 58.8965 134.717 60.2436 134.664C60.2707 134.664 60.2956 134.664 60.3237 134.664C61.6365 134.664 62.7413 135.926 62.8047 137.52C62.8692 139.146 61.8253 140.509 60.4782 140.564C60.4517 140.564 60.4252 140.564 60.3986 140.564ZM60.3232 135.693H60.2847C59.5238 135.723 58.9157 136.626 58.9568 137.667C58.9979 138.707 59.6663 139.563 60.4371 139.531C61.1981 139.502 61.8066 138.598 61.7655 137.557C61.7249 136.536 61.0685 135.693 60.3232 135.693Z" fill="#371A45"/>
<path d="M64.2765 144.461C64.1404 144.461 64.0098 144.408 63.9125 144.314C63.8153 144.219 63.7592 144.091 63.7564 143.956L63.6773 140.283C63.6656 139.779 63.7805 139.279 64.0119 138.829C64.2432 138.38 64.5836 137.994 65.0026 137.707C65.2863 137.513 65.5156 137.252 65.669 136.946C65.8223 136.641 65.8946 136.301 65.879 135.961L65.6621 130.79C65.6593 130.723 65.6699 130.655 65.6935 130.592C65.717 130.528 65.7529 130.47 65.7992 130.42C65.8927 130.319 66.0227 130.259 66.1607 130.254C66.2986 130.248 66.4332 130.297 66.5348 130.389C66.5851 130.435 66.6258 130.491 66.6545 130.552C66.6833 130.613 66.6995 130.68 66.7024 130.748L66.9193 135.922C66.9424 136.436 66.8332 136.948 66.6018 137.409C66.3705 137.87 66.0245 138.265 65.5966 138.558C65.3192 138.748 65.0938 139.003 64.9405 139.301C64.7873 139.599 64.7111 139.93 64.7186 140.264L64.7977 143.937C64.7992 144.004 64.7872 144.072 64.7625 144.135C64.7378 144.198 64.7007 144.255 64.6535 144.304C64.6062 144.353 64.5497 144.392 64.4872 144.42C64.4247 144.447 64.3573 144.462 64.289 144.463L64.2765 144.461Z" fill="#371A45"/>
<path d="M39.8454 133.759C39.8454 133.759 37.4815 134.214 37.3931 136.966C37.3291 138.945 39.0985 140.126 39.0985 140.126C39.0985 140.126 43.0879 142.314 51.4369 140.689C51.4369 140.689 53.9335 137.519 51.2336 135.623C51.2336 135.623 43.3136 136.609 39.8454 133.759Z" fill="white"/>
<g opacity="0.35">
<path opacity="0.35" d="M51.4379 140.69C43.0878 142.313 39.0995 140.126 39.0995 140.126C39.0995 140.126 37.3311 138.945 37.3929 136.967C37.398 136.809 37.4116 136.652 37.4335 136.495C37.7532 137.136 38.2238 137.691 38.8056 138.113C38.8056 138.113 42.2858 140.02 49.5457 138.949C50.8137 138.762 51.8597 137.832 52.1197 136.588C52.1197 136.576 52.1244 136.565 52.127 136.553C53.2385 138.403 51.4379 140.69 51.4379 140.69Z" fill="#371A45"/>
</g>
<path d="M45.5924 141.936C41.1246 141.936 38.9078 140.758 38.783 140.69L38.7346 140.66C38.6503 140.604 36.6681 139.254 36.742 136.946C36.8252 134.362 38.7268 133.318 39.7208 133.127L40.023 133.069L40.2596 133.264C43.4735 135.904 51.0746 134.993 51.1515 134.984L51.4022 134.953L51.6103 135.098C52.4643 135.697 52.9668 136.469 53.103 137.391C53.3787 139.246 52.0108 141.011 51.9504 141.086L51.8012 141.275L51.563 141.322C49.2526 141.771 47.2652 141.936 45.5924 141.936ZM39.4383 139.576C39.7847 139.746 43.5993 141.501 51.0558 140.106C51.3393 139.681 51.9692 138.599 51.8147 137.573C51.7398 137.075 51.4875 136.654 51.0459 136.292C49.6244 136.438 43.1104 136.95 39.7072 134.469C39.1798 134.663 38.098 135.269 38.0428 136.987C37.9955 138.458 39.2469 139.434 39.4394 139.576H39.4383Z" fill="#371A45"/>
<path d="M83.9401 110.293C83.8925 110.293 83.8451 110.288 83.7986 110.278C74.9133 108.324 75.5905 100.007 75.5983 99.9253C75.616 99.7559 75.6999 99.6001 75.8322 99.4914C75.9644 99.3826 76.1344 99.3295 76.3057 99.3435C76.4773 99.3593 76.6355 99.442 76.7456 99.5733C76.8557 99.7046 76.9087 99.8738 76.8929 100.044C76.8664 100.341 76.3312 107.318 84.0805 109.022C84.2367 109.057 84.3745 109.147 84.4676 109.276C84.5608 109.405 84.6026 109.564 84.5852 109.721C84.5679 109.879 84.4924 110.024 84.3734 110.13C84.2544 110.236 84.1001 110.295 83.9401 110.295V110.293Z" fill="#371A45"/>
<path d="M92.5154 67.5829L94.3411 70.7158C94.4602 70.9199 94.5229 71.1515 94.523 71.3873C94.523 71.6231 94.4604 71.8548 94.3414 72.059C94.2224 72.2632 94.0513 72.4328 93.8451 72.5507C93.639 72.6685 93.4051 72.7306 93.1671 72.7305H89.5153C89.2774 72.7304 89.0437 72.6683 88.8376 72.5504C88.6316 72.4325 88.4605 72.2629 88.3415 72.0587C88.2226 71.8546 88.1599 71.623 88.1599 71.3873C88.1599 71.1515 88.2225 70.92 88.3414 70.7158L90.1676 67.5829C90.2865 67.3787 90.4577 67.2092 90.6637 67.0913C90.8698 66.9734 91.1036 66.9114 91.3415 66.9114C91.5795 66.9114 91.8132 66.9734 92.0193 67.0913C92.2254 67.2092 92.3965 67.3787 92.5154 67.5829Z" fill="#FFE000"/>
<g opacity="0.35">
<path opacity="0.35" d="M88.1996 71.0595C88.1495 71.2577 88.1456 71.4646 88.1883 71.6645C88.231 71.8644 88.3192 72.052 88.446 72.2131C88.5729 72.3742 88.7351 72.5045 88.9205 72.5942C89.1058 72.6838 89.3093 72.7304 89.5155 72.7305C89.3093 72.7304 89.1058 72.6838 88.9205 72.5942C88.7351 72.5045 88.5729 72.3742 88.446 72.2131C88.3192 72.052 88.231 71.8644 88.1883 71.6645C88.1456 71.4646 88.1495 71.2577 88.1996 71.0595Z" fill="#371A45"/>
</g>
<g opacity="0.35">
<path opacity="0.35" d="M89.5146 71.1847H93.1664C93.385 71.1853 93.6004 71.1329 93.7938 71.032C93.9872 70.9312 94.1527 70.7849 94.2759 70.606L92.5132 67.5814C92.3942 67.3772 92.2231 67.2076 92.017 67.0898C91.811 66.9719 91.5772 66.9098 91.3392 66.9098C91.1013 66.9098 90.8675 66.9719 90.6615 67.0898C90.4554 67.2076 90.2843 67.3772 90.1653 67.5814L88.4021 70.606C88.5256 70.7853 88.6916 70.9318 88.8856 71.0327C89.0796 71.1336 89.2956 71.1858 89.5146 71.1847Z" fill="#371A45"/>
</g>
<g opacity="0.35">
<path opacity="0.35" d="M93.3572 72.7194C93.6186 72.6831 93.8635 72.5718 94.0618 72.3992C94.2602 72.2265 94.4032 72.0001 94.4734 71.7479C94.4032 72.0001 94.2602 72.2265 94.0618 72.3992C93.8635 72.5718 93.6186 72.6831 93.3572 72.7194Z" fill="#371A45"/>
</g>
<g opacity="0.35">
<path opacity="0.35" d="M94.4734 71.7471C94.5051 71.6369 94.5224 71.523 94.525 71.4083C94.5224 71.523 94.5051 71.6369 94.4734 71.7471Z" fill="#371A45"/>
</g>
<path d="M93.1671 73.6209H89.5153C89.1198 73.6208 88.7312 73.5175 88.3886 73.3215C88.046 73.1255 87.7616 72.8437 87.5637 72.5043C87.3659 72.165 87.2616 71.78 87.2615 71.3881C87.2613 70.9962 87.3652 70.6111 87.5628 70.2716L89.389 67.1382C89.5849 66.7971 89.869 66.5139 90.2121 66.3176C90.5552 66.1214 90.9448 66.0192 91.341 66.0216C91.7372 66.0193 92.1269 66.1215 92.47 66.3177C92.8132 66.514 93.0974 66.7972 93.2935 67.1382L95.1197 70.2716C95.3173 70.6112 95.4212 70.9963 95.421 71.3882C95.4208 71.7802 95.3165 72.1652 95.1186 72.5045C94.9207 72.8439 94.6362 73.1258 94.2935 73.3217C93.9509 73.5177 93.5622 73.6209 93.1666 73.6209H93.1671ZM91.3415 67.8019C91.2612 67.801 91.1821 67.8216 91.1126 67.8614C91.043 67.9012 90.9856 67.9587 90.9462 68.0281L89.1201 71.1615C89.0801 71.2302 89.0591 71.3082 89.0592 71.3875C89.0592 71.4668 89.0803 71.5448 89.1204 71.6134C89.1604 71.6821 89.218 71.7392 89.2873 71.7789C89.3566 71.8186 89.4353 71.8395 89.5153 71.8396H93.1671C93.2473 71.8397 93.3261 71.8188 93.3956 71.7791C93.4651 71.7394 93.5227 71.6823 93.5629 71.6135C93.603 71.5448 93.6241 71.4667 93.6241 71.3873C93.6241 71.3078 93.603 71.2298 93.563 71.161L91.7368 68.0281C91.6973 67.9588 91.6399 67.9013 91.5703 67.8615C91.5008 67.8217 91.4218 67.8011 91.3415 67.8019Z" fill="#371A45"/>
<path d="M73.5143 46.2793C74.0281 56.6085 84.8701 68.9236 91.4585 68.6021C98.047 68.2806 107.615 54.9689 107.101 44.6417C106.587 34.3146 98.6524 26.3031 89.3775 26.756C80.1027 27.2089 73.0004 35.9495 73.5143 46.2793Z" fill="#FFE000"/>
<g opacity="0.7">
<path opacity="0.7" d="M73.5143 46.2793L73.519 46.3715C74.0204 37.0167 80.7607 29.4416 89.3776 29.0211C98.5614 28.5734 106.432 36.4185 107.084 46.6008C107.127 45.948 107.133 45.2932 107.102 44.6397C106.587 34.3099 98.6524 26.3036 89.3776 26.756C80.1027 27.2084 72.9999 35.9496 73.5143 46.2793Z" fill="white"/>
</g>
<g opacity="0.35">
<path opacity="0.35" d="M73.5147 43.9606C74.0286 54.2903 84.8706 66.6044 91.459 66.2844C98.0474 65.9644 107.616 52.6497 107.102 42.321C107.097 42.2256 107.092 42.1318 107.086 42.0381C105.622 50.0187 97.3213 58.8567 91.459 59.1452C84.8706 59.4668 74.1363 49.3328 73.7103 40.7617C73.6973 40.5098 73.6926 40.2573 73.6926 40.0084C73.5072 41.3172 73.4476 42.6406 73.5147 43.9606Z" fill="#371A45"/>
</g>
<path d="M91.2165 69.4987C87.8325 69.4987 83.3818 66.6559 79.5137 62.0009C75.4385 57.0975 72.8597 51.2368 72.6153 46.3231C72.3552 41.109 73.9395 36.1129 77.0738 32.256C80.2335 28.3678 84.587 26.099 89.3326 25.8666C99.0813 25.3905 107.462 33.7921 107.999 44.5954C108.244 49.5096 106.259 55.5929 102.69 60.8694C99.2056 66.0221 94.9192 69.325 91.5025 69.492C91.4079 69.4961 91.3106 69.4987 91.2165 69.4987ZM90.1242 27.6283C89.8907 27.6283 89.6561 27.634 89.4225 27.6459C85.1971 27.852 81.3086 29.8858 78.476 33.3726C75.6184 36.8894 74.1751 41.4578 74.4128 46.2355C74.6391 50.7802 77.0654 56.2504 80.9034 60.8694C84.473 65.1642 88.6112 67.8503 91.4157 67.7133C97.4559 67.418 106.693 54.5052 106.205 44.6835C105.727 35.1241 98.5835 27.6283 90.1221 27.6283H90.1242Z" fill="#371A45"/>
<g opacity="0.7">
<path opacity="0.7" d="M90.0509 31.867C85.5669 31.5517 82.4493 32.8976 80.0479 35.5734C77.4993 38.4121 78.164 41.1724 80.685 41.1724C83.2061 41.1724 84.2135 37.3078 90.1305 35.5471C93.9544 34.4089 93.5909 32.1149 90.0509 31.867Z" fill="white"/>
</g>
<path d="M45.7859 113.691L44.1116 120.146L41.1198 131.683C40.789 131.804 40.4348 131.929 40.0536 132.067C38.0251 132.803 35.2684 133.959 31.6276 137.496C30.3522 138.736 28.9261 139.66 26.6911 141.016C21.8867 143.93 13.3972 139.189 20.1646 130.1C26.0087 122.253 32.7755 118.653 38.4729 116.385C40.375 115.629 42.1575 115.02 43.746 114.452C44.4679 114.194 45.1508 113.941 45.7859 113.691Z" fill="white"/>
<g opacity="0.35">
<path opacity="0.35" d="M41.12 131.683C39.0244 132.456 35.9494 133.298 31.6303 137.496C30.355 138.736 28.9288 139.66 26.6938 141.016C22.7091 143.428 16.1992 140.59 17.9313 134.377C19.4651 145.073 28.8019 138.126 32.0786 134.653C37.3017 129.119 43.4392 127.46 44.0311 128.518C44.623 129.576 41.12 131.683 41.12 131.683Z" fill="#371A45"/>
</g>
<path d="M23.5391 142.693C21.6214 142.693 19.7068 141.951 18.4081 140.548C15.9593 137.901 16.365 133.812 19.4941 129.611C27.0322 119.489 35.9394 116.339 42.443 114.039C43.5353 113.653 44.562 113.289 45.4748 112.928C45.5763 112.888 45.6848 112.868 45.7941 112.869C45.9034 112.87 46.0114 112.893 46.1119 112.935C46.2124 112.978 46.3034 113.04 46.3798 113.117C46.4561 113.195 46.5163 113.287 46.5569 113.387C46.5975 113.488 46.6177 113.595 46.6164 113.703C46.6151 113.812 46.5923 113.919 46.5492 114.018C46.5061 114.118 46.4437 114.208 46.3655 114.284C46.2872 114.359 46.1947 114.419 46.0932 114.459C45.1518 114.832 44.1079 115.202 43.0032 115.593C36.7013 117.822 28.0709 120.874 20.8344 130.591C18.1761 134.161 17.7392 137.383 19.6381 139.433C21.2646 141.191 24.1747 141.578 26.2625 140.313C28.5765 138.911 29.883 138.045 31.0476 136.909C35.1217 132.948 38.2217 131.845 40.2725 131.114C40.466 131.044 40.6527 130.978 40.8317 130.912C40.9341 130.875 41.0431 130.857 41.1523 130.861C41.2615 130.865 41.3688 130.891 41.4682 130.936C41.5675 130.981 41.6569 131.045 41.7313 131.124C41.8057 131.204 41.8635 131.297 41.9016 131.398C41.9396 131.5 41.9571 131.608 41.953 131.716C41.949 131.824 41.9234 131.931 41.8779 132.029C41.8324 132.127 41.7677 132.216 41.6876 132.29C41.6075 132.363 41.5135 132.421 41.4111 132.458C41.2269 132.526 41.0355 132.594 40.8358 132.664C38.8073 133.386 36.0283 134.377 32.2142 138.085C30.9316 139.332 29.5528 140.249 27.1285 141.718C26.045 142.375 24.7915 142.693 23.5391 142.693Z" fill="#371A45"/>
<path d="M75.8441 95.4388C75.7808 95.4558 75.7147 95.4603 75.6497 95.452C75.5846 95.4437 75.5218 95.4227 75.4649 95.3904C75.408 95.358 75.3581 95.3149 75.3181 95.2634C75.278 95.212 75.2486 95.1532 75.2314 95.0904L71.4683 81.3326C71.4512 81.2698 71.4466 81.2044 71.455 81.1399C71.4634 81.0754 71.4845 81.0132 71.5172 80.9569C71.5498 80.9005 71.5934 80.8511 71.6453 80.8114C71.6973 80.7717 71.7566 80.7425 71.8199 80.7256C72.4842 80.5473 73.1774 80.5004 73.86 80.5875C74.5426 80.6747 75.2012 80.8942 75.7982 81.2334C76.3951 81.5727 76.9188 82.0252 77.3392 82.565C77.7597 83.1047 78.0687 83.7213 78.2487 84.3794L79.5323 89.0684C79.7125 89.7266 79.7599 90.4135 79.672 91.0899C79.5842 91.7662 79.3626 92.4188 79.0202 93.0104C78.6777 93.602 78.2209 94.1209 77.676 94.5376C77.131 94.9542 76.5086 95.2604 75.8441 95.4388Z" fill="white"/>
<path d="M75.7127 95.6315C75.5643 95.6311 75.4202 95.5825 75.3026 95.493C75.1849 95.4035 75.1002 95.2782 75.0615 95.1363L71.2984 81.3784C71.2748 81.2933 71.2683 81.2044 71.2795 81.1169C71.2906 81.0293 71.3191 80.9448 71.3634 80.8682C71.4076 80.7916 71.4667 80.7244 71.5372 80.6705C71.6077 80.6165 71.6883 80.577 71.7743 80.554C73.1611 80.1834 74.6396 80.3729 75.8855 81.081C77.1314 81.7891 78.0429 82.9579 78.4199 84.331L79.7031 89.0231C79.8893 89.7033 79.9383 90.4132 79.8475 91.1123C79.7567 91.8113 79.5277 92.4858 79.1737 93.0972C78.8197 93.7086 78.3476 94.2449 77.7844 94.6755C77.2211 95.1061 76.5778 95.4225 75.8911 95.6067C75.833 95.6226 75.773 95.6309 75.7127 95.6315ZM73.1896 80.7178C72.7428 80.7181 72.298 80.777 71.8669 80.893C71.8259 80.9039 71.7875 80.9227 71.7539 80.9483C71.7202 80.9739 71.692 81.0058 71.6708 81.0422C71.6497 81.0787 71.636 81.1189 71.6305 81.1606C71.6251 81.2022 71.628 81.2446 71.6391 81.2852L75.4022 95.043C75.4132 95.0836 75.4322 95.1217 75.4581 95.155C75.484 95.1883 75.5163 95.2162 75.5531 95.2372C75.59 95.2581 75.6306 95.2716 75.6727 95.2769C75.7148 95.2822 75.7576 95.2793 75.7985 95.2682C76.4405 95.096 77.0419 94.8002 77.5684 94.3976C78.0949 93.9951 78.5363 93.4938 78.8672 92.9223C79.1982 92.3508 79.4122 91.7203 79.4972 91.0668C79.5822 90.4133 79.5364 89.7497 79.3624 89.1138L78.0793 84.4216C77.7865 83.3588 77.1494 82.4206 76.266 81.7514C75.3825 81.0822 74.3017 80.7191 73.1896 80.7178Z" fill="#371A45"/>
<g opacity="0.35">
<path opacity="0.35" d="M78.9327 86.8697L79.535 89.0699C79.7152 89.7283 79.7626 90.4155 79.6747 91.0921C79.5868 91.7687 79.3652 92.4216 79.0225 93.0133C78.6799 93.6051 78.2229 94.1242 77.6778 94.5409C77.1326 94.9577 76.5099 95.264 75.8452 95.4423C75.7172 95.4765 75.5807 95.459 75.4657 95.3936C75.3508 95.3282 75.2667 95.2203 75.232 95.0935L74.2302 91.435C74.2911 91.5089 74.3722 91.5639 74.4638 91.5933C74.5554 91.6228 74.6536 91.6254 74.7467 91.6009L75.0759 91.5118C76.1257 91.2304 77.061 90.6324 77.7521 89.8005C78.4432 88.9687 78.8558 87.9444 78.9327 86.8697Z" fill="#371A45"/>
</g>
<path d="M75.7122 96.2818C75.4199 96.2809 75.136 96.185 74.904 96.0088C74.6721 95.8326 74.505 95.5858 74.4285 95.3063L70.6654 81.5484C70.5729 81.2108 70.6196 80.8505 70.7951 80.5469C70.9707 80.2433 71.2608 80.0212 71.6016 79.9294C73.1563 79.5142 74.8138 79.7267 76.2106 80.5204C77.6073 81.3142 78.6293 82.6243 79.0524 84.1635L80.3355 88.8556C80.7567 90.3959 80.543 92.039 79.7414 93.4232C78.9398 94.8075 77.616 95.8196 76.0612 96.2369C75.9473 96.2669 75.83 96.282 75.7122 96.2818ZM72.3636 81.4459L75.9457 94.5442C76.9936 94.177 77.8628 93.4311 78.379 92.4558C78.8952 91.4806 79.0204 90.3481 78.7294 89.2853L77.4462 84.5932C77.1543 83.5312 76.4689 82.6173 75.5268 82.034C74.5846 81.4506 73.4551 81.2406 72.3636 81.4459Z" fill="#371A45"/>
<path d="M25.9764 93.0298C26.0397 93.0128 26.1058 93.0083 26.1709 93.0166C26.2359 93.0249 26.2987 93.0459 26.3556 93.0782C26.4125 93.1106 26.4624 93.1537 26.5025 93.2052C26.5425 93.2566 26.572 93.3154 26.5891 93.3781L30.3527 107.139C30.3699 107.202 30.3744 107.267 30.366 107.332C30.3576 107.396 30.3365 107.458 30.3039 107.515C30.2712 107.571 30.2277 107.621 30.1757 107.66C30.1238 107.7 30.0644 107.729 30.0011 107.746C28.6595 108.106 27.2285 107.924 26.0228 107.238C24.8171 106.553 23.9355 105.422 23.5719 104.093L22.2908 99.3992C21.9271 98.0704 22.1111 96.6529 22.8023 95.4584C23.4934 94.264 24.6352 93.3904 25.9764 93.0298Z" fill="white"/>
<path d="M28.631 108.101C27.4411 108.099 26.2846 107.711 25.3395 106.995C24.3944 106.278 23.7132 105.274 23.4007 104.137L22.1175 99.445C21.7435 98.0709 21.935 96.6059 22.65 95.3715C23.3651 94.1371 24.5453 93.2342 25.9316 92.8608C26.1046 92.8145 26.2892 92.8381 26.4446 92.9265C26.6001 93.015 26.7138 93.1609 26.7607 93.3323L30.5243 107.09C30.5479 107.175 30.5543 107.264 30.5432 107.352C30.532 107.439 30.5035 107.524 30.4593 107.6C30.4151 107.677 30.356 107.744 30.2855 107.798C30.215 107.852 30.1344 107.892 30.0484 107.915C29.5863 108.039 29.1097 108.101 28.631 108.101ZM26.0221 93.1983C24.7266 93.5479 23.6239 94.3921 22.9558 95.5459C22.2877 96.6998 22.1087 98.069 22.4582 99.3533L23.7419 104.047C24.0932 105.332 24.9451 106.425 26.1101 107.087C27.2751 107.749 28.6579 107.926 29.9542 107.578C30.0368 107.555 30.1072 107.502 30.1499 107.428C30.1926 107.355 30.2042 107.267 30.182 107.186L26.4184 93.4276C26.4073 93.3871 26.3883 93.3491 26.3624 93.3158C26.3364 93.2825 26.3041 93.2546 26.2673 93.2337C26.2305 93.2128 26.1899 93.1993 26.1478 93.1939C26.1058 93.1886 26.063 93.1915 26.0221 93.2025V93.1983Z" fill="#371A45"/>
<g opacity="0.35">
<path opacity="0.35" d="M29.3099 103.32L30.3533 107.139C30.3878 107.266 30.3701 107.401 30.3041 107.515C30.2381 107.629 30.1291 107.712 30.0011 107.747C29.3369 107.925 28.6437 107.972 27.9612 107.885C27.2786 107.798 26.62 107.579 26.023 107.24C25.426 106.901 24.9024 106.448 24.482 105.908C24.0616 105.369 23.7527 104.752 23.5729 104.094L23.032 102.117C23.6735 102.886 24.5252 103.457 25.4852 103.759C26.4452 104.062 27.473 104.084 28.4454 103.823L28.952 103.687C29.0395 103.663 29.1189 103.617 29.1818 103.552C29.2448 103.487 29.289 103.407 29.3099 103.32Z" fill="#371A45"/>
</g>
<path d="M28.6324 108.751C27.2982 108.749 26.0015 108.313 24.942 107.51C23.8825 106.706 23.1188 105.58 22.7685 104.305L21.4848 99.6161C21.0656 98.0757 21.2802 96.4335 22.0815 95.0497C22.8828 93.6659 24.2054 92.6534 25.7592 92.2342C26.1001 92.143 26.4635 92.1895 26.7698 92.3633C27.0762 92.5372 27.3004 92.8243 27.3934 93.1617L31.1571 106.92C31.2495 107.257 31.2029 107.618 31.0273 107.921C30.8517 108.225 30.5617 108.447 30.2208 108.539C29.7032 108.679 29.169 108.75 28.6324 108.751ZM25.8757 93.9243C24.8288 94.293 23.9607 95.0392 23.4448 96.014C22.9288 96.9888 22.8028 98.1205 23.092 99.1833L24.3752 103.875C24.666 104.938 25.3513 105.853 26.2938 106.436C27.2364 107.02 28.3666 107.229 29.4583 107.023L25.8757 93.9243Z" fill="#371A45"/>
<g opacity="0.35">
<path opacity="0.35" d="M71.8844 104.563C71.5126 107.617 70.4217 110.543 68.6996 113.103C66.9776 115.664 64.6725 117.788 61.9702 119.305C59.2678 120.821 56.2437 121.687 53.1415 121.834C50.0392 121.981 46.9456 121.404 44.1098 120.149C43.6046 119.926 43.1111 119.683 42.6295 119.418C41.1153 118.592 39.7165 117.573 38.4685 116.387C40.3706 115.632 42.1531 115.022 43.7415 114.455C44.5061 111.585 45.4657 109.076 46.4821 109.076H63.4277C64.4092 109.076 65.2549 109.24 65.9841 109.524C66.1547 109.4 66.3347 109.269 66.5204 109.131C67.9388 108.08 69.7732 106.587 71.8844 104.563Z" fill="#371A45"/>
</g>
<path d="M50.9136 118.526C64.4563 118.526 75.4349 107.65 75.4349 94.2335C75.4349 80.817 64.4563 69.9408 50.9136 69.9408C37.3709 69.9408 26.3923 80.817 26.3923 94.2335C26.3923 107.65 37.3709 118.526 50.9136 118.526Z" fill="white"/>
<path d="M50.8629 118.709C46.0054 118.709 41.2577 117.285 37.1363 114.541C31.6609 110.894 27.9467 105.355 26.6776 98.9411C25.4085 92.5274 26.7358 86.0077 30.4162 80.5844C34.0966 75.1611 39.688 71.4805 46.162 70.2232C52.636 68.9659 59.2171 70.2809 64.6919 73.9265C70.1668 77.5721 73.8815 83.1123 75.1506 89.526C77.771 102.765 69.0303 115.65 55.6662 118.244C54.084 118.552 52.4753 118.708 50.8629 118.709ZM50.9669 70.1083C49.3779 70.1091 47.7928 70.2625 46.2337 70.5664C39.8529 71.8061 34.3406 75.4331 30.7127 80.7797C27.0849 86.1262 25.7767 92.5522 27.0282 98.8741C28.2796 105.196 31.9402 110.656 37.337 114.25C42.7338 117.844 49.2208 119.141 55.6017 117.901C68.7744 115.342 77.3902 102.643 74.8073 89.5935C73.5564 83.2715 69.8952 77.8106 64.4984 74.2171C60.4326 71.5124 55.752 70.1083 50.9648 70.1083H50.9669Z" fill="#371A45"/>
<g opacity="0.35">
<path opacity="0.35" d="M74.0952 86.3045C74.466 87.3679 74.7615 88.4558 74.9795 89.56C77.5832 102.726 68.9226 115.491 55.6308 118.073C42.3391 120.656 29.4556 112.073 26.8487 98.9076C26.7738 98.5294 26.7078 98.1486 26.6521 97.774C30.5707 109.063 42.39 116.046 54.5495 113.684C67.4569 111.174 75.9963 99.0617 74.0952 86.3045Z" fill="#371A45"/>
</g>
<path d="M50.8615 119.359C45.875 119.359 41.0015 117.897 36.7708 115.082C31.1498 111.339 27.3367 105.653 26.0338 99.0684C24.7309 92.4842 26.0937 85.7923 29.8718 80.2237C33.65 74.6551 39.3901 70.8781 46.0363 69.5873C52.6824 68.2966 59.4373 69.6466 65.0577 73.389C70.6782 77.1315 74.4917 82.8186 75.7947 89.4028C78.4842 102.994 69.5116 116.219 55.7922 118.884C54.168 119.2 52.5167 119.359 50.8615 119.359ZM50.9655 70.7585C49.419 70.7593 47.8762 70.9085 46.3587 71.2043C40.1495 72.41 34.786 75.9397 31.2559 81.1419C27.7258 86.3441 26.4531 92.5975 27.6707 98.7489C28.8883 104.9 32.4501 110.214 37.7018 113.71C42.9535 117.207 49.2647 118.469 55.4739 117.263C68.2919 114.773 76.6752 102.417 74.162 89.7182C72.9449 83.5668 69.3826 78.2532 64.1309 74.7566C60.1764 72.1245 55.6216 70.7606 50.9634 70.7606L50.9655 70.7585Z" fill="#371A45"/>
<path d="M75.0219 90.1865C76.0158 94.8369 75.4151 99.4744 73.5728 103.594C72.1914 106.682 65.1619 113.054 55.2644 115.223C46.0858 117.233 36.6804 114.133 34.1541 111.865C30.7843 108.839 28.3376 104.842 27.3405 100.191C24.7097 87.8838 34.292 80.5426 47.4589 77.7797C60.6259 75.0168 72.3906 77.8802 75.0219 90.1865Z" fill="#371A45"/>
<g opacity="0.5">
<path opacity="0.5" d="M67.045 94.9486C68.781 94.8973 70.1316 92.9319 70.0615 90.5587C69.9915 88.1855 68.5275 86.3031 66.7915 86.3543C65.0555 86.4055 63.705 88.3709 63.775 90.7442C63.845 93.1174 65.3091 94.9998 67.045 94.9486Z" fill="white"/>
</g>
<g opacity="0.5">
<path opacity="0.5" d="M66.6192 99.9551C66.7379 98.8718 66.0736 97.9104 65.1354 97.8077C64.1971 97.705 63.3403 98.5 63.2216 99.5833C63.1028 100.667 63.7672 101.628 64.7054 101.731C65.6436 101.833 66.5004 101.038 66.6192 99.9551Z" fill="white"/>
</g>
<g opacity="0.35">
<path opacity="0.35" d="M67.9299 79.6785C71.4334 81.8221 73.9633 85.2435 75.0207 90.186C76.0152 94.8379 75.4134 99.4749 73.5727 103.594C72.1912 106.682 65.1607 113.055 55.2643 115.225C51.7696 115.992 48.2426 116.015 45.073 115.626C57.1836 112.701 65.7375 104.895 67.4503 101.065C69.7909 95.8371 70.5508 89.9511 69.2884 84.0501C68.9736 82.5543 68.5188 81.0907 67.9299 79.6785Z" fill="#111A28"/>
</g>
<path d="M26.892 90.0907C26.7622 90.0903 26.6346 90.0579 26.5207 89.9964C26.4068 89.9349 26.3102 89.8462 26.2396 89.7383C26.169 89.6305 26.1267 89.5069 26.1164 89.3788C26.1062 89.2506 26.1284 89.122 26.181 89.0045C29.101 81.9519 36.5543 76.6946 46.6343 74.5768C56.64 72.4775 65.5747 74.1712 71.1567 79.2235C71.3035 79.3444 71.4005 79.5145 71.4293 79.7015C71.458 79.8885 71.4166 80.0795 71.3127 80.2383C71.2089 80.397 71.0499 80.5126 70.8658 80.563C70.6818 80.6133 70.4855 80.5951 70.3141 80.5117L70.2766 80.4916L70.1981 80.4478L70.1315 80.3875C64.9302 75.6563 56.4813 74.0888 46.9573 76.087C37.3824 78.0966 30.3331 83.0232 27.617 89.6043L27.5832 89.6754C27.5173 89.8006 27.418 89.9054 27.2961 89.9787C27.1743 90.0519 27.0345 90.0906 26.892 90.0907Z" fill="#371A45"/>
<g opacity="0.5">
<path opacity="0.5" d="M34.2606 106.389C34.2606 106.389 27.8178 95.0559 33.3878 88.8319C38.9578 82.6079 48.4641 80.6338 48.371 81.2841C48.371 81.2841 38.3909 86.0143 36.0363 95.1167C34.221 102.136 34.2606 106.389 34.2606 106.389Z" fill="white"/>
</g>
<path d="M54.8931 151.092C55.7945 151.038 56.7276 151.005 57.6445 150.961C58.5615 150.918 59.4873 150.88 60.4048 150.798C61.3223 150.716 62.2398 150.614 63.1469 150.45C64.054 150.285 64.9528 150.075 65.837 149.764C65.8584 149.757 65.8816 149.757 65.9025 149.766C65.9234 149.774 65.9405 149.79 65.9507 149.81C65.9609 149.83 65.9635 149.853 65.958 149.874C65.9525 149.896 65.9393 149.915 65.9208 149.928C65.1281 150.458 64.2475 150.861 63.3461 151.192C62.44 151.507 61.513 151.759 60.5718 151.948C59.6348 152.141 58.6867 152.278 57.733 152.357C56.777 152.429 55.8324 152.463 54.8572 152.381C54.6911 152.37 54.5356 152.297 54.4226 152.176C54.3096 152.054 54.2478 151.895 54.2498 151.73C54.2518 151.565 54.3175 151.407 54.4334 151.289C54.5492 151.17 54.7065 151.1 54.8728 151.093L54.8931 151.092Z" fill="#371A45"/>
<path d="M61.7609 162.144C56.8535 162.144 52.9021 158.843 52.8459 158.795C52.7188 158.682 52.6413 158.525 52.6301 158.356C52.6189 158.188 52.6748 158.022 52.7859 157.894C52.897 157.766 53.0544 157.686 53.2242 157.672C53.394 157.658 53.5626 157.71 53.6937 157.818C53.9907 158.07 61.0306 163.923 67.6071 158.762C67.6737 158.707 67.7508 158.665 67.8337 158.64C67.9167 158.615 68.0038 158.607 68.09 158.616C68.1763 158.625 68.2598 158.651 68.3358 158.692C68.4118 158.733 68.4787 158.789 68.5325 158.857C68.5864 158.924 68.6261 159.001 68.6493 159.084C68.6725 159.167 68.6788 159.253 68.6678 159.339C68.6568 159.424 68.6287 159.506 68.5852 159.58C68.5416 159.654 68.4835 159.719 68.4143 159.771C66.1762 161.529 63.8793 162.144 61.7609 162.144Z" fill="#371A45"/>
<path d="M44.6743 160.044C42.4867 160.044 40.2252 159.204 37.9762 157.533C35.1987 155.472 33.436 152.892 33.3621 152.783C33.266 152.641 33.2307 152.467 33.2639 152.299C33.2972 152.132 33.3963 151.984 33.5395 151.889C33.6827 151.794 33.8582 151.759 34.0274 151.792C34.1967 151.824 34.3458 151.923 34.4419 152.065C34.508 152.162 41.1713 161.803 48.3812 157.747C48.5312 157.663 48.7089 157.641 48.8752 157.686C49.0415 157.731 49.1828 157.84 49.2681 157.989C49.3533 158.137 49.3755 158.313 49.3298 158.478C49.284 158.643 49.1741 158.783 49.0241 158.867C47.6255 159.653 46.165 160.044 44.6743 160.044Z" fill="#371A45"/>
<path d="M37.2431 133.934C37.0873 133.933 36.9367 133.878 36.8189 133.777C36.701 133.676 36.6236 133.536 36.6008 133.383C35.6328 126.875 29.7934 121.12 29.7351 121.062C29.6122 120.943 29.5423 120.779 29.5408 120.609C29.5393 120.438 29.6064 120.273 29.7273 120.151C29.8483 120.03 30.0131 119.96 30.1855 119.959C30.358 119.957 30.524 120.024 30.6469 120.144C30.8997 120.389 36.8551 126.253 37.8876 133.196C37.9127 133.365 37.8691 133.537 37.7663 133.674C37.6635 133.811 37.5099 133.902 37.3394 133.927C37.3075 133.931 37.2753 133.933 37.2431 133.934Z" fill="#371A45"/>
<path d="M33.4226 162.394C33.9619 163.176 34.6235 163.867 35.3824 164.442C36.1299 165.006 36.9693 165.432 37.8437 165.627C38.7056 165.816 39.6019 165.786 40.449 165.54C41.2864 165.295 42.0712 164.881 42.7926 164.362C42.972 164.233 43.1956 164.18 43.4144 164.215C43.6332 164.249 43.8292 164.368 43.9593 164.546C44.0894 164.724 44.1429 164.945 44.1081 165.162C44.0732 165.379 43.9529 165.573 43.7736 165.702C43.7424 165.724 43.7098 165.745 43.6758 165.763L43.6644 165.768C42.7469 166.245 41.7441 166.607 40.6965 166.754C40.1717 166.815 39.6407 166.843 39.1164 166.778C38.597 166.721 38.0868 166.6 37.5976 166.418C36.6297 166.049 35.797 165.449 35.1062 164.753C34.4221 164.06 33.8538 163.264 33.4226 162.394Z" fill="#371A45"/>
<path d="M53.5359 165.169C54.04 165.859 54.6593 166.459 55.3672 166.942C56.046 167.414 56.8162 167.742 57.6293 167.904C58.4139 168.049 59.2214 168.021 59.9938 167.821C60.7634 167.618 61.4972 167.3 62.17 166.878C62.2678 166.818 62.3772 166.779 62.4911 166.763C62.6051 166.746 62.7212 166.754 62.8322 166.784C62.9432 166.814 63.0467 166.867 63.1362 166.939C63.2257 167.01 63.2992 167.1 63.3522 167.201C63.4052 167.302 63.4365 167.413 63.4442 167.527C63.4518 167.641 63.4356 167.755 63.3967 167.862C63.3577 167.97 63.2968 168.068 63.2177 168.151C63.1386 168.234 63.0431 168.3 62.9371 168.344L62.9236 168.349C62.0536 168.717 61.1319 168.952 60.1904 169.043C59.2471 169.132 58.2957 169.014 57.4035 168.698C56.5449 168.382 55.7618 167.893 55.1035 167.262C54.4644 166.658 53.9342 165.95 53.5359 165.169Z" fill="#371A45"/>
</svg>
